<svg width="32" height="32" viewBox="0 0 32 32" fill="none" xmlns="http://www.w3.org/2000/svg">
<path fill-rule="evenodd" clip-rule="evenodd" d="M15.9389 31.9998L15.9532 31.9998H15.9482L15.9389 31.9998ZM16.0518 31.9998H16.0468L16.0611 31.9998L16.0518 31.9998ZM15.89 31.9995L15.9054 31.9996H15.8966L15.89 31.9995ZM16.1034 31.9996H16.0946L16.11 31.9995L16.1034 31.9996ZM15.8429 31.9991L15.8532 31.9992L15.8449 31.9991H15.8429ZM16.1551 31.9991L16.1468 31.9992L16.1571 31.9991H16.1551ZM16.2067 31.9986L16.2031 31.9986L16.217 31.9984L16.2067 31.9986ZM15.783 31.9984L15.7969 31.9986L15.7933 31.9986L15.783 31.9984ZM16.2582 31.9978L16.2498 31.9979L16.267 31.9977L16.2582 31.9978ZM15.733 31.9977L15.7502 31.9979L15.7417 31.9978L15.733 31.9977ZM16.3097 31.9969L16.2984 31.9971L16.3143 31.9968L16.3097 31.9969ZM15.6858 31.9968L15.7016 31.9971L15.6903 31.9969L15.6858 31.9968ZM15.6272 31.9956L15.6412 31.9959L15.6388 31.9959L15.6272 31.9956ZM16.3612 31.9959L16.3587 31.9959L16.3728 31.9956L16.3612 31.9959ZM15.5758 31.9943L15.5951 31.9948L15.5873 31.9946L15.5758 31.9943ZM16.4127 31.9946L16.4049 31.9948L16.4242 31.9943L16.4127 31.9946ZM16.4641 31.9933L16.4516 31.9936L16.4713 31.9931L16.4641 31.9933ZM15.5287 31.9931L15.5484 31.9936L15.5359 31.9933L15.5287 31.9931ZM15.4837 31.9917L15.4978 31.9921L15.4845 31.9917L15.4724 31.9913L15.4837 31.9917ZM16.5155 31.9917L16.5023 31.9921L16.5163 31.9917L16.5276 31.9913L16.5155 31.9917ZM16.5668 31.99L16.5598 31.9903L16.5814 31.9895L16.5668 31.99ZM15.4186 31.9895L15.4402 31.9903L15.4332 31.99L15.4186 31.9895ZM15.3718 31.9878L15.3944 31.9886L15.3819 31.9881L15.3718 31.9878ZM16.6181 31.9881L16.6056 31.9886L16.6282 31.9878L16.6181 31.9881ZM15.3259 31.9859L15.348 31.9868L15.3307 31.9861L15.3259 31.9859ZM16.6693 31.9861L16.652 31.9868L16.6741 31.9859L16.6693 31.9861ZM15.2615 31.9831L15.2852 31.9841L15.2794 31.9839L15.2615 31.9831ZM16.7206 31.9839L16.7148 31.9841L16.7385 31.9831L16.7206 31.9839ZM15.2153 31.9809L15.2399 31.9821L15.2283 31.9816L15.2153 31.9809ZM16.7717 31.9816L16.7601 31.9821L16.7847 31.9809L16.7717 31.9816ZM15.1698 31.9786L15.1946 31.9799L15.1772 31.9791L15.1698 31.9786ZM16.8228 31.9791L16.8054 31.9799L16.8302 31.9786L16.8228 31.9791ZM16.8739 31.9764L16.8513 31.9776L16.8714 31.9765L16.895 31.9752L16.8739 31.9764ZM15.1286 31.9765L15.1487 31.9776L15.1261 31.9764L15.105 31.9752L15.1286 31.9765ZM16.9249 31.9735L16.9149 31.9741L16.9403 31.9726L16.9249 31.9735ZM15.0597 31.9726L15.0851 31.9741L15.0751 31.9735L15.0597 31.9726ZM15.0146 31.9699L15.0399 31.9714L15.0241 31.9706L15.0146 31.9699ZM16.9759 31.9706L16.9601 31.9714L16.9854 31.9699L16.9759 31.9706ZM14.9715 31.9673L14.9943 31.9687L14.9731 31.9674L14.9517 31.966L14.9715 31.9673ZM17.0269 31.9674L17.0057 31.9687L17.0285 31.9673L17.0483 31.966L17.0269 31.9674ZM17.0778 31.9641L17.0702 31.9646L17.0944 31.9629L17.0778 31.9641ZM14.9056 31.9629L14.9298 31.9646L14.9222 31.9641L14.9056 31.9629ZM14.8606 31.9598L14.8843 31.9615L14.8713 31.9606L14.8606 31.9598ZM17.1287 31.9606L17.1157 31.9615L17.1394 31.9598L17.1287 31.9606ZM14.8156 31.9566L14.8374 31.9582L14.8205 31.957L14.8156 31.9566ZM17.1795 31.957L17.1626 31.9582L17.1844 31.9566L17.1795 31.957ZM14.7552 31.9521L14.7743 31.9535L14.7697 31.9532L14.7552 31.9521ZM17.2303 31.9532L17.2257 31.9535L17.2448 31.9521L17.2303 31.9532ZM17.281 31.9493L17.2719 31.9499L17.2913 31.9484L17.281 31.9493ZM14.7087 31.9484L14.7281 31.9499L14.719 31.9493L14.7087 31.9484ZM14.6634 31.9447L14.6799 31.9461L14.6683 31.9451L14.6634 31.9447ZM17.3318 31.9451L17.3201 31.9461L17.3366 31.9447L17.3318 31.9451ZM14.6135 31.9405L14.6184 31.9409L14.6176 31.9409L14.6135 31.9405ZM17.3824 31.9409L17.3816 31.9409L17.3865 31.9405L17.3824 31.9409ZM17.433 31.9364L17.4285 31.9368L17.4398 31.9358L17.433 31.9364ZM14.5602 31.9358L14.5715 31.9368L14.567 31.9364L14.5602 31.9358ZM14.5133 31.9316L14.5218 31.9324L14.5165 31.9319L14.5133 31.9316ZM17.4835 31.9319L17.4783 31.9324L17.4867 31.9316L17.4835 31.9319ZM13.5 31.8053C5.85506 30.6037 0 23.9801 0 15.9999C0 7.16925 7.16938 -0.00012207 16 -0.00012207C24.8306 -0.00012207 32 7.16925 32 15.9999C32 23.9801 26.1449 30.6037 18.5 31.8053V20.6249H22.2281L22.9375 15.9999H18.5V12.9986C18.5 11.7333 19.1199 10.4999 21.1074 10.4999H23.125V6.56238C23.125 6.56238 21.294 6.24988 19.5434 6.24988C15.8887 6.24988 13.5 8.46488 13.5 12.4749V15.9999H9.4375V20.6249H13.5V31.8053Z" fill="black"/>
</svg>
