<svg width="32" height="32" viewBox="0 0 32 32" fill="none" xmlns="http://www.w3.org/2000/svg">
<path fill-rule="evenodd" clip-rule="evenodd" d="M16 -0.00012207C24.8306 -0.00012207 32 7.16925 32 15.9999C32 24.8305 24.8306 31.9999 16 31.9999C7.16938 31.9999 0 24.8305 0 15.9999C0 7.16925 7.16938 -0.00012207 16 -0.00012207ZM16 5.99988C13.2842 5.99988 12.9436 6.01138 11.877 6.06007C10.8126 6.10863 10.0857 6.27769 9.44956 6.52488C8.792 6.78044 8.23431 7.12238 7.67837 7.67832C7.12244 8.23425 6.7805 8.79194 6.52494 9.4495C6.27775 10.0856 6.10875 10.8125 6.06012 11.8769C6.0115 12.9435 6 13.2841 6 15.9999C6 18.7157 6.0115 19.0563 6.06012 20.1229C6.10875 21.1873 6.27775 21.9142 6.52494 22.5503C6.7805 23.2078 7.12244 23.7655 7.67837 24.3215C8.23431 24.8774 8.792 25.2194 9.44956 25.4749C10.0857 25.7221 10.8126 25.8911 11.877 25.9397C12.9436 25.9884 13.2842 25.9999 16 25.9999C18.7158 25.9999 19.0564 25.9884 20.123 25.9397C21.1874 25.8911 21.9143 25.7221 22.5504 25.4749C23.2079 25.2194 23.7656 24.8774 24.3216 24.3215C24.8776 23.7655 25.2195 23.2078 25.4751 22.5503C25.7222 21.9142 25.8912 21.1873 25.9398 20.1229C25.9885 19.0563 26 18.7157 26 15.9999C26 13.2841 25.9885 12.9435 25.9398 11.8769C25.8912 10.8125 25.7222 10.0856 25.4751 9.4495C25.2195 8.79194 24.8776 8.23425 24.3216 7.67832C23.7656 7.12238 23.2079 6.78044 22.5504 6.52488C21.9143 6.27769 21.1874 6.10863 20.123 6.06007C19.0564 6.01138 18.7158 5.99988 16 5.99988ZM16 7.80169C18.6701 7.80169 18.9864 7.81188 20.0409 7.86C21.0159 7.9045 21.5453 8.06738 21.8977 8.20432C22.3645 8.38569 22.6976 8.60244 23.0475 8.95238C23.3975 9.30225 23.6142 9.63544 23.7956 10.1022C23.9325 10.4546 24.0954 10.984 24.1399 11.959C24.188 13.0135 24.1982 13.3298 24.1982 15.9999C24.1982 18.67 24.188 18.9863 24.1399 20.0408C24.0954 21.0158 23.9325 21.5452 23.7956 21.8976C23.6142 22.3644 23.3975 22.6975 23.0475 23.0474C22.6976 23.3974 22.3645 23.6141 21.8977 23.7954C21.5453 23.9324 21.0159 24.0953 20.0409 24.1398C18.9866 24.1879 18.6703 24.1981 16 24.1981C13.3297 24.1981 13.0135 24.1879 11.9591 24.1398C10.9841 24.0953 10.4547 23.9324 10.1023 23.7954C9.6355 23.6141 9.30237 23.3974 8.95244 23.0474C8.6025 22.6975 8.38581 22.3644 8.20444 21.8976C8.0675 21.5452 7.90456 21.0158 7.86006 20.0408C7.81194 18.9863 7.80181 18.67 7.80181 15.9999C7.80181 13.3298 7.81194 13.0135 7.86006 11.959C7.90456 10.984 8.0675 10.4546 8.20444 10.1022C8.38581 9.63544 8.6025 9.30225 8.95244 8.95238C9.30237 8.60244 9.6355 8.38569 10.1023 8.20432C10.4547 8.06738 10.9841 7.9045 11.9591 7.86C13.0136 7.81188 13.3299 7.80169 16 7.80169ZM16 10.8648C13.1639 10.8648 10.8649 13.1638 10.8649 15.9999C10.8649 18.8359 13.1639 21.135 16 21.135C18.8361 21.135 21.1351 18.8359 21.1351 15.9999C21.1351 13.1638 18.8361 10.8648 16 10.8648ZM16 19.3332C14.1591 19.3332 12.6667 17.8408 12.6667 15.9999C12.6667 14.1589 14.1591 12.6666 16 12.6666C17.8409 12.6666 19.3333 14.1589 19.3333 15.9999C19.3333 17.8408 17.8409 19.3332 16 19.3332ZM22.5381 10.6619C22.5381 11.3246 22.0007 11.8618 21.338 11.8618C20.6753 11.8618 20.1381 11.3246 20.1381 10.6619C20.1381 9.99913 20.6753 9.46188 21.338 9.46188C22.0007 9.46188 22.5381 9.99913 22.5381 10.6619Z" fill="black"/>
</svg>
