<svg width="32" height="32" viewBox="0 0 32 32" fill="none" xmlns="http://www.w3.org/2000/svg">
<path fill-rule="evenodd" clip-rule="evenodd" d="M16 -0.00012207C24.8306 -0.00012207 32 7.16925 32 15.9999C32 24.8305 24.8306 31.9999 16 31.9999C7.16938 31.9999 0 24.8305 0 15.9999C0 7.16925 7.16938 -0.00012207 16 -0.00012207ZM16 6.54957C10.4543 6.54957 6.15625 10.6119 6.15625 16.0983C6.15625 18.9682 7.33275 21.4479 9.24806 23.1612C9.40844 23.3058 9.5055 23.5058 9.51344 23.7217L9.56694 25.4726C9.58475 26.0311 10.1611 26.3936 10.6721 26.1698L12.625 25.3082C12.7914 25.2349 12.9756 25.2211 13.1499 25.2686C14.0471 25.5161 15.0037 25.6469 16 25.6469C21.5457 25.6469 25.8438 21.5846 25.8438 16.0983C25.8438 10.6119 21.5457 6.54957 16 6.54957ZM10.0898 18.8909L12.9815 14.3038C13.441 13.5749 14.4274 13.3927 15.1166 13.9096L17.4161 15.6348C17.6281 15.7933 17.9172 15.7913 18.1272 15.6328L21.2328 13.2758C21.6467 12.9609 22.1895 13.4581 21.9102 13.8978L19.0204 18.4829C18.5609 19.2118 17.5746 19.394 16.8854 18.8771L14.5859 17.1519C14.3739 16.9934 14.0847 16.9954 13.8748 17.1539L10.7672 19.5129C10.3532 19.8278 9.8105 19.3306 10.0898 18.8909Z" fill="black"/>
</svg>
