<svg width="32" height="32" viewBox="0 0 32 32" fill="none" xmlns="http://www.w3.org/2000/svg">
<path d="M16 -0.00012207C7.16344 -0.00012207 0 7.16332 0 15.9999C0 24.8364 7.16344 31.9999 16 31.9999C24.8366 31.9999 32 24.8364 32 15.9999C32 7.16332 24.8366 -0.00012207 16 -0.00012207ZM24.1012 14.5238C22.4023 14.5238 20.7491 13.9724 19.4762 13.0394L19.4661 19.3831C19.4651 20.5586 19.1056 21.7058 18.4356 22.6716C17.7656 23.6374 16.817 24.376 15.7163 24.7887C14.6157 25.2014 13.4153 25.2686 12.2755 24.9813C11.1357 24.6941 10.1105 24.0661 9.33692 23.1811C8.5633 22.2961 8.07797 21.1962 7.9457 20.0282C7.81343 18.8602 8.04052 17.6796 8.59665 16.644C9.15278 15.6084 10.0115 14.7671 11.0582 14.2322C12.105 13.6974 13.2899 13.4945 14.455 13.6506V16.7659C13.9054 16.6035 13.3187 16.6183 12.778 16.8082C12.2373 16.998 11.7701 17.3533 11.4426 17.8236C11.1152 18.2939 10.9442 18.8554 10.9538 19.4283C10.9634 20.0013 11.1531 20.5567 11.4961 21.0158C11.8391 21.4749 12.3179 21.8143 12.8647 21.9859C13.4114 22.1576 13.9984 22.1527 14.5422 21.972C15.086 21.7914 15.5592 21.4441 15.8945 20.9794C16.2299 20.5147 16.4104 19.9562 16.4105 19.3831V6.83319H19.6152C19.6152 7.42228 19.7312 8.0056 19.9567 8.54985C20.1821 9.0941 20.5125 9.58861 20.9291 10.0052C21.3456 10.4217 21.8401 10.7521 22.3844 10.9776C22.9286 11.203 23.512 11.319 24.1011 11.319L24.1012 14.5238Z" fill="black"/>
</svg>
