<?xml version="1.0" encoding="UTF-8" standalone="no"?>
<!DOCTYPE svg PUBLIC "-//W3C//DTD SVG 1.1//EN" "http://www.w3.org/Graphics/SVG/1.1/DTD/svg11.dtd">
<svg width="100%" height="100%" viewBox="0 0 23 23" version="1.1" xmlns="http://www.w3.org/2000/svg" xmlns:xlink="http://www.w3.org/1999/xlink" xml:space="preserve" xmlns:serif="http://www.serif.com/" style="fill-rule:evenodd;clip-rule:evenodd;stroke-linejoin:round;stroke-miterlimit:2;">
    <g transform="matrix(1,0,0,1,-3030,-744.642)">
        <g transform="matrix(1,0,0,1,2834.47,-73.4766)">
            <g transform="matrix(1.02273,0,0,1.04176,194.506,817.7)">
                <path d="M13,7L13,11L20,11C20.549,11 21,11.451 21,12L21,20L23,20L23,22L1,22L1,20L3,20L3,12C3,11.451 3.451,11 4,11L11,11L11,7L13,7ZM13.83,0.402C14.653,1.827 14.157,3.677 12.732,4.5L11,5.5C10.177,4.075 10.673,2.225 12.098,1.402L13.83,0.402Z" fill="currentColor"/>
            </g>
        </g>
    </g>
</svg>
