<svg width="204" height="73" viewBox="0 0 204 73" fill="none" xmlns="http://www.w3.org/2000/svg">
<path fill-rule="evenodd" clip-rule="evenodd" d="M167.094 61.2031H165.572L166.315 59.5546L167.094 61.2031ZM169.901 63.322L166.642 56.3492H166.008L162.783 63.322L164.305 63.9927L164.866 62.7243H167.8L168.398 63.9927L169.901 63.322ZM158.513 56.5485H156.846V63.7022H158.513V56.5485ZM149.966 58.9022C149.966 59.3375 149.422 59.682 148.861 59.682H148.263V58.1241H148.951C149.586 58.1241 149.966 58.4497 149.966 58.9022ZM153.062 63.7027L150.563 60.7863C151.215 60.3883 151.668 59.6636 151.668 58.9022C151.668 57.5809 150.708 56.5485 149.205 56.5485H146.596V63.7027H148.263V61.2393H148.788L150.889 63.7027H153.062ZM142.033 63.7027V62.1449H139.099V60.7139H140.493L140.475 59.1204H139.099V58.142H141.852V56.5485H137.432V63.7027H142.033ZM130.66 58.9022C130.66 59.3375 130.117 59.682 129.556 59.682H128.957V58.1241H129.646C130.28 58.1241 130.66 58.4497 130.66 58.9022ZM133.757 63.7027L131.258 60.7863C131.91 60.3883 132.363 59.6636 132.363 58.9022C132.363 57.5809 131.403 56.5485 129.9 56.5485H127.291V63.7027H128.957V61.2393H129.483L131.584 63.7027H133.757ZM123.348 58.142V56.5485H117.426V58.142H119.546V63.7027H121.211V58.142H123.348ZM114.116 61.6373C114.116 60.479 113.246 59.7722 111.996 59.0842C111.49 58.7765 111.037 58.7219 111.037 58.2694C111.037 57.9789 111.362 57.852 111.598 57.852C111.979 57.852 112.358 58.0518 113.065 58.5043L113.898 57.2002C113.046 56.6208 112.395 56.2769 111.653 56.2769C110.403 56.2769 109.316 57.1101 109.316 58.4136C109.316 59.3553 110.058 60.0076 111 60.5147C111.979 61.0223 112.395 61.3295 112.395 61.7286C112.395 62.181 112.033 62.3987 111.688 62.3987C111 62.3987 110.547 61.9456 110.022 61.3662L108.935 62.5072C109.696 63.4128 110.565 63.9565 111.598 63.9565C113.138 63.9565 114.116 62.815 114.116 61.6373ZM103.234 60.1345C103.234 61.384 102.184 62.3441 100.897 62.3441C99.5025 62.3441 98.5246 61.384 98.5246 60.1345C98.5246 58.8672 99.6111 57.8887 100.897 57.8887C102.256 57.8887 103.234 58.8672 103.234 60.1345ZM104.973 60.1345C104.973 57.9433 103.253 56.2769 100.897 56.2769C98.6337 56.2769 96.8042 57.9433 96.8042 60.1345C96.8042 62.3258 98.5068 63.9565 100.897 63.9565C103.144 63.9565 104.973 62.3258 104.973 60.1345ZM91.0486 58.9022C91.0486 59.3375 90.5054 59.682 89.9433 59.682H89.3455V58.1241H90.0345C90.6685 58.1241 91.0486 58.4497 91.0486 58.9022ZM92.7501 58.9022C92.7501 57.5631 91.7911 56.5485 90.2884 56.5485H87.6791V63.7027H89.3455V61.2393H90.1793C91.5379 61.2393 92.7501 60.1712 92.7501 58.9022ZM74.1475 61.2031H72.6264L73.3689 59.5546L74.1475 61.2031ZM76.9555 63.322L73.6956 56.3492H73.0611L69.8368 63.322L71.358 63.9927L71.9196 62.7243H74.8538L75.4516 63.9927L76.9555 63.322ZM66.7411 63.7027V62.1449H63.7167V56.5485H62.0503V63.7027H66.7411Z" fill="currentColor"/>
<path fill-rule="evenodd" clip-rule="evenodd" d="M198.988 49.9092H192.204L191.116 52.706H194.433L193.396 56.6555C192.675 59.5096 191.406 61.3547 190.195 62.3059L191.666 63.3144C193.02 62.479 194.663 60.5476 195.933 57.3467L198.988 49.9092ZM188.194 58.1493C185.673 64.5088 182.472 68.3804 179.848 70.1637L177.875 68.8101C180.338 66.5637 182.743 62.7155 184.156 57.123L186.572 47.9272H175.725V43.4128H194.248L188.194 58.1493ZM166.669 1.0927C165.554 3.7704 166.059 5.93661 167.551 8.32823C171.347 14.3677 176.524 16.1164 178.824 22.8789C181.089 29.5122 177.128 34.1062 173.471 40.0332C172.823 41.0835 171.249 40.1111 171.898 39.062C175.417 33.3537 180.071 29.7432 177.888 23.3548C175.596 16.6118 169.766 15.3233 165.98 9.30057C164.245 6.52102 163.925 3.6012 165.219 0.489366C165.621 -0.4763 167.07 0.126476 166.669 1.0927ZM174.954 5.2971C173.416 6.0546 174.977 7.9531 175.592 9.56272C177.193 12.7953 178.323 14.4523 180.55 17.3036C183.405 20.7516 185.121 22.5895 187.638 26.2924C190.165 30.0176 189.622 34.2943 186.674 37.7607C185.294 39.3831 182.86 37.3138 184.24 35.6908C186.403 33.1472 187.822 30.1589 185.967 27.4267C183.489 23.7783 181.067 22.5444 178.257 19.1481C175.887 16.1131 174.603 14.1818 172.899 10.7427C172.022 8.4479 172.464 5.77353 174.657 4.69377C175.06 4.49507 175.356 5.0984 174.954 5.2971ZM163.315 10.4204C161.242 10.7544 163.826 13.9007 165.249 15.3851C168.084 18.3611 170.354 19.5094 173.329 22.3462C175.544 24.4351 175.87 26.7043 175.87 29.7743C175.87 31.0445 173.965 31.0445 173.965 29.7743C173.965 27.4028 173.285 25.8109 171.574 24.1969C168.548 21.3127 165.943 20.5023 163.06 17.4778C160.612 14.922 159.411 8.8926 162.975 8.31599C164.378 8.08946 164.717 10.1933 163.315 10.4204Z" fill="currentColor"/>
<path d="M49.2442 53.2146C47.2544 53.3532 45.3737 54.3278 43.6066 55.432C41.8394 56.5368 40.1235 57.793 38.2389 58.5717C37.3545 58.9374 36.4144 59.1962 35.4872 59.0492C34.5599 58.9023 33.6443 58.2895 33.2308 57.2832C32.8178 56.2775 33.0482 54.8844 33.857 54.32C34.4458 53.9087 35.2562 54.02 35.7527 54.581C35.2055 54.4508 34.7135 55.0074 34.5816 55.6569C34.4492 56.307 34.7247 57.0222 35.1861 57.3968C35.648 57.7719 36.2603 57.8264 36.7918 57.6244C36.5681 57.3016 36.5976 56.8519 36.6326 56.4339C36.6682 56.0164 36.848 55.619 37.1213 55.3563C37.5448 55.9624 38.087 56.317 38.7432 56.396C39.3988 56.4756 40.06 56.3253 40.6923 56.1027C42.1867 55.5773 43.5587 54.6539 45.0019 53.9532C46.4451 53.253 47.7269 52.7944 49.2442 53.2146Z" fill="currentColor"/>
<path d="M36.3296 71.9479C38.5665 70.6439 40.8039 69.3398 43.0408 68.0352C44.0427 67.4513 45.0501 66.8647 46.117 66.4801C47.1834 66.0955 48.3222 65.9185 49.4164 66.1701C50.1845 66.3465 50.9943 66.8285 51.2426 67.7174C51.4157 68.338 51.2537 69.0737 50.8474 69.5107C50.4411 69.9476 49.8133 70.0606 49.3174 69.7867C49.8328 69.3504 49.9752 68.4777 49.7148 67.7892C49.4543 67.1007 48.7597 66.6949 48.1463 66.8719C48.2365 67.4502 47.9972 68.053 47.5959 68.3908C47.0988 67.7652 46.3174 67.4569 45.6 67.5381C45.8738 68.0318 45.9762 68.5973 45.9595 69.1901C45.3206 68.7353 44.5564 68.6925 43.82 68.8105C43.0837 68.929 42.3796 69.2418 41.6833 69.5519C39.8644 70.3628 38.1485 71.137 36.3296 71.9479Z" fill="currentColor"/>
<path d="M39.8458 61.5755C39.6426 61.7052 39.4395 61.836 39.2079 61.9941V66.7283C39.425 66.5987 39.6281 66.4684 39.8385 66.3337C40.6945 65.7855 41.0947 64.831 41.0947 63.1128C41.0947 61.265 40.5404 61.1303 39.8458 61.5755ZM39.7756 67.423C39.3549 67.6923 38.4849 68.2294 37.8538 68.594C37.8465 68.4587 37.8398 68.2734 37.8398 68.1337C37.8398 67.9934 37.8465 67.7998 37.8538 67.655L38.3307 67.2499V62.5957L37.8538 62.8011C37.8465 62.6659 37.8398 62.4805 37.8398 62.3408C37.8398 62.2011 37.8465 62.0063 37.8538 61.8627C38.5345 61.3869 39.3337 60.8548 39.7895 60.5626C41.1225 59.7088 42.0203 60.0728 42.0203 62.5195C42.0203 64.8571 41.1298 66.5558 39.7756 67.423Z" fill="currentColor"/>
<path d="M46.3321 63.6671L42.6787 65.4893C42.6709 65.3535 42.6631 65.1676 42.6631 65.0274C42.6631 64.8877 42.6709 64.6945 42.6787 64.5509L43.1857 64.1981V59.5439L42.6787 59.697C42.6709 59.5612 42.6631 59.3747 42.6631 59.235C42.6631 59.0953 42.6709 58.9017 42.6787 58.7586L46.2875 56.9575V58.536C46.1829 58.6078 46.0037 58.7074 45.8996 58.7597C45.7877 58.8148 45.5862 58.9055 45.4822 58.9378L45.4154 58.4219L44.1174 59.0686V60.8068L45.6831 60.0259C45.6831 60.3454 45.6608 60.7562 45.6308 61.1007L44.1174 61.8554V63.7528L45.4599 63.0832L45.5267 62.4409C45.6308 62.3686 45.8328 62.2584 45.9447 62.2027C46.0488 62.1504 46.228 62.0714 46.3321 62.0391V63.6671Z" fill="currentColor"/>
<path d="M199.408 68.86H199.886C200.066 68.86 200.225 68.8455 200.364 68.8166C200.502 68.7877 200.616 68.7403 200.706 68.6741C200.796 68.6084 200.864 68.5216 200.911 68.4136C200.957 68.3062 200.981 68.1749 200.981 68.0207C200.981 67.8827 200.964 67.763 200.93 67.6611C200.896 67.5604 200.835 67.478 200.747 67.4157C200.659 67.3528 200.54 67.3072 200.392 67.2782C200.244 67.2493 200.06 67.2348 199.838 67.2348H199.408V68.86ZM199.413 71.2377H198.81V66.7428H200.026C200.254 66.7428 200.464 66.7634 200.655 66.8051C200.847 66.8474 201.012 66.9198 201.152 67.0222C201.292 67.1251 201.4 67.261 201.478 67.4302C201.555 67.5988 201.594 67.8103 201.594 68.0641C201.594 68.1448 201.58 68.2411 201.555 68.3535C201.529 68.4659 201.483 68.5789 201.417 68.6914C201.351 68.8038 201.262 68.9084 201.15 69.0047C201.037 69.101 200.897 69.175 200.73 69.2268L201.743 71.2377H201.058L200.146 69.3281C200.056 69.3309 199.872 69.3325 199.592 69.3325H199.413V71.2377ZM196.982 69.0531C196.982 69.3615 197.02 69.6609 197.096 69.9498C197.171 70.2392 197.279 70.5103 197.419 70.763C197.559 71.0151 197.725 71.2449 197.918 71.4526C198.111 71.6602 198.326 71.8377 198.562 71.9852C198.798 72.1333 199.052 72.2485 199.324 72.3303C199.595 72.4121 199.878 72.4533 200.17 72.4533C200.466 72.4533 200.751 72.4121 201.024 72.3303C201.297 72.2485 201.552 72.1333 201.789 71.9852C202.025 71.8377 202.241 71.6602 202.437 71.4526C202.633 71.2449 202.801 71.0151 202.939 70.763C203.077 70.5103 203.185 70.2403 203.262 69.9526C203.339 69.6648 203.378 69.3648 203.378 69.0531C203.378 68.7409 203.339 68.4403 203.262 68.1509C203.185 67.8615 203.077 67.591 202.939 67.3383C202.801 67.0862 202.633 66.8563 202.437 66.6487C202.241 66.4411 202.025 66.2636 201.789 66.1155C201.552 65.968 201.297 65.8539 201.024 65.7732C200.751 65.6931 200.466 65.6524 200.17 65.6524C199.878 65.6524 199.595 65.6931 199.324 65.7732C199.052 65.8539 198.798 65.968 198.562 66.1155C198.326 66.2636 198.111 66.4411 197.918 66.6487C197.725 66.8563 197.559 67.0862 197.419 67.3383C197.279 67.591 197.171 67.8615 197.096 68.1509C197.02 68.4403 196.982 68.7409 196.982 69.0531ZM196.351 69.0531C196.351 68.6897 196.396 68.3402 196.488 68.004C196.58 67.6678 196.708 67.3539 196.874 67.0611C197.04 66.7684 197.238 66.5018 197.469 66.2602C197.701 66.0192 197.958 65.8133 198.241 65.643C198.524 65.4727 198.828 65.3402 199.155 65.245C199.481 65.1504 199.82 65.1025 200.17 65.1025C200.524 65.1025 200.864 65.1504 201.191 65.245C201.517 65.3402 201.822 65.4727 202.105 65.643C202.387 65.8133 202.646 66.0192 202.879 66.2602C203.112 66.5018 203.311 66.7684 203.477 67.0611C203.642 67.3539 203.771 67.6678 203.863 68.004C203.954 68.3402 204 68.6897 204 69.0531C204 69.4166 203.954 69.7661 203.863 70.1017C203.771 70.4379 203.642 70.7524 203.477 71.0451C203.311 71.3373 203.112 71.6045 202.879 71.8455C202.646 72.0865 202.387 72.2924 202.105 72.4627C201.822 72.6336 201.517 72.7661 201.191 72.8607C200.864 72.9553 200.524 73.0032 200.17 73.0032C199.82 73.0032 199.481 72.9553 199.155 72.8607C198.828 72.7661 198.524 72.6336 198.241 72.4627C197.958 72.2924 197.701 72.0865 197.469 71.8455C197.238 71.6045 197.04 71.3373 196.874 71.0451C196.708 70.7524 196.58 70.4379 196.488 70.1017C196.396 69.7661 196.351 69.4166 196.351 69.0531Z" fill="currentColor"/>
<path d="M29.5631 45.0245C29.4752 44.887 29.3878 44.7101 29.3216 44.5726L29.2993 44.513H25.5925C25.5702 44.69 25.5268 44.867 25.4606 45.0245H29.5631ZM29.124 44.0216L28.9486 43.5101H25.3292L25.5045 44.0216H29.124ZM28.7511 43.0186L28.5757 42.5071H24.9786L25.1533 43.0186H28.7511ZM28.4004 42.0151L28.2251 41.5036H24.6491L24.8244 42.0151H28.4004ZM28.0269 41.0316L27.8522 40.5201H24.2979L24.4732 41.0316H28.0269ZM27.698 40.0287L27.501 39.5172H23.9689L24.1448 40.0287H27.698ZM27.3251 39.0257L27.1281 38.5142H23.6177L23.7936 39.0257H27.3251ZM26.9745 38.0422L26.7769 37.5307H23.2893L23.4647 38.0422H26.9745ZM24.4298 31.0594L24.2545 30.5479H23.4647L23.2665 31.0594H24.4298ZM26.6015 37.0387L26.404 36.5272H22.9381L23.1135 37.0387H26.6015ZM24.8027 32.0429L24.6274 31.5314H23.1135L22.9164 32.0429H24.8027ZM26.2286 36.0358L26.0528 35.5243H22.5869L22.7623 36.0358H26.2286ZM25.1533 33.0464L24.9786 32.5349H22.7406L22.5435 33.0464H25.1533ZM25.8774 35.0328L25.7021 34.5213H22.258L22.4333 35.0328H25.8774ZM25.5268 34.0493L25.3515 33.5378H22.3676L22.1706 34.0493H25.5268ZM23.2893 40.3431L21.5779 35.3278L19.823 40.3431H23.2893ZM18.2434 45.0446C18.0681 44.8475 17.9584 44.6511 17.9362 44.4345C17.8265 44.631 17.6078 44.867 17.344 45.0446H18.2434ZM15.6113 45.0245H15.9842C16.6861 45.0245 17.2566 44.6511 17.4759 44.0611L22.8062 29.7219H24.9346L30.1993 44.3166C30.3529 44.749 30.7475 45.0245 31.2518 45.0245H31.6247V45.8505H23.1791V45.0245H24.0129C24.5177 45.0245 24.6713 44.7691 24.6713 44.513C24.6713 44.4345 24.6491 44.336 24.6274 44.277L23.5743 41.1697H19.5157L18.5729 43.8835C18.5289 44.041 18.4849 44.1785 18.4849 44.3166C18.4849 44.7691 18.8144 45.0245 19.494 45.0245H20.1519V45.8505H15.6113V45.0245Z" fill="currentColor"/>
<path d="M44.28 31.414C44.1704 31.4924 43.9071 31.532 43.7535 31.532C43.9071 31.7485 44.1704 32.1025 44.28 32.3384V31.414ZM44.4771 43.2157C44.565 43.0582 44.6529 42.8812 44.7186 42.7042H42.2619C42.2619 42.8812 42.2396 43.0582 42.2179 43.2157H44.4771ZM44.8945 42.1927C44.9385 42.0352 44.9819 41.8582 45.0041 41.6812H42.1522C42.1962 41.8387 42.2179 42.0157 42.2396 42.1927H44.8945ZM43.6216 44.2186C43.8192 44.0611 43.9945 43.8841 44.1487 43.7071H42.1082C42.042 43.8841 41.9546 44.0611 41.8667 44.2186H43.6216ZM45.0475 41.1892V40.6782H41.7136C41.8227 40.8352 41.9107 41.0127 41.9763 41.1892H45.0475ZM44.9819 40.1862C44.9385 40.0092 44.8945 39.8322 44.8283 39.6747H40.7919C40.9895 39.8322 41.1648 40.0092 41.3185 40.1862H44.9819ZM42.898 44.7101H41.4938C41.3185 44.9071 40.9895 45.1431 40.7257 45.2806C41.5817 45.2216 42.3492 45.0051 42.898 44.7101ZM44.6307 39.1833C44.5433 39.0063 44.4114 38.8293 44.28 38.6718H39.1467C39.4539 38.8293 39.7612 39.0063 40.0684 39.1833H44.6307ZM43.8631 38.1803C43.6656 38.0028 43.4463 37.8263 43.2047 37.6688H37.2382C37.5671 37.8263 37.8961 38.0028 38.2033 38.1803H43.8631ZM37.6333 31.119C37.699 30.942 37.9178 30.686 38.0719 30.529C37.5894 30.647 37.0623 30.863 36.7117 31.119H37.6333ZM42.3932 37.1573C42.0643 36.9803 41.7136 36.8033 41.3841 36.6458H35.9219C36.0977 36.8228 36.2948 36.9998 36.4924 37.1573H42.3932ZM37.3039 32.1219C37.3261 31.9449 37.3478 31.768 37.4135 31.6104H36.1195C35.9658 31.768 35.8339 31.9449 35.7026 32.1219H37.3039ZM40.3751 36.1544C40.0461 35.9968 39.6955 35.8199 39.41 35.6429H35.308C35.3736 35.8199 35.461 35.9968 35.5712 36.1544H40.3751ZM37.3478 33.1249C37.3261 32.9679 37.2821 32.7909 37.2821 32.614H35.4393C35.3514 32.7709 35.308 32.9479 35.264 33.1249H37.3478ZM38.6641 35.1508C38.4665 34.9939 38.269 34.8169 38.1159 34.6393H35.0881C35.0881 34.8169 35.1098 34.9939 35.1543 35.1508H38.6641ZM37.743 34.1479C37.6333 33.9904 37.5671 33.8134 37.4792 33.6364H35.1321C35.1098 33.7939 35.0881 33.9709 35.0881 34.1479H37.743ZM35.5929 43.9036C35.3514 43.6086 35.1098 43.2747 34.9128 42.9201V44.0416C35.0881 43.9626 35.3297 43.9036 35.5929 43.9036ZM35.6809 44.7301C35.1321 44.7301 35.0664 45.2411 35.0224 45.8511H34.0796V39.5372H34.9785C35.1321 42.7632 37.2604 44.8676 39.2346 44.8676C40.3528 44.8676 41.4721 44.1596 41.4721 42.6847C41.4721 38.8688 34.2766 39.6358 34.2766 34.3839C34.2766 31.2565 36.7334 29.5455 39.6515 29.5455C42.1082 29.5455 42.9197 30.824 43.5999 30.824C43.9728 30.824 44.0602 30.4305 44.1047 29.8205H45.0475V35.2494H44.0824C44.0385 32.9874 42.7222 30.5095 40.3311 30.5095C39.0588 30.5095 38.2473 31.2759 38.2473 32.4954C38.2473 36.0163 46.0127 35.2098 46.0127 40.9927C46.0127 44.5526 43.0517 46.0871 40.419 46.0871C37.94 46.0871 36.558 44.7301 35.6809 44.7301Z" fill="currentColor"/>
<path d="M62.5504 31.6493H61.7606C62.0895 32.0428 62.2648 32.2393 62.5504 32.7118V31.6493ZM62.5504 31.1578V30.6463H60.8394C61.0142 30.8033 61.1901 30.9803 61.3654 31.1578H62.5504ZM57.7677 43.5295H54.5211V44.041H57.7677V43.5295ZM57.7677 42.5265H54.5211V43.0375H57.7677V42.5265ZM57.7677 41.5431H54.5211V42.0546H57.7677V41.5431ZM57.7677 40.5596H54.5211V41.0711H57.7677V40.5596ZM57.7677 39.5566H54.5211V40.0681H57.7677V39.5566ZM57.7677 38.5726H54.5211V39.0841H57.7677V38.5726ZM57.7677 37.5696H54.5211V38.0811H57.7677V37.5696ZM57.7677 36.5862H54.5211V37.0977H57.7677V36.5862ZM57.7677 35.6032H54.5211V36.1142H57.7677V35.6032ZM57.7677 34.5997H54.5211V35.1107H57.7677V34.5997ZM57.7677 33.6163H54.5211V34.1272H57.7677V33.6163ZM57.7677 32.6328H54.5211V33.1443H57.7677V32.6328ZM57.7677 31.6298H54.5211V32.1413H57.7677V31.6298ZM57.7677 31.1578V30.8233C57.7677 30.7643 57.7677 30.7053 57.7899 30.6463H54.4994C54.5211 30.7053 54.5211 30.7643 54.5211 30.8233V31.1578H57.7677ZM57.9435 45.0245C57.8773 44.887 57.8333 44.7094 57.8116 44.513H54.4772C54.4555 44.7094 54.4115 44.887 54.3458 45.0245H57.9435ZM50.5288 31.6493H49.739V32.7118C50.024 32.2393 50.1999 32.0428 50.5288 31.6493ZM50.9234 31.1578C51.0993 30.9803 51.2746 30.8033 51.4505 30.6463H49.739V31.1578H50.9234ZM51.8451 45.0245H52.503C53.4247 45.0245 53.6 44.8669 53.6 44.041V30.8233C53.6 30.6269 53.4904 30.6269 53.3584 30.6269C51.6036 30.6463 49.783 34.2457 49.783 36.4286H48.8179V29.8198H63.4715V36.4286H62.5064C62.5064 34.2457 60.6853 30.6463 58.9304 30.6269C58.799 30.6269 58.6894 30.6269 58.6894 30.8233V44.041C58.6894 44.8669 58.8647 45.0245 59.7858 45.0245H60.4443V45.8504H51.8451V45.0245Z" fill="currentColor"/>
<path d="M79.0419 43.1366L79.0636 42.4286C78.9323 42.6646 78.7787 42.9006 78.6034 43.1366H79.0419ZM78.8221 31.5124H78.2304C78.4497 31.7484 78.6473 32.0039 78.8221 32.2794V31.5124ZM78.998 44.0806L79.0202 43.5691H78.2522C78.1208 43.7466 77.9666 43.9236 77.7919 44.0806H78.998ZM78.8221 31.0794V30.647H77.1334C77.3527 30.7844 77.572 30.9219 77.7696 31.0794H78.8221ZM78.9763 45.0251L78.998 44.5136H77.3527C77.1334 44.6906 76.9141 44.8676 76.6948 45.0251H78.9763ZM75.8828 37.8652H74.7863C75.1153 37.9832 75.6418 38.3767 75.8828 38.7112V37.8652ZM75.8828 37.3343V36.4493C75.6418 36.8033 75.137 37.1968 74.7863 37.3343H75.8828ZM72.132 43.5301H69.0602V44.0416H72.132V43.5301ZM72.132 42.5271H69.0602V43.0381H72.132V42.5271ZM72.132 41.5437H69.0602V42.0552H72.132V41.5437ZM72.132 41.0717L72.1537 40.5602H69.0602V41.0717H72.132ZM72.1537 39.5567H69.0602V40.0682H72.1537V39.5567ZM72.1537 38.5732H69.0602V39.0847H72.1537V38.5732ZM72.1537 37.5702H69.0602V38.0817H72.1537V37.5702ZM72.1537 36.5868H69.0602V37.0983H72.1537V36.5868ZM72.1537 35.6033H69.0602V36.1142H72.1537V35.6033ZM72.1537 34.6003H69.0602V35.1113H72.1537V34.6003ZM72.1537 33.6169H69.0602V34.1278H72.1537V33.6169ZM72.1537 32.6334H69.0602V33.1449H72.1537V32.6334ZM72.1537 31.6304H69.0602V32.1419H72.1537V31.6304ZM72.2851 45.0251C72.2194 44.8676 72.176 44.71 72.1537 44.5136H69.0168C68.9946 44.71 68.9512 44.8876 68.8855 45.0251H72.2851ZM72.1537 31.1585V30.647H68.8855C68.9512 30.7844 68.9946 30.9614 69.0168 31.1585H72.1537ZM66.3848 45.0251H67.0421C67.9643 45.0251 68.1391 44.8676 68.1391 44.0416V31.6304C68.1391 30.8039 67.9643 30.647 67.0421 30.647H66.3848V29.8204H79.7443V35.0918H78.7564C78.7564 32.2009 76.3214 30.647 73.755 30.6074C73.5357 30.6074 73.0749 30.6269 73.0749 30.7644V37.1968C74.5448 37.1968 75.8171 35.7608 75.8171 33.7744H76.8039V41.5242H75.8171C75.8171 39.2227 74.5448 38.0227 73.0749 38.0227L73.0531 44.0416C73.0531 44.828 73.229 45.123 74.0405 45.123C76.6948 45.123 78.9763 41.9366 79.1076 39.4587H80.095L79.8757 45.851H66.3848V45.0251Z" fill="currentColor"/>
<path d="M95.6675 43.1171L95.6458 42.5271C95.5579 42.7041 95.3603 42.9596 95.2507 43.1171H95.6675ZM95.6458 44.0611V43.5496H95.0308C94.8995 43.7271 94.7681 43.8841 94.6145 44.0611H95.6458ZM95.6019 45.0251L95.6236 44.5136H94.1976C94.0006 44.6906 93.8024 44.8676 93.5837 45.0251H95.6019ZM89.4817 44.0416L89.4594 43.6676V43.5301H86.366V44.0416H89.4817ZM89.4594 42.5271H86.366V43.0381H89.4594V42.5271ZM89.4594 41.5437H86.366V42.0552H89.4594V41.5437ZM89.4594 40.5602H86.366V41.0717H89.4594V40.5602ZM89.4594 39.5572H86.366V40.0687H89.4594V39.5572ZM89.4594 38.5732H86.366V39.0847H89.4594V38.5732ZM89.4594 37.5702H86.366V38.0817H89.4594V37.5702ZM89.4594 36.5868H86.366V37.0983H89.4594V36.5868ZM89.4594 35.6033H86.366V36.1142H89.4594V35.6033ZM89.4594 34.6003H86.366V35.1113H89.4594V34.6003ZM89.4594 33.6169H86.366V34.1278H89.4594V33.6169ZM89.4594 32.6334H86.366V33.1449H89.4594V32.6334ZM89.4594 31.6304H86.366V32.1419H89.4594V31.6304ZM89.7004 45.0251C89.6348 44.8676 89.5691 44.6906 89.5474 44.5136H86.3443C86.3003 44.71 86.2569 44.8676 86.1912 45.0251H89.7004ZM89.5034 31.1585C89.5251 30.9614 89.5691 30.7844 89.6348 30.647H86.1912C86.2569 30.7844 86.3003 30.9614 86.3443 31.1585H89.5034ZM83.6899 45.0251H84.3478C85.2695 45.0251 85.4448 44.8676 85.4448 44.0416V31.6304C85.4448 30.8039 85.2695 30.647 84.3478 30.647H83.6899V29.8204H92.1355V30.647H91.4776C90.5559 30.647 90.3806 30.8039 90.3806 31.6304V43.6676C90.3806 44.7496 90.6004 45.0841 91.28 45.0841C93.3639 45.0841 95.5362 41.7991 95.7549 39.3407H96.6761L96.5013 45.851H83.6899V45.0251Z" fill="currentColor"/>
<path d="M111.854 43.1366L111.876 42.4286C111.745 42.6646 111.591 42.9006 111.416 43.1366H111.854ZM111.635 31.5124H111.043C111.262 31.7484 111.46 32.0039 111.635 32.2794V31.5124ZM111.81 44.0806L111.833 43.5691H111.065C110.933 43.7466 110.779 43.9236 110.604 44.0806H111.81ZM111.635 31.0794V30.647H109.946C110.165 30.7844 110.385 30.9219 110.582 31.0794H111.635ZM111.789 45.0251L111.81 44.5136H110.165C109.946 44.6906 109.727 44.8676 109.507 45.0251H111.789ZM108.695 37.8652H107.599C107.928 37.9832 108.454 38.3767 108.695 38.7112V37.8652ZM108.695 37.3343V36.4493C108.454 36.8033 107.949 37.1968 107.599 37.3343H108.695ZM104.945 43.5301H101.873V44.0416H104.945V43.5301ZM104.945 42.5271H101.873V43.0381H104.945V42.5271ZM104.945 41.5437H101.873V42.0552H104.945V41.5437ZM104.945 41.0717L104.966 40.5602H101.873V41.0717H104.945ZM104.966 39.5567H101.873V40.0682H104.966V39.5567ZM104.966 38.5732H101.873V39.0847H104.966V38.5732ZM104.966 37.5702H101.873V38.0817H104.966V37.5702ZM104.966 36.5868H101.873V37.0983H104.966V36.5868ZM104.966 35.6033H101.873V36.1142H104.966V35.6033ZM104.966 34.6003H101.873V35.1113H104.966V34.6003ZM104.966 33.6169H101.873V34.1278H104.966V33.6169ZM104.966 32.6334H101.873V33.1449H104.966V32.6334ZM104.966 31.6304H101.873V32.1419H104.966V31.6304ZM105.098 45.0251C105.032 44.8676 104.988 44.71 104.966 44.5136H101.829C101.807 44.71 101.764 44.8876 101.698 45.0251H105.098ZM104.966 31.1585V30.647H101.698C101.764 30.7844 101.807 30.9614 101.829 31.1585H104.966ZM99.1973 45.0251H99.8546C100.777 45.0251 100.952 44.8676 100.952 44.0416V31.6304C100.952 30.8039 100.777 30.647 99.8546 30.647H99.1973V29.8204H112.557V35.0918H111.569C111.569 32.2009 109.134 30.647 106.567 30.6074C106.348 30.6074 105.887 30.6269 105.887 30.7644V37.1968C107.357 37.1968 108.63 35.7608 108.63 33.7744H109.616V41.5242H108.63C108.63 39.2227 107.357 38.0227 105.887 38.0227L105.866 44.0416C105.866 44.828 106.042 45.123 106.853 45.123C109.507 45.123 111.789 41.9366 111.92 39.4587H112.907L112.688 45.851H99.1973V45.0251Z" fill="currentColor"/>
<path d="M131.55 44.7496H127.996C128.524 45.1625 129.072 45.2805 129.642 45.2805C130.41 45.2805 131.024 45.1431 131.55 44.7496ZM130.958 44.2971C130.826 44.1596 130.717 43.9826 130.651 43.7861H127.295C127.383 43.9626 127.492 44.1396 127.602 44.2971H130.958ZM130.19 34.2464C130.212 34.0888 130.234 33.9119 130.234 33.7543V33.7349H126.987V33.9313C126.987 34.0298 126.987 34.1284 126.966 34.2464H130.19ZM130.519 43.3136C130.475 43.1366 130.453 42.9791 130.453 42.8221V42.8021H126.944C126.987 42.9791 127.031 43.1566 127.097 43.3136H130.519ZM130.19 33.2234C130.169 33.0464 130.124 32.8694 130.059 32.7124H126.878C126.922 32.8694 126.944 33.0464 126.966 33.2234H130.19ZM129.862 35.2493C129.949 35.0723 130.036 34.9154 130.08 34.7378H126.944C126.922 34.9154 126.9 35.0723 126.855 35.2493H129.862ZM130.41 42.3496L130.3 41.8387H126.768L126.855 42.3496H130.41ZM130.169 41.3862C130.124 41.2092 130.059 41.0322 129.993 40.8747H126.614L126.702 41.3862H130.169ZM129.818 32.2204C129.707 32.0234 129.554 31.8664 129.401 31.7089H126.571C126.637 31.8664 126.702 32.0434 126.746 32.2204H129.818ZM129.028 36.2523C129.225 36.0953 129.401 35.9183 129.532 35.7408H126.724L126.527 36.2523H129.028ZM129.752 40.4222C129.663 40.2452 129.554 40.0682 129.445 39.9112H126.373L126.505 40.4222H129.752ZM129.072 39.4387C128.896 39.2422 128.698 39.0847 128.501 38.9277H126.022C126.11 39.0847 126.176 39.2617 126.242 39.4387H129.072ZM128.677 31.2174C127.996 30.8829 126.658 30.6664 125.957 30.6664C126.088 30.8239 126.22 31.0204 126.329 31.2174H128.677ZM128.282 36.7443H126.286C126.154 36.9408 125.978 37.1378 125.825 37.2753C126.834 37.2753 127.492 37.1378 128.282 36.7443ZM127.755 38.4752C126.987 38.1213 126.286 38.0027 125.452 38.0027C125.583 38.1407 125.671 38.2788 125.781 38.4752H127.755ZM126.066 33.9119C126.066 31.7284 125.299 30.5095 123.609 30.5095C123.412 30.5095 123.236 30.529 123.082 30.5685V37.1968C123.236 37.2558 123.412 37.2753 123.631 37.2753C125.342 37.2753 126.066 36.0363 126.066 33.9119ZM122.161 43.5301H119.179V44.0416H122.161V43.5301ZM122.161 42.5271H119.179V43.0381H122.161V42.5271ZM122.161 41.5437H119.179V42.0552H122.161V41.5437ZM122.161 40.5602H119.179V41.0717H122.161V40.5602ZM122.161 39.5567H119.179V40.0682H122.161V39.5567ZM122.161 38.5732H119.179V39.0847H122.161V38.5732ZM122.161 37.5702H119.179V38.0817H122.161V37.5702ZM122.161 36.5868H119.179V37.0983H122.161V36.5868ZM122.161 35.6033H119.179V36.1142H122.161V35.6033ZM122.161 34.6003H119.179V35.1113H122.161V34.6003ZM122.161 33.6169H119.179V34.1278H122.161V33.6169ZM122.161 32.6334H119.179V33.1449H122.161V32.6334ZM122.161 31.6304H119.179V32.1419H122.161V31.6304ZM122.337 45.0251C122.271 44.8676 122.227 44.7101 122.205 44.5136H119.156C119.112 44.7101 119.068 44.8676 119.003 45.0251H122.337ZM122.161 31.1585V30.647H119.003C119.068 30.7844 119.112 30.9614 119.156 31.1585H122.161ZM125.825 41.7797C125.452 39.4587 125.013 37.9242 123.368 37.9242C123.17 37.9242 123.126 37.9242 123.082 37.9437V44.0416C123.082 44.8676 123.258 45.0251 124.179 45.0251H124.837V45.851H116.502V45.0251H117.16C118.082 45.0251 118.256 44.8676 118.256 44.0416V31.6304C118.256 30.8039 118.082 30.647 117.16 30.647H116.502V29.8204H124.575C128.896 29.8204 131.156 30.9419 131.156 33.6759C131.156 35.9573 129.598 37.4717 127.317 37.7083V37.7868C130.936 38.3573 131.287 41.8387 131.375 42.7437C131.419 43.1171 131.353 43.7466 131.813 43.7466C132.274 43.7466 132.537 43.0976 132.626 42.0552L133.547 42.1926C133.459 44.4941 132.209 46.1065 129.73 46.1065C126.549 46.1065 126.088 43.4316 125.825 41.7797Z" fill="currentColor"/>
<path d="M143.108 25.631C143.108 25.336 142.888 25.1201 142.339 25.1201C141.814 25.1201 141.484 25.336 141.199 25.631H143.108ZM141.77 26.595L142.756 26.1425L142.822 26.0835H140.804L140.344 26.595H141.77ZM140.76 27.067H139.948L139.466 27.6375L140.76 27.067ZM141.594 43.5106H138.5V44.0221H141.594V43.5106ZM141.594 42.5271H138.5V43.038H141.594V42.5271ZM141.594 41.5436H138.5V42.0551H141.594V41.5436ZM141.594 40.5407H138.5V41.0516H141.594V40.5407ZM141.594 39.5572H138.5V40.0687H141.594V39.5572ZM141.594 38.5732H138.5V39.0847H141.594V38.5732ZM141.594 37.5702H138.5V38.0817H141.594V37.5702ZM141.594 36.5867H138.5V37.0982H141.594V36.5867ZM141.594 35.6032H138.5V36.1142H141.594V35.6032ZM141.594 34.6003H138.5V35.1112H141.594V34.6003ZM141.594 33.6168H138.5V34.1278H141.594V33.6168ZM141.594 32.6139H138.5V33.1248H141.594V32.6139ZM141.594 31.6304H138.5V32.1419H141.594V31.6304ZM141.77 45.025C141.704 44.8675 141.659 44.71 141.638 44.5135H138.479C138.457 44.71 138.391 44.8675 138.325 45.025H141.77ZM141.638 31.1584C141.659 30.9614 141.704 30.7844 141.77 30.6469H138.325C138.391 30.7844 138.457 30.9614 138.479 31.1584H141.638ZM140.409 25.513C140.848 25.0015 141.353 24.5295 142.339 24.5295C143.371 24.5295 143.832 25.0611 143.832 25.631C143.832 26.0245 143.59 26.4375 143.086 26.6935L139.049 28.562H137.843L140.409 25.513ZM135.846 45.025H136.505C137.382 45.025 137.601 44.8675 137.601 44.179V31.6304C137.601 30.8039 137.404 30.6469 136.483 30.6469H135.825V29.8204H144.27V30.6469H143.612C142.691 30.6469 142.515 30.8039 142.515 31.6304V44.0415C142.515 44.8675 142.691 45.025 143.612 45.025H144.27V45.851H135.846V45.025Z" fill="currentColor"/>
<path d="M159.997 45.0245C159.909 44.887 159.822 44.7101 159.756 44.5726L159.733 44.513H156.027C156.004 44.69 155.961 44.867 155.895 45.0245H159.997ZM159.558 44.0216L159.383 43.5101H155.763L155.939 44.0216H159.558ZM159.185 43.0186L159.01 42.5071H155.413L155.587 43.0186H159.185ZM158.834 42.0151L158.659 41.5036H155.083L155.258 42.0151H158.834ZM158.461 41.0316L158.286 40.5201H154.732L154.907 41.0316H158.461ZM158.132 40.0287L157.935 39.5172H154.403L154.579 40.0287H158.132ZM157.759 39.0257L157.562 38.5142H154.052L154.228 39.0257H157.759ZM157.409 38.0422L157.211 37.5307H153.723L153.899 38.0422H157.409ZM154.864 31.0594L154.689 30.5479H153.899L153.701 31.0594H154.864ZM157.036 37.0387L156.838 36.5272H153.372L153.548 37.0387H157.036ZM155.237 32.0429L155.061 31.5314H153.548L153.351 32.0429H155.237ZM156.663 36.0358L156.487 35.5243H153.021L153.196 36.0358H156.663ZM155.587 33.0464L155.413 32.5349H153.175L152.978 33.0464H155.587ZM156.312 35.0328L156.136 34.5213H152.692L152.867 35.0328H156.312ZM155.961 34.0493L155.786 33.5378H152.802L152.605 34.0493H155.961ZM153.723 40.3431L152.012 35.3278L150.257 40.3431H153.723ZM148.677 45.0446C148.502 44.8475 148.393 44.6511 148.37 44.4345C148.261 44.631 148.042 44.867 147.778 45.0446H148.677ZM146.045 45.0245H146.418C147.12 45.0245 147.691 44.6511 147.91 44.0611L153.24 29.7219H155.369L160.633 44.3166C160.787 44.749 161.182 45.0245 161.686 45.0245H162.059V45.8505H153.613V45.0245H154.447C154.952 45.0245 155.105 44.7691 155.105 44.513C155.105 44.4345 155.083 44.336 155.061 44.277L154.008 41.1697H149.95L149.007 43.8835C148.963 44.041 148.919 44.1785 148.919 44.3166C148.919 44.7691 149.249 45.0245 149.928 45.0245H150.586V45.8505H146.045V45.0245Z" fill="currentColor"/>
<path d="M77.3943 20.3683L77.3748 19.8396C77.2958 19.9982 77.1194 20.2275 77.0208 20.3683H77.3943ZM77.3748 21.2143V20.7557H76.8249C76.7069 20.9144 76.5889 21.0557 76.4515 21.2143H77.3748ZM77.3359 22.0776L77.3553 21.6195H76.0785C75.901 21.7782 75.7246 21.9368 75.5281 22.0776H77.3359ZM71.8547 21.1965L71.8352 20.8615V20.7385H69.0656V21.1965H71.8547ZM71.8352 19.8396H69.0656V20.2977H71.8352V19.8396ZM71.8352 18.9585H69.0656V19.4166H71.8352V18.9585ZM71.8352 18.0775H69.0656V18.5355H71.8352V18.0775ZM71.8352 17.1786H69.0656V17.6367H71.8352V17.1786ZM71.8352 16.2975H69.0656V16.7556H71.8352V16.2975ZM71.8352 15.3987H69.0656V15.8567H71.8352V15.3987ZM71.8352 14.5176H69.0656V14.9757H71.8352V14.5176ZM71.8352 13.6365H69.0656V14.0946H71.8352V13.6365ZM71.8352 12.7376H69.0656V13.1957H71.8352V12.7376ZM71.8352 11.8566H69.0656V12.3146H71.8352V11.8566ZM71.8352 10.9755H69.0656V11.4336H71.8352V10.9755ZM71.8352 10.0766H69.0656V10.5347H71.8352V10.0766ZM72.0511 22.0776C71.9921 21.9368 71.9331 21.7782 71.9137 21.6195H69.0456C69.0066 21.7954 68.9671 21.9368 68.9081 22.0776H72.0511ZM71.8747 9.65419C71.8942 9.47776 71.9331 9.31913 71.9921 9.19557H68.9081C68.9671 9.31913 69.0066 9.47776 69.0456 9.65419H71.8747ZM66.6685 22.0776H67.2584C68.0833 22.0776 68.2408 21.9368 68.2408 21.1965V10.0766C68.2408 9.33694 68.0833 9.19557 67.2584 9.19557H66.6685V8.45532H74.2313V9.19557H73.6424C72.817 9.19557 72.66 9.33694 72.66 10.0766V20.8615C72.66 21.831 72.8571 22.1305 73.4654 22.1305C75.3316 22.1305 77.2763 19.1873 77.4733 16.9849H78.2982L78.1407 22.8179H66.6685V22.0776Z" fill="currentColor"/>
<path d="M92.5805 22.0778C92.5014 21.9542 92.4235 21.7956 92.3639 21.672L92.3445 21.6197H89.0245C89.005 21.7778 88.966 21.937 88.907 22.0778H92.5805ZM92.1875 21.1789L92.0306 20.7208H88.789L88.9465 21.1789H92.1875ZM91.8536 20.28L91.6966 19.822H88.4746L88.6321 20.28H91.8536ZM91.5391 19.3811L91.3821 18.9236H88.1801L88.3371 19.3811H91.5391ZM91.2051 18.5001L91.0482 18.042H87.8657L88.0232 18.5001H91.2051ZM90.9107 17.6018L90.7343 17.1431H87.5712L87.7282 17.6018H90.9107ZM90.5768 16.7029L90.3998 16.2448H87.2573L87.4143 16.7029H90.5768ZM90.2623 15.8218L90.0859 15.3638H86.9623L87.1193 15.8218H90.2623ZM87.9837 9.56587L87.8267 9.1078H87.1193L86.9423 9.56587H87.9837ZM89.9284 14.9229L89.7519 14.4649H86.6479L86.8054 14.9229H89.9284ZM88.3176 10.4469L88.1607 9.98887H86.8054L86.6284 10.4469H88.3176ZM89.5944 14.0241L89.4374 13.566H86.3334L86.4909 14.0241H89.5944ZM88.6321 11.3458L88.4746 10.8877H86.4709L86.2944 11.3458H88.6321ZM89.2799 13.1258L89.123 12.6671H86.039L86.1959 13.1258H89.2799ZM88.966 12.2447L88.8091 11.7861H86.1375L85.9599 12.2447H88.966ZM86.9623 17.8834L85.4301 13.3901L83.8583 17.8834H86.9623ZM82.444 22.095C82.2871 21.9192 82.1886 21.7427 82.1691 21.549C82.0711 21.7255 81.8746 21.937 81.6392 22.095H82.444ZM80.0869 22.0778H80.4209C81.0492 22.0778 81.5602 21.7427 81.7567 21.214L86.5304 8.36755H88.4356L93.1498 21.4433C93.2879 21.8312 93.6407 22.0778 94.0932 22.0778H94.4266V22.818H86.8638V22.0778H87.6102C88.0627 22.0778 88.2002 21.8485 88.2002 21.6197C88.2002 21.549 88.1801 21.4611 88.1607 21.4077L87.2173 18.6236H83.5833L82.7385 21.0559C82.6995 21.1967 82.6605 21.3197 82.6605 21.4433C82.6605 21.8485 82.955 22.0778 83.5639 22.0778H84.1533V22.818H80.0869V22.0778Z" fill="currentColor"/>
<path d="M2.59088 45.0159C2.6777 44.8739 2.74505 44.7036 2.7918 44.5044H7.004C7.05075 44.7036 7.11809 44.8739 7.20492 45.0159H2.59088ZM6.92552 28.0869V28.5984H2.7918C2.74449 28.3992 2.6777 28.2294 2.59088 28.0869H6.92552ZM2.87028 29.2112H6.92552V29.7227H2.87028V29.2112ZM2.87028 30.3416H6.92552V30.8531H2.87028V30.3416ZM2.87028 31.3969H6.92552V31.9084H2.87028V31.3969ZM2.87028 32.4383H6.92552V32.9498H2.87028V32.4383ZM2.87028 33.4791H6.92552V33.9906H2.87028V33.4791ZM2.87028 34.482H6.92552V34.9935H2.87028V34.482ZM2.87028 35.485H6.92552V35.9965H2.87028V35.485ZM2.87028 36.4885H6.92552V37H2.87028V36.4885ZM2.87028 37.4915H6.92552V38.003H2.87028V37.4915ZM2.87028 38.4944H6.92552V39.0059H2.87028V38.4944ZM2.87028 39.4974H6.92552V40.0089H2.87028V39.4974ZM2.87028 40.5009H6.92552V41.0124H2.87028V40.5009ZM2.87028 41.5038H6.92552V42.0153H2.87028V41.5038ZM6.92552 44.0213H2.87028V43.5098H6.92552V44.0213ZM2.87028 42.5068H6.92552V43.0183H2.87028V42.5068ZM7.76039 28.1426C7.91345 28.097 8.1422 28.0741 8.37096 28.0741C9.92326 28.0741 11.1188 29.1923 11.1188 32.6381C11.1188 36.2664 9.7958 37.1564 8.37096 37.1564C8.04035 37.1564 7.81104 37.1108 7.76039 37.0879V28.1426ZM12.916 28.6908H11.0832C10.968 28.5088 10.8466 28.3407 10.7158 28.1988C11.5518 28.2973 12.2848 28.4621 12.916 28.6908ZM14.7727 29.8279H11.5974C11.5418 29.6454 11.4795 29.4756 11.4127 29.3164H14.1638C14.3909 29.4717 14.5924 29.6431 14.7727 29.8279ZM15.5124 30.9589H11.8407C11.8151 30.7825 11.7884 30.6082 11.7555 30.4474H15.2547C15.3538 30.6099 15.4401 30.7797 15.5124 30.9589ZM15.7718 32.0142H11.9358C11.9281 31.8366 11.9153 31.668 11.9008 31.5027H15.6822C15.7211 31.6674 15.7518 31.8372 15.7718 32.0142ZM15.8052 32.5696C15.8052 32.7383 15.7941 32.898 15.779 33.055H11.9414C11.9459 32.9158 11.9537 32.7845 11.9537 32.6381C11.9537 32.6047 11.9514 32.5763 11.9509 32.5435H15.8041C15.8041 32.5524 15.8052 32.5607 15.8052 32.5696ZM15.5486 34.0958H11.8685C11.8885 33.9321 11.9047 33.7613 11.918 33.5843H15.6961C15.6566 33.7629 15.6082 33.9344 15.5486 34.0958ZM14.9776 35.0993H11.6826C11.7238 34.9373 11.76 34.7665 11.7922 34.5878H15.3232C15.2224 34.7715 15.1045 34.9396 14.9776 35.0993ZM13.8104 36.1022H11.3308C11.406 35.9442 11.4756 35.7744 11.5384 35.5907H14.5178C14.3013 35.7828 14.0637 35.952 13.8104 36.1022ZM10.6719 37.0857C10.8082 36.9449 10.9351 36.7768 11.0553 36.5937H12.7551C12.0861 36.8375 11.3704 36.9933 10.6719 37.0857ZM8.65091 38.0464C12.213 38.0464 16.6401 37.0195 16.6401 32.5696C16.6401 28.1426 12.213 27.2521 8.65091 27.2521H0V28.2111H0.763071C1.8317 28.2111 2.03541 28.3936 2.03541 29.352V43.7513C2.03541 44.7097 1.8317 44.8923 0.763071 44.8923H0V45.8507H9.7958V44.8923H9.03217C7.96354 44.8923 7.76039 44.7097 7.76039 43.7513V38.0464H8.65091Z" fill="currentColor"/>
</svg>
