<?xml version="1.0" encoding="UTF-8" standalone="no"?>
<!DOCTYPE svg PUBLIC "-//W3C//DTD SVG 1.1//EN" "http://www.w3.org/Graphics/SVG/1.1/DTD/svg11.dtd">
<svg width="100%" height="100%" viewBox="0 0 23 20" version="1.1" xmlns="http://www.w3.org/2000/svg" xmlns:xlink="http://www.w3.org/1999/xlink" xml:space="preserve" xmlns:serif="http://www.serif.com/" fill="currentColor">
    <g transform="matrix(1,0,0,1,-3030,-787.772)">
        <g transform="matrix(1.44338,0,0,1.8098,-1290.36,1474.54)">
            <g transform="matrix(0.974275,0,0,0.777018,2989.32,-384.113)">
                <path d="M4,11.505L14.082,5.975C15.742,6.829 17.09,7.702 18.712,8.629C19.643,9.16 20,10.09 20,11L20,20L4,20L4,18L16,18C16.552,18 17,17.552 17,17C17,16.448 16.552,16 16,16L4,16L4,14L16,14C16.552,14 17,13.552 17,13C17,12.448 16.552,12 16,12L4,12L4,11.505Z" fill="currentColor"/>
            </g>
        </g>
    </g>
</svg>
