<svg width="16" height="16" viewBox="0 0 16 16" fill="none" xmlns="http://www.w3.org/2000/svg">
<mask id="mask0_1124_319" style="mask-type:alpha" maskUnits="userSpaceOnUse" x="0" y="0" width="16" height="16">
<rect width="16" height="16" fill="#D9D9D9"/>
</mask>
<g mask="url(#mask0_1124_319)">
<path d="M2.66634 13.3334C2.29967 13.3334 1.98579 13.2029 1.72467 12.9417C1.46356 12.6806 1.33301 12.3667 1.33301 12.0001V4.00008C1.33301 3.63341 1.46356 3.31953 1.72467 3.05841C1.98579 2.7973 2.29967 2.66675 2.66634 2.66675H13.333C13.6997 2.66675 14.0136 2.7973 14.2747 3.05841C14.5358 3.31953 14.6663 3.63341 14.6663 4.00008V12.0001C14.6663 12.3667 14.5358 12.6806 14.2747 12.9417C14.0136 13.2029 13.6997 13.3334 13.333 13.3334H2.66634ZM7.99967 8.66675L2.66634 5.33341V12.0001H13.333V5.33341L7.99967 8.66675ZM7.99967 7.33341L13.333 4.00008H2.66634L7.99967 7.33341ZM2.66634 5.33341V4.00008V12.0001V5.33341Z" fill="white"/>
</g>
</svg>
