<svg width="120" height="120" viewBox="0 0 120 120" fill="none" xmlns="http://www.w3.org/2000/svg">
<rect width="120" height="120" fill="#0F0F0F"/>
<path fill-rule="evenodd" clip-rule="evenodd" d="M89.6167 71.1424H88.9204L89.2605 70.3878L89.6167 71.1424ZM90.9019 72.1124L89.4098 68.9204H89.1196L87.6436 72.1124L88.34 72.4194L88.5971 71.8388H89.9401L90.2139 72.4194L90.9019 72.1124ZM85.6886 69.0116H84.9255V72.2864H85.6886V69.0116ZM81.7761 70.0891C81.7761 70.2884 81.5272 70.4461 81.2701 70.4461H80.9964V69.7329H81.3116C81.6021 69.7329 81.7761 69.882 81.7761 70.0891ZM83.1935 72.2867L82.0495 70.9516C82.3481 70.7694 82.5552 70.4377 82.5552 70.0891C82.5552 69.4843 82.1157 69.0116 81.4275 69.0116H80.2336V72.2867H80.9964V71.159H81.2369L82.1985 72.2867H83.1935ZM78.1446 72.2867V71.5735H76.8013V70.9185H77.4398L77.4312 70.189H76.8013V69.7411H78.0615V69.0116H76.0385V72.2867H78.1446ZM72.9384 70.0891C72.9384 70.2884 72.6895 70.4461 72.4327 70.4461H72.1588V69.7329H72.474C72.7644 69.7329 72.9384 69.882 72.9384 70.0891ZM74.3561 72.2867L73.2121 70.9516C73.5104 70.7694 73.7178 70.4377 73.7178 70.0891C73.7178 69.4843 73.2786 69.0116 72.5902 69.0116H71.3962V72.2867H72.1588V71.159H72.3996L73.3614 72.2867H74.3561ZM69.591 69.7411V69.0116H66.8801V69.7411H67.8503V72.2867H68.6129V69.7411H69.591ZM65.3648 71.3412C65.3648 70.811 64.9666 70.4874 64.3943 70.1725C64.1625 70.0316 63.9551 70.0066 63.9551 69.7994C63.9551 69.6664 64.1039 69.6084 64.2122 69.6084C64.3864 69.6084 64.5602 69.6998 64.8835 69.907L65.2652 69.31C64.8751 69.0448 64.5768 68.8873 64.2371 68.8873C63.6649 68.8873 63.1673 69.2687 63.1673 69.8654C63.1673 70.2965 63.5072 70.5952 63.9385 70.8273C64.3864 71.0596 64.5768 71.2003 64.5768 71.383C64.5768 71.5901 64.4111 71.6897 64.2534 71.6897C63.9385 71.6897 63.7311 71.4823 63.4906 71.2171L62.993 71.7394C63.3415 72.154 63.7393 72.4029 64.2122 72.4029C64.9169 72.4029 65.3648 71.8803 65.3648 71.3412ZM60.3834 70.6532C60.3834 71.2252 59.9024 71.6648 59.3136 71.6648C58.6751 71.6648 58.2274 71.2252 58.2274 70.6532C58.2274 70.0731 58.7248 69.6252 59.3136 69.6252C59.9355 69.6252 60.3834 70.0731 60.3834 70.6532ZM61.1794 70.6532C61.1794 69.6501 60.3918 68.8873 59.3136 68.8873C58.2773 68.8873 57.4398 69.6501 57.4398 70.6532C57.4398 71.6564 58.2192 72.4029 59.3136 72.4029C60.3422 72.4029 61.1794 71.6564 61.1794 70.6532ZM54.8051 70.0891C54.8051 70.2884 54.5564 70.4461 54.2991 70.4461H54.0254V69.7329H54.3408C54.631 69.7329 54.8051 69.882 54.8051 70.0891ZM55.584 70.0891C55.584 69.4761 55.145 69.0116 54.457 69.0116H53.2626V72.2867H54.0254V71.159H54.4071C55.029 71.159 55.584 70.6701 55.584 70.0891ZM47.0681 71.1424H46.3718L46.7117 70.3878L47.0681 71.1424ZM48.3535 72.1124L46.8612 68.9204H46.5708L45.0948 72.1124L45.7911 72.4194L46.0482 71.8388H47.3915L47.6651 72.4194L48.3535 72.1124ZM43.6776 72.2867V71.5735H42.2931V69.0116H41.5303V72.2867H43.6776Z" fill="#E6E6E6"/>
<path fill-rule="evenodd" clip-rule="evenodd" d="M104.217 65.9723H101.112L100.613 67.2526H102.132L101.657 69.0606C101.327 70.3672 100.746 71.2118 100.192 71.6472L100.865 72.1089C101.485 71.7265 102.237 70.8423 102.819 69.3771L104.217 65.9723ZM99.2757 69.7445C98.1218 72.6557 96.6565 74.428 95.4554 75.2443L94.5519 74.6247C95.6794 73.5964 96.7806 71.8348 97.4272 69.2746L98.5333 65.065H93.5679V62.9984H102.047L99.2757 69.7445ZM89.4223 43.6252C88.9119 44.851 89.1428 45.8426 89.8258 46.9375C91.5638 49.7022 93.9338 50.5027 94.9864 53.5984C96.0233 56.635 94.21 58.7381 92.536 61.4513C92.2395 61.9321 91.5189 61.487 91.8157 61.0067C93.4268 58.3936 95.5573 56.7408 94.5578 53.8163C93.5086 50.7295 90.8402 50.1397 89.1068 47.3826C88.3126 46.1102 88.1659 44.7735 88.7585 43.349C88.9425 42.907 89.606 43.1829 89.4223 43.6252ZM93.2151 45.5499C92.5108 45.8967 93.2252 46.7657 93.507 47.5026C94.2398 48.9824 94.757 49.7409 95.7767 51.0462C97.0835 52.6246 97.8693 53.466 99.0212 55.1611C100.178 56.8664 99.9298 58.8242 98.5799 60.411C97.9485 61.1537 96.8341 60.2064 97.4657 59.4634C98.4561 58.2991 99.1058 56.9311 98.2566 55.6803C97.1223 54.0102 96.0134 53.4453 94.7267 51.8906C93.6418 50.5012 93.0543 49.6171 92.2741 48.0428C91.8726 46.9923 92.0749 45.768 93.079 45.2737C93.2632 45.1827 93.399 45.4589 93.2151 45.5499ZM87.8869 47.8952C86.9381 48.0481 88.1205 49.4884 88.7723 50.168C90.0699 51.5303 91.109 52.0559 92.4708 53.3546C93.4851 54.3108 93.6344 55.3496 93.6344 56.755C93.6344 57.3365 92.762 57.3365 92.762 56.755C92.762 55.6694 92.4509 54.9407 91.6675 54.2018C90.2824 52.8815 89.09 52.5105 87.7699 51.126C86.6494 49.956 86.0998 47.1958 87.7312 46.9319C88.3733 46.8282 88.5287 47.7913 87.8869 47.8952Z" fill="#E6E6E6"/>
<path d="M35.6677 67.4854C34.7568 67.5489 33.8959 67.995 33.0869 68.5005C32.278 69.0063 31.4925 69.5813 30.6297 69.9378C30.2249 70.1052 29.7945 70.2237 29.3701 70.1564C28.9456 70.0891 28.5264 69.8086 28.3371 69.348C28.1481 68.8875 28.2536 68.2498 28.6238 67.9915C28.8933 67.8032 29.2643 67.8541 29.4916 68.1109C29.2411 68.0513 29.0159 68.3061 28.9555 68.6035C28.8949 68.901 29.021 69.2285 29.2322 69.3999C29.4437 69.5717 29.724 69.5966 29.9673 69.5041C29.8649 69.3564 29.8784 69.1505 29.8944 68.9591C29.9107 68.768 29.993 68.5861 30.1181 68.4659C30.312 68.7433 30.5602 68.9056 30.8606 68.9418C31.1607 68.9783 31.4634 68.9095 31.7528 68.8075C32.437 68.567 33.065 68.1443 33.7257 67.8235C34.3864 67.503 34.9731 67.2931 35.6677 67.4854Z" fill="#E6E6E6"/>
<path d="M29.7559 76.0612C30.7799 75.4642 31.8041 74.8672 32.8281 74.27C33.2867 74.0027 33.7479 73.7342 34.2363 73.5581C34.7245 73.382 35.2458 73.301 35.7467 73.4162C36.0983 73.497 36.4691 73.7176 36.5827 74.1245C36.6619 74.4086 36.5878 74.7454 36.4018 74.9454C36.2158 75.1454 35.9284 75.1972 35.7014 75.0718C35.9373 74.8721 36.0025 74.4725 35.8833 74.1574C35.7641 73.8422 35.4461 73.6564 35.1653 73.7375C35.2066 74.0022 35.097 74.2781 34.9133 74.4328C34.6858 74.1464 34.3281 74.0053 33.9996 74.0425C34.125 74.2685 34.1719 74.5273 34.1642 74.7987C33.8717 74.5905 33.5219 74.5709 33.1848 74.6249C32.8477 74.6792 32.5254 74.8224 32.2067 74.9643C31.374 75.3355 30.5885 75.6899 29.7559 76.0612Z" fill="#E6E6E6"/>
<path d="M31.3655 71.3129C31.2725 71.3723 31.1795 71.4321 31.0735 71.5045V73.6717C31.1729 73.6124 31.2659 73.5527 31.3622 73.4911C31.7541 73.2401 31.9373 72.8032 31.9373 72.0166C31.9373 71.1707 31.6835 71.1091 31.3655 71.3129ZM31.3334 73.9897C31.1408 74.113 30.7426 74.3589 30.4536 74.5258C30.4503 74.4639 30.4473 74.379 30.4473 74.3151C30.4473 74.2509 30.4503 74.1622 30.4536 74.096L30.672 73.9105V71.7799L30.4536 71.8739C30.4503 71.812 30.4473 71.7272 30.4473 71.6632C30.4473 71.5993 30.4503 71.5101 30.4536 71.4444C30.7652 71.2265 31.1311 70.9829 31.3398 70.8492C31.95 70.4583 32.361 70.625 32.361 71.745C32.361 72.8151 31.9533 73.5927 31.3334 73.9897Z" fill="#E6E6E6"/>
<path d="M34.3348 72.2704L32.6624 73.1046C32.6588 73.0424 32.6553 72.9573 32.6553 72.8931C32.6553 72.8292 32.6588 72.7407 32.6624 72.675L32.8945 72.5135V70.3829L32.6624 70.453C32.6588 70.3908 32.6553 70.3055 32.6553 70.2415C32.6553 70.1776 32.6588 70.0889 32.6624 70.0234L34.3145 69.1989V69.9215C34.2666 69.9544 34.1845 70 34.1369 70.0239C34.0857 70.0491 33.9934 70.0907 33.9458 70.1055L33.9152 69.8693L33.321 70.1653V70.961L34.0378 70.6036C34.0378 70.7498 34.0276 70.9379 34.0138 71.0956L33.321 71.4411V72.3096L33.9356 72.0031L33.9662 71.7091C34.0138 71.676 34.1063 71.6255 34.1575 71.6001C34.2052 71.5761 34.2872 71.5399 34.3348 71.5251V72.2704Z" fill="#E6E6E6"/>
<path d="M104.41 74.6476H104.628C104.71 74.6476 104.783 74.641 104.847 74.6277C104.91 74.6145 104.962 74.5928 105.003 74.5625C105.045 74.5324 105.076 74.4927 105.097 74.4432C105.119 74.3941 105.129 74.3339 105.129 74.2634C105.129 74.2002 105.122 74.1454 105.106 74.0988C105.091 74.0526 105.063 74.0149 105.022 73.9864C104.982 73.9576 104.928 73.9367 104.86 73.9235C104.792 73.9102 104.708 73.9036 104.606 73.9036H104.41V74.6476ZM104.412 75.736H104.136V73.6784H104.692C104.797 73.6784 104.893 73.6878 104.98 73.7069C105.068 73.7263 105.144 73.7594 105.208 73.8063C105.272 73.8534 105.321 73.9156 105.357 73.993C105.392 74.0702 105.41 74.167 105.41 74.2832C105.41 74.3202 105.404 74.3642 105.392 74.4157C105.38 74.4672 105.359 74.5189 105.329 74.5704C105.299 74.6218 105.258 74.6697 105.207 74.7138C105.155 74.7579 105.091 74.7918 105.014 74.8155L105.478 75.736H105.165L104.747 74.8619C104.706 74.8631 104.622 74.8639 104.493 74.8639H104.412V75.736ZM103.299 74.736C103.299 74.8771 103.316 75.0142 103.351 75.1465C103.385 75.2789 103.435 75.403 103.499 75.5187C103.563 75.6341 103.639 75.7393 103.727 75.8344C103.816 75.9294 103.914 76.0107 104.022 76.0782C104.13 76.146 104.247 76.1987 104.371 76.2362C104.495 76.2736 104.624 76.2925 104.758 76.2925C104.894 76.2925 105.024 76.2736 105.149 76.2362C105.274 76.1987 105.391 76.146 105.499 76.0782C105.607 76.0107 105.706 75.9294 105.796 75.8344C105.886 75.7393 105.963 75.6341 106.026 75.5187C106.089 75.403 106.138 75.2795 106.174 75.1477C106.209 75.016 106.227 74.8787 106.227 74.736C106.227 74.593 106.209 74.4555 106.174 74.323C106.138 74.1905 106.089 74.0667 106.026 73.951C105.963 73.8356 105.886 73.7303 105.796 73.6353C105.706 73.5403 105.607 73.459 105.499 73.3912C105.391 73.3237 105.274 73.2715 105.149 73.2345C105.024 73.1978 104.894 73.1792 104.758 73.1792C104.624 73.1792 104.495 73.1978 104.371 73.2345C104.247 73.2715 104.13 73.3237 104.022 73.3912C103.914 73.459 103.816 73.5403 103.727 73.6353C103.639 73.7303 103.563 73.8356 103.499 73.951C103.435 74.0667 103.385 74.1905 103.351 74.323C103.316 74.4555 103.299 74.593 103.299 74.736ZM103.01 74.736C103.01 74.5696 103.031 74.4096 103.073 74.2557C103.115 74.1018 103.173 73.9581 103.249 73.8241C103.325 73.6901 103.416 73.568 103.522 73.4575C103.628 73.3471 103.746 73.2529 103.875 73.1749C104.005 73.0969 104.144 73.0363 104.294 72.9927C104.443 72.9494 104.598 72.9275 104.758 72.9275C104.92 72.9275 105.076 72.9494 105.225 72.9927C105.375 73.0363 105.514 73.0969 105.644 73.1749C105.773 73.2529 105.891 73.3471 105.998 73.4575C106.105 73.568 106.196 73.6901 106.272 73.8241C106.348 73.9581 106.407 74.1018 106.449 74.2557C106.49 74.4096 106.512 74.5696 106.512 74.736C106.512 74.9024 106.49 75.0624 106.449 75.216C106.407 75.3699 106.348 75.5139 106.272 75.6479C106.196 75.7816 106.105 75.9039 105.998 76.0143C105.891 76.1246 105.773 76.2189 105.644 76.2968C105.514 76.375 105.375 76.4357 105.225 76.479C105.076 76.5223 104.92 76.5442 104.758 76.5442C104.598 76.5442 104.443 76.5223 104.294 76.479C104.144 76.4357 104.005 76.375 103.875 76.2968C103.746 76.2189 103.628 76.1246 103.522 76.0143C103.416 75.9039 103.325 75.7816 103.249 75.6479C103.173 75.5139 103.115 75.3699 103.073 75.216C103.031 75.0624 103.01 74.9024 103.01 74.736Z" fill="#E6E6E6"/>
<path d="M26.6583 63.7362C26.618 63.6733 26.578 63.5922 26.5477 63.5293L26.5375 63.5021H24.8406C24.8304 63.5831 24.8106 63.6641 24.7802 63.7362H26.6583ZM26.4573 63.2771L26.377 63.0429H24.7201L24.8004 63.2771H26.4573ZM26.2866 62.8179L26.2063 62.5838H24.5596L24.6396 62.8179H26.2866ZM26.126 62.3586L26.0458 62.1244H24.4088L24.489 62.3586H26.126ZM25.9551 61.9083L25.8751 61.6742H24.248L24.3282 61.9083H25.9551ZM25.8045 61.4492L25.7143 61.2151H24.0974L24.1779 61.4492H25.8045ZM25.6338 60.9901L25.5436 60.7559H23.9366L24.0171 60.9901H25.6338ZM25.4733 60.5399L25.3828 60.3057H23.7863L23.8666 60.5399H25.4733ZM24.3084 57.3433L24.2281 57.1091H23.8666L23.7759 57.3433H24.3084ZM25.3026 60.0805L25.2121 59.8463H23.6255L23.7058 60.0805H25.3026ZM24.4791 57.7935L24.3988 57.5593H23.7058L23.6156 57.7935H24.4791ZM25.1319 59.6214L25.0513 59.3872H23.4648L23.545 59.6214H25.1319ZM24.6396 58.2529L24.5596 58.0187H23.5351L23.4449 58.2529H24.6396ZM24.9711 59.1622L24.8908 58.9281H23.3142L23.3944 59.1622H24.9711ZM24.8106 58.712L24.7303 58.4779H23.3644L23.2742 58.712H24.8106ZM23.7863 61.5932L23.0028 59.2973L22.1995 61.5932H23.7863ZM21.4764 63.7454C21.3961 63.6552 21.3459 63.5652 21.3357 63.4661C21.2855 63.5561 21.1854 63.6641 21.0646 63.7454H21.4764ZM20.2715 63.7362H20.4422C20.7635 63.7362 21.0246 63.5652 21.125 63.2952L23.5651 56.731H24.5395L26.9495 63.4121C27.0198 63.6101 27.2005 63.7362 27.4313 63.7362H27.602V64.1143H23.7359V63.7362H24.1175C24.3486 63.7362 24.4189 63.6193 24.4189 63.5021C24.4189 63.4661 24.4088 63.421 24.3988 63.394L23.9168 61.9715H22.0588L21.6272 63.2139C21.6071 63.286 21.587 63.3489 21.587 63.4121C21.587 63.6193 21.7378 63.7362 22.0489 63.7362H22.3501V64.1143H20.2715V63.7362Z" fill="#E6E6E6"/>
<path d="M33.3951 57.5056C33.3449 57.5415 33.2244 57.5596 33.1541 57.5596C33.2244 57.6587 33.3449 57.8208 33.3951 57.9288V57.5056ZM33.4853 62.9082C33.5256 62.8361 33.5658 62.755 33.5959 62.674H32.4712C32.4712 62.755 32.4611 62.8361 32.4511 62.9082H33.4853ZM33.6764 62.4399C33.6965 62.3677 33.7164 62.2867 33.7266 62.2057H32.4211C32.4412 62.2778 32.4511 62.3588 32.4611 62.4399H33.6764ZM33.0937 63.3673C33.1841 63.2952 33.2644 63.2142 33.335 63.1331H32.4009C32.3706 63.2142 32.3306 63.2952 32.2903 63.3673H33.0937ZM33.7465 61.9805V61.7466H32.2203C32.2702 61.8184 32.3105 61.8997 32.3405 61.9805H33.7465ZM33.7164 61.5213C33.6965 61.4403 33.6764 61.3593 33.6461 61.2872H31.7983C31.8888 61.3593 31.9691 61.4403 32.0394 61.5213H33.7164ZM32.7625 63.5923H32.1196C32.0394 63.6825 31.8888 63.7905 31.768 63.8534C32.1599 63.8264 32.5113 63.7273 32.7625 63.5923ZM33.5556 61.0622C33.5156 60.9812 33.4552 60.9002 33.3951 60.8281H31.0452C31.1858 60.9002 31.3265 60.9812 31.4671 61.0622H33.5556ZM33.2043 60.6031C33.1138 60.5218 33.0134 60.441 32.9029 60.3689H30.1715C30.3221 60.441 30.4727 60.5218 30.6133 60.6031H33.2043ZM30.3524 57.3706C30.3825 57.2895 30.4826 57.1723 30.5532 57.1005C30.3323 57.1545 30.091 57.2534 29.9305 57.3706H30.3524ZM32.5314 60.1348C32.3808 60.0537 32.2203 59.9727 32.0694 59.9006H29.5689C29.6495 59.9816 29.7396 60.0627 29.8301 60.1348H32.5314ZM30.2016 57.8297C30.2118 57.7487 30.2217 57.6676 30.2518 57.5955H29.6594C29.5891 57.6676 29.5287 57.7487 29.4686 57.8297H30.2016ZM31.6075 59.6756C31.4569 59.6035 31.2964 59.5225 31.1657 59.4415H29.2879C29.318 59.5225 29.358 59.6035 29.4084 59.6756H31.6075ZM30.2217 58.2888C30.2118 58.217 30.1916 58.1359 30.1916 58.0549H29.348C29.3078 58.1268 29.2879 58.2078 29.2678 58.2888H30.2217ZM30.8243 59.2163C30.7338 59.1444 30.6434 59.0634 30.5733 58.9821H29.1873C29.1873 59.0634 29.1972 59.1444 29.2176 59.2163H30.8243ZM30.4026 58.7571C30.3524 58.685 30.3221 58.604 30.2818 58.523H29.2074C29.1972 58.5951 29.1873 58.6761 29.1873 58.7571H30.4026ZM29.4184 63.2231C29.3078 63.088 29.1972 62.9352 29.107 62.7729V63.2863C29.1873 63.2501 29.2978 63.2231 29.4184 63.2231ZM29.4586 63.6014C29.2074 63.6014 29.1773 63.8353 29.1572 64.1146H28.7256V61.2243H29.1371C29.2074 62.701 30.1817 63.6644 31.0854 63.6644C31.5973 63.6644 32.1097 63.3403 32.1097 62.6651C32.1097 60.9182 28.8158 61.2693 28.8158 58.8652C28.8158 57.4335 29.9404 56.6503 31.2763 56.6503C32.4009 56.6503 32.7724 57.2355 33.0838 57.2355C33.2545 57.2355 33.2945 57.0554 33.3149 56.7761H33.7465V59.2614H33.3047C33.2845 58.2259 32.682 57.0916 31.5874 57.0916C31.0049 57.0916 30.6335 57.4424 30.6335 58.0007C30.6335 59.6125 34.1883 59.2433 34.1883 61.8905C34.1883 63.5202 32.8328 64.2226 31.6276 64.2226C30.4928 64.2226 29.8602 63.6014 29.4586 63.6014Z" fill="#E6E6E6"/>
<path d="M41.7591 57.6134H41.3975C41.5481 57.7935 41.6284 57.8834 41.7591 58.0998V57.6134ZM41.7591 57.3884V57.1542H40.9759C41.0559 57.2261 41.1364 57.3071 41.2166 57.3884H41.7591ZM39.5697 63.0519H38.0835V63.286H39.5697V63.0519ZM39.5697 62.5927H38.0835V62.8266H39.5697V62.5927ZM39.5697 62.1425H38.0835V62.3767H39.5697V62.1425ZM39.5697 61.6923H38.0835V61.9265H39.5697V61.6923ZM39.5697 61.2332H38.0835V61.4673H39.5697V61.2332ZM39.5697 60.7827H38.0835V61.0169H39.5697V60.7827ZM39.5697 60.3236H38.0835V60.5577H39.5697V60.3236ZM39.5697 59.8734H38.0835V60.1075H39.5697V59.8734ZM39.5697 59.4234H38.0835V59.6573H39.5697V59.4234ZM39.5697 58.964H38.0835V59.1979H39.5697V58.964ZM39.5697 58.5138H38.0835V58.7477H39.5697V58.5138ZM39.5697 58.0636H38.0835V58.2977H39.5697V58.0636ZM39.5697 57.6045H38.0835V57.8386H39.5697V57.6045ZM39.5697 57.3884V57.2353C39.5697 57.2083 39.5697 57.1812 39.5799 57.1542H38.0735C38.0835 57.1812 38.0835 57.2083 38.0835 57.2353V57.3884H39.5697ZM39.6502 63.7362C39.6199 63.6733 39.5997 63.592 39.5898 63.5021H38.0634C38.0534 63.592 38.0333 63.6733 38.0032 63.7362H39.6502ZM36.2559 57.6134H35.8943V58.0998C36.0248 57.8834 36.1053 57.7935 36.2559 57.6134ZM36.4365 57.3884C36.517 57.3071 36.5973 57.2261 36.6778 57.1542H35.8943V57.3884H36.4365ZM36.8585 63.7362H37.1596C37.5816 63.7362 37.6618 63.6641 37.6618 63.286V57.2353C37.6618 57.1453 37.6116 57.1453 37.5512 57.1453C36.7479 57.1542 35.9145 58.802 35.9145 59.8013H35.4727V56.7759H42.1808V59.8013H41.739C41.739 58.802 40.9053 57.1542 40.1019 57.1453C40.0418 57.1453 39.9916 57.1453 39.9916 57.2353V63.286C39.9916 63.6641 40.0719 63.7362 40.4935 63.7362H40.795V64.1143H36.8585V63.7362Z" fill="#E6E6E6"/>
<path d="M49.3088 62.872L49.3188 62.5479C49.2586 62.6559 49.1883 62.7639 49.108 62.872H49.3088ZM49.2082 57.5507H48.9373C49.0377 57.6587 49.1282 57.7757 49.2082 57.9018V57.5507ZM49.2887 63.3041L49.2989 63.0699H48.9473C48.8871 63.1512 48.8166 63.2322 48.7366 63.3041H49.2887ZM49.2082 57.3525V57.1545H48.4351C48.5355 57.2174 48.6359 57.2804 48.7264 57.3525H49.2082ZM49.2788 63.7365L49.2887 63.5023H48.5355C48.4351 63.5833 48.3348 63.6644 48.2344 63.7365H49.2788ZM47.8626 60.4589H47.3607C47.5113 60.5129 47.7523 60.693 47.8626 60.8461V60.4589ZM47.8626 60.2158V59.8107C47.7523 59.9727 47.5212 60.1529 47.3607 60.2158H47.8626ZM46.1456 63.0521H44.7394V63.2863H46.1456V63.0521ZM46.1456 62.593H44.7394V62.8269H46.1456V62.593ZM46.1456 62.1428H44.7394V62.3769H46.1456V62.1428ZM46.1456 61.9267L46.1555 61.6925H44.7394V61.9267H46.1456ZM46.1555 61.2332H44.7394V61.4673H46.1555V61.2332ZM46.1555 60.7829H44.7394V61.0171H46.1555V60.7829ZM46.1555 60.3238H44.7394V60.558H46.1555V60.3238ZM46.1555 59.8736H44.7394V60.1078H46.1555V59.8736ZM46.1555 59.4234H44.7394V59.6573H46.1555V59.4234ZM46.1555 58.9643H44.7394V59.1982H46.1555V58.9643ZM46.1555 58.514H44.7394V58.7479H46.1555V58.514ZM46.1555 58.0638H44.7394V58.298H46.1555V58.0638ZM46.1555 57.6047H44.7394V57.8389H46.1555V57.6047ZM46.2157 63.7365C46.1856 63.6644 46.1657 63.5923 46.1555 63.5023H44.7195C44.7094 63.5923 44.6895 63.6735 44.6594 63.7365H46.2157ZM46.1555 57.3886V57.1545H44.6594C44.6895 57.2174 44.7094 57.2984 44.7195 57.3886H46.1555ZM43.5146 63.7365H43.8156C44.2377 63.7365 44.3177 63.6644 44.3177 63.2863V57.6047C44.3177 57.2263 44.2377 57.1545 43.8156 57.1545H43.5146V56.7761H49.6304V59.1892H49.1781C49.1781 57.8659 48.0634 57.1545 46.8886 57.1364C46.7882 57.1364 46.5772 57.1453 46.5772 57.2082V60.1529C47.2501 60.1529 47.8326 59.4955 47.8326 58.5861H48.2843V62.1338H47.8326C47.8326 61.0803 47.2501 60.531 46.5772 60.531L46.5673 63.2863C46.5673 63.6463 46.6478 63.7813 47.0193 63.7813C48.2344 63.7813 49.2788 62.3226 49.3389 61.1883H49.7909L49.6905 64.1146H43.5146V63.7365Z" fill="#E6E6E6"/>
<path d="M56.9196 62.863L56.9097 62.593C56.8694 62.674 56.779 62.7909 56.7288 62.863H56.9196ZM56.9097 63.2952V63.061H56.6281C56.568 63.1423 56.5079 63.2141 56.4375 63.2952H56.9097ZM56.8895 63.7365L56.8995 63.5023H56.2467C56.1565 63.5833 56.0658 63.6644 55.9657 63.7365H56.8895ZM54.0879 63.2863L54.0777 63.115V63.0521H52.6616V63.2863H54.0879ZM54.0777 62.593H52.6616V62.8269H54.0777V62.593ZM54.0777 62.1428H52.6616V62.3769H54.0777V62.1428ZM54.0777 61.6925H52.6616V61.9267H54.0777V61.6925ZM54.0777 61.2334H52.6616V61.4676H54.0777V61.2334ZM54.0777 60.7829H52.6616V61.0171H54.0777V60.7829ZM54.0777 60.3238H52.6616V60.558H54.0777V60.3238ZM54.0777 59.8736H52.6616V60.1078H54.0777V59.8736ZM54.0777 59.4234H52.6616V59.6573H54.0777V59.4234ZM54.0777 58.9643H52.6616V59.1982H54.0777V58.9643ZM54.0777 58.514H52.6616V58.7479H54.0777V58.514ZM54.0777 58.0638H52.6616V58.298H54.0777V58.0638ZM54.0777 57.6047H52.6616V57.8389H54.0777V57.6047ZM54.188 63.7365C54.1579 63.6644 54.1279 63.5833 54.1179 63.5023H52.6516C52.6315 63.5923 52.6116 63.6644 52.5815 63.7365H54.188ZM54.0978 57.3886C54.1077 57.2984 54.1279 57.2174 54.1579 57.1545H52.5815C52.6116 57.2174 52.6315 57.2984 52.6516 57.3886H54.0978ZM51.4365 63.7365H51.7377C52.1596 63.7365 52.2399 63.6644 52.2399 63.2863V57.6047C52.2399 57.2263 52.1596 57.1545 51.7377 57.1545H51.4365V56.7761H55.3027V57.1545H55.0015C54.5796 57.1545 54.4994 57.2263 54.4994 57.6047V63.115C54.4994 63.6103 54.6 63.7635 54.9111 63.7635C55.865 63.7635 56.8595 62.2597 56.9596 61.1343H57.3813L57.3013 64.1146H51.4365V63.7365Z" fill="#E6E6E6"/>
<path d="M64.3293 62.872L64.3393 62.5479C64.2791 62.6559 64.2088 62.7639 64.1286 62.872H64.3293ZM64.2287 57.5507H63.9578C64.0582 57.6587 64.1487 57.7757 64.2287 57.9018V57.5507ZM64.3092 63.3041L64.3194 63.0699H63.9678C63.9077 63.1512 63.8371 63.2322 63.7571 63.3041H64.3092ZM64.2287 57.3525V57.1545H63.4557C63.556 57.2174 63.6564 57.2804 63.7469 57.3525H64.2287ZM64.2993 63.7365L64.3092 63.5023H63.556C63.4557 63.5833 63.3553 63.6644 63.2549 63.7365H64.2993ZM62.8831 60.4589H62.3812C62.5318 60.5129 62.7728 60.693 62.8831 60.8461V60.4589ZM62.8831 60.2158V59.8107C62.7728 59.9727 62.5417 60.1529 62.3812 60.2158H62.8831ZM61.1661 63.0521H59.7599V63.2863H61.1661V63.0521ZM61.1661 62.593H59.7599V62.8269H61.1661V62.593ZM61.1661 62.1428H59.7599V62.3769H61.1661V62.1428ZM61.1661 61.9267L61.1761 61.6925H59.7599V61.9267H61.1661ZM61.1761 61.2332H59.7599V61.4673H61.1761V61.2332ZM61.1761 60.7829H59.7599V61.0171H61.1761V60.7829ZM61.1761 60.3238H59.7599V60.558H61.1761V60.3238ZM61.1761 59.8736H59.7599V60.1078H61.1761V59.8736ZM61.1761 59.4234H59.7599V59.6573H61.1761V59.4234ZM61.1761 58.9643H59.7599V59.1982H61.1761V58.9643ZM61.1761 58.514H59.7599V58.7479H61.1761V58.514ZM61.1761 58.0638H59.7599V58.298H61.1761V58.0638ZM61.1761 57.6047H59.7599V57.8389H61.1761V57.6047ZM61.2362 63.7365C61.2061 63.6644 61.1862 63.5923 61.1761 63.5023H59.7401C59.7299 63.5923 59.71 63.6735 59.6799 63.7365H61.2362ZM61.1761 57.3886V57.1545H59.6799C59.71 57.2174 59.7299 57.2984 59.7401 57.3886H61.1761ZM58.5352 63.7365H58.8361C59.2582 63.7365 59.3383 63.6644 59.3383 63.2863V57.6047C59.3383 57.2263 59.2582 57.1545 58.8361 57.1545H58.5352V56.7761H64.6509V59.1892H64.1986C64.1986 57.8659 63.0839 57.1545 61.9091 57.1364C61.8087 57.1364 61.5977 57.1453 61.5977 57.2082V60.1529C62.2706 60.1529 62.8531 59.4955 62.8531 58.5861H63.3048V62.1338H62.8531C62.8531 61.0803 62.2706 60.531 61.5977 60.531L61.5878 63.2863C61.5878 63.6463 61.6683 63.7813 62.0398 63.7813C63.2549 63.7813 64.2993 62.3226 64.3594 61.1883H64.8114L64.711 64.1146H58.5352V63.7365Z" fill="#E6E6E6"/>
<path d="M73.3458 63.6103H71.7189C71.9602 63.7994 72.2112 63.8534 72.4721 63.8534C72.8237 63.8534 73.105 63.7905 73.3458 63.6103ZM73.0747 63.4032C73.0143 63.3403 72.9644 63.2592 72.934 63.1693H71.3977C71.4379 63.2501 71.4881 63.3311 71.5383 63.4032H73.0747ZM72.7233 58.8022C72.7333 58.7301 72.7435 58.6491 72.7435 58.577V58.5681H71.257V58.658C71.257 58.7031 71.257 58.7482 71.2471 58.8022H72.7233ZM72.8737 62.953C72.8538 62.872 72.8436 62.7999 72.8436 62.728V62.7188H71.2371C71.257 62.7999 71.2771 62.8811 71.3072 62.953H72.8737ZM72.7233 58.3339C72.7134 58.2529 72.693 58.1719 72.6629 58.1H71.2068C71.2269 58.1719 71.2371 58.2529 71.2471 58.3339H72.7233ZM72.5727 59.2613C72.6127 59.1803 72.6528 59.1085 72.6729 59.0272H71.2371C71.2269 59.1085 71.217 59.1803 71.1966 59.2613H72.5727ZM72.8237 62.5117L72.7735 62.2778H71.1566L71.1966 62.5117H72.8237ZM72.7134 62.0707C72.693 61.9896 72.6629 61.9086 72.6329 61.8365H71.0863L71.1266 62.0707H72.7134ZM72.5526 57.8748C72.5022 57.7846 72.4318 57.7127 72.3618 57.6406H71.0664C71.0965 57.7127 71.1266 57.7938 71.1464 57.8748H72.5526ZM72.1911 59.7205C72.2813 59.6486 72.3618 59.5676 72.4219 59.4863H71.1365L71.0463 59.7205H72.1911ZM72.5226 61.6294C72.482 61.5483 72.4318 61.4673 72.3819 61.3955H70.9757L71.0364 61.6294H72.5226ZM72.2112 61.1791C72.1307 61.0892 72.0402 61.0171 71.9498 60.9452H70.8152C70.8555 61.0171 70.8855 61.0981 70.9156 61.1791H72.2112ZM72.0303 57.4156C71.7189 57.2625 71.1064 57.1634 70.7851 57.1634C70.8455 57.2355 70.9057 57.3254 70.9559 57.4156H72.0303ZM71.8497 59.9457H70.9357C70.8756 60.0356 70.7951 60.1258 70.7248 60.1888C71.1867 60.1888 71.4881 60.1258 71.8497 59.9457ZM71.6086 60.7381C71.257 60.5761 70.9357 60.5218 70.554 60.5218C70.6142 60.585 70.6544 60.6482 70.7049 60.7381H71.6086ZM70.8351 58.6491C70.8351 57.6495 70.484 57.0916 69.7104 57.0916C69.6202 57.0916 69.5397 57.1005 69.4694 57.1186V60.1529C69.5397 60.1799 69.6202 60.1888 69.7204 60.1888C70.5039 60.1888 70.8351 59.6216 70.8351 58.6491ZM69.0477 63.0521H67.6823V63.2863H69.0477V63.0521ZM69.0477 62.593H67.6823V62.8269H69.0477V62.593ZM69.0477 62.1428H67.6823V62.3769H69.0477V62.1428ZM69.0477 61.6925H67.6823V61.9267H69.0477V61.6925ZM69.0477 61.2332H67.6823V61.4673H69.0477V61.2332ZM69.0477 60.7829H67.6823V61.0171H69.0477V60.7829ZM69.0477 60.3238H67.6823V60.558H69.0477V60.3238ZM69.0477 59.8736H67.6823V60.1078H69.0477V59.8736ZM69.0477 59.4234H67.6823V59.6573H69.0477V59.4234ZM69.0477 58.9643H67.6823V59.1982H69.0477V58.9643ZM69.0477 58.514H67.6823V58.7479H69.0477V58.514ZM69.0477 58.0638H67.6823V58.298H69.0477V58.0638ZM69.0477 57.6047H67.6823V57.8389H69.0477V57.6047ZM69.128 63.7365C69.0979 63.6644 69.0778 63.5923 69.0679 63.5023H67.6719C67.6517 63.5923 67.6319 63.6644 67.6018 63.7365H69.128ZM69.0477 57.3886V57.1545H67.6018C67.6319 57.2174 67.6517 57.2984 67.6719 57.3886H69.0477ZM70.7248 62.2508C70.554 61.1883 70.3533 60.4859 69.6001 60.4859C69.5097 60.4859 69.4895 60.4859 69.4694 60.4948V63.2863C69.4694 63.6644 69.5499 63.7365 69.9716 63.7365H70.2728V64.1146H66.457V63.7365H66.7582C67.1801 63.7365 67.2601 63.6644 67.2601 63.2863V57.6047C67.2601 57.2263 67.1801 57.1545 66.7582 57.1545H66.457V56.7761H70.1525C72.1307 56.7761 73.1651 57.2895 73.1651 58.5411C73.1651 59.5854 72.452 60.2787 71.4078 60.387V60.4229C73.0645 60.6841 73.2253 62.2778 73.2655 62.6921C73.2856 62.863 73.2556 63.1512 73.4663 63.1512C73.6773 63.1512 73.7975 62.8541 73.838 62.3769L74.2597 62.4398C74.2195 63.4934 73.6472 64.2315 72.5124 64.2315C71.0562 64.2315 70.8455 63.007 70.7248 62.2508Z" fill="#E6E6E6"/>
<path d="M78.6367 54.8583C78.6367 54.7233 78.536 54.6244 78.285 54.6244C78.0443 54.6244 77.8934 54.7233 77.763 54.8583H78.6367ZM78.0241 55.2996L78.4759 55.0925L78.5059 55.0655H77.5821L77.3714 55.2996H78.0241ZM77.5622 55.5157H77.1905L76.9696 55.7768L77.5622 55.5157ZM77.9436 63.0432H76.5275V63.2773H77.9436V63.0432ZM77.9436 62.593H76.5275V62.8269H77.9436V62.593ZM77.9436 62.1428H76.5275V62.3769H77.9436V62.1428ZM77.9436 61.6836H76.5275V61.9175H77.9436V61.6836ZM77.9436 61.2334H76.5275V61.4676H77.9436V61.2334ZM77.9436 60.7829H76.5275V61.0171H77.9436V60.7829ZM77.9436 60.3238H76.5275V60.558H77.9436V60.3238ZM77.9436 59.8736H76.5275V60.1078H77.9436V59.8736ZM77.9436 59.4234H76.5275V59.6573H77.9436V59.4234ZM77.9436 58.9643H76.5275V59.1982H77.9436V58.9643ZM77.9436 58.514H76.5275V58.7479H77.9436V58.514ZM77.9436 58.0549H76.5275V58.2888H77.9436V58.0549ZM77.9436 57.6047H76.5275V57.8389H77.9436V57.6047ZM78.0241 63.7365C77.9941 63.6644 77.9737 63.5923 77.9638 63.5023H76.5178C76.5079 63.5923 76.4776 63.6644 76.4475 63.7365H78.0241ZM77.9638 57.3886C77.9737 57.2984 77.9941 57.2174 78.0241 57.1545H76.4475C76.4776 57.2174 76.5079 57.2984 76.5178 57.3886H77.9638ZM77.4014 54.8043C77.6022 54.5702 77.8333 54.3541 78.285 54.3541C78.7572 54.3541 78.9681 54.5974 78.9681 54.8583C78.9681 55.0385 78.8576 55.2275 78.6267 55.3447L76.7787 56.2H76.2266L77.4014 54.8043ZM75.3127 63.7365H75.6141C76.0156 63.7365 76.116 63.6644 76.116 63.3492V57.6047C76.116 57.2263 76.0258 57.1545 75.6039 57.1545H75.3027V56.7761H79.1689V57.1545H78.8675C78.4458 57.1545 78.3656 57.2263 78.3656 57.6047V63.2863C78.3656 63.6644 78.4458 63.7365 78.8675 63.7365H79.1689V64.1146H75.3127V63.7365Z" fill="#E6E6E6"/>
<path d="M86.3683 63.7362C86.328 63.6733 86.288 63.5922 86.2577 63.5293L86.2475 63.5021H84.5506C84.5404 63.5831 84.5205 63.6641 84.4902 63.7362H86.3683ZM86.1672 63.2771L86.087 63.0429H84.4301L84.5103 63.2771H86.1672ZM85.9965 62.8179L85.9163 62.5838H84.2696L84.3496 62.8179H85.9965ZM85.836 62.3586L85.7557 62.1244H84.1187L84.199 62.3586H85.836ZM85.665 61.9083L85.585 61.6742H83.9579L84.0382 61.9083H85.665ZM85.5145 61.4492L85.4243 61.2151H83.8074L83.8879 61.4492H85.5145ZM85.3437 60.9901L85.2536 60.7559H83.6466L83.7271 60.9901H85.3437ZM85.1832 60.5399L85.0928 60.3057H83.4963L83.5765 60.5399H85.1832ZM84.0183 57.3433L83.9381 57.1091H83.5765L83.4858 57.3433H84.0183ZM85.0125 60.0805L84.9221 59.8463H83.3355L83.4158 60.0805H85.0125ZM84.189 57.7935L84.1088 57.5593H83.4158L83.3256 57.7935H84.189ZM84.8418 59.6214L84.7613 59.3872H83.1747L83.255 59.6214H84.8418ZM84.3496 58.2529L84.2696 58.0187H83.245L83.1548 58.2529H84.3496ZM84.681 59.1622L84.6008 58.9281H83.0241L83.1044 59.1622H84.681ZM84.5205 58.712L84.4403 58.4779H83.0743L82.9841 58.712H84.5205ZM83.4963 61.5932L82.7128 59.2973L81.9094 61.5932H83.4963ZM81.1863 63.7454C81.1061 63.6552 81.0559 63.5652 81.0457 63.4661C80.9955 63.5561 80.8954 63.6641 80.7746 63.7454H81.1863ZM79.9814 63.7362H80.1522C80.4734 63.7362 80.7346 63.5652 80.835 63.2952L83.2751 56.731H84.2494L86.6595 63.4121C86.7298 63.6101 86.9104 63.7362 87.1413 63.7362H87.312V64.1143H83.4458V63.7362H83.8275C84.0586 63.7362 84.1289 63.6193 84.1289 63.5021C84.1289 63.4661 84.1187 63.421 84.1088 63.394L83.6267 61.9715H81.7688L81.3372 63.2139C81.3171 63.286 81.2969 63.3489 81.2969 63.4121C81.2969 63.6193 81.4478 63.7362 81.7589 63.7362H82.06V64.1143H79.9814V63.7362Z" fill="#E6E6E6"/>
<path d="M48.5546 52.4492L48.5457 52.2071C48.5095 52.2797 48.4287 52.3847 48.3836 52.4492H48.5546ZM48.5457 52.8364V52.6265H48.2939C48.2399 52.6991 48.1859 52.7638 48.123 52.8364H48.5457ZM48.5278 53.2316L48.5367 53.0219H47.9523C47.871 53.0945 47.7902 53.1671 47.7003 53.2316H48.5278ZM46.0187 52.8283L46.0097 52.6749V52.6186H44.7419V52.8283H46.0187ZM46.0097 52.2071H44.7419V52.4168H46.0097V52.2071ZM46.0097 51.8038H44.7419V52.0135H46.0097V51.8038ZM46.0097 51.4004H44.7419V51.6101H46.0097V51.4004ZM46.0097 50.989H44.7419V51.1986H46.0097V50.989ZM46.0097 50.5856H44.7419V50.7953H46.0097V50.5856ZM46.0097 50.1741H44.7419V50.3838H46.0097V50.1741ZM46.0097 49.7708H44.7419V49.9805H46.0097V49.7708ZM46.0097 49.3675H44.7419V49.5772H46.0097V49.3675ZM46.0097 48.956H44.7419V49.1657H46.0097V48.956ZM46.0097 48.5527H44.7419V48.7623H46.0097V48.5527ZM46.0097 48.1493H44.7419V48.359H46.0097V48.1493ZM46.0097 47.7378H44.7419V47.9475H46.0097V47.7378ZM46.1086 53.2316C46.0816 53.1671 46.0546 53.0945 46.0457 53.0219H44.7327C44.7149 53.1024 44.6968 53.1671 44.6698 53.2316H46.1086ZM46.0278 47.5445C46.0368 47.4637 46.0546 47.3911 46.0816 47.3345H44.6698C44.6968 47.3911 44.7149 47.4637 44.7327 47.5445H46.0278ZM43.6445 53.2316H43.9146C44.2922 53.2316 44.3643 53.1671 44.3643 52.8283V47.7378C44.3643 47.3992 44.2922 47.3345 43.9146 47.3345H43.6445V46.9956H47.1066V47.3345H46.837C46.4592 47.3345 46.3873 47.3992 46.3873 47.7378V52.6749C46.3873 53.1187 46.4775 53.2558 46.756 53.2558C47.6103 53.2558 48.5006 51.9085 48.5908 50.9003H48.9684L48.8963 53.5705H43.6445V53.2316Z" fill="#E6E6E6"/>
<path d="M55.5064 53.2317C55.4702 53.1751 55.4345 53.1025 55.4073 53.0459L55.3983 53.022H53.8785C53.8696 53.0943 53.8518 53.1672 53.8248 53.2317H55.5064ZM55.3265 52.8202L55.2546 52.6105H53.7707L53.8429 52.8202H55.3265ZM55.1736 52.4087L55.1018 52.199H53.6268L53.6989 52.4087H55.1736ZM55.0297 51.9972L54.9578 51.7878H53.492L53.5639 51.9972H55.0297ZM54.8768 51.5939L54.8049 51.3842H53.348L53.4202 51.5939H54.8768ZM54.742 51.1827L54.6612 50.9727H53.2133L53.2851 51.1827H54.742ZM54.5891 50.7712L54.5081 50.5615H53.0696L53.1414 50.7712H54.5891ZM54.4452 50.3678L54.3644 50.1581H52.9345L53.0064 50.3678H54.4452ZM53.4021 47.504L53.3302 47.2943H53.0064L52.9254 47.504H53.4021ZM54.2923 49.9564L54.2115 49.7467H52.7906L52.8627 49.9564H54.2923ZM53.5549 47.9073L53.4831 47.6976H52.8627L52.7817 47.9073H53.5549ZM54.1394 49.5449L54.0676 49.3352H52.6466L52.7187 49.5449H54.1394ZM53.6989 48.3188L53.6268 48.1091H52.7095L52.6288 48.3188H53.6989ZM53.9955 49.1336L53.9236 48.9237H52.5118L52.5837 49.1336H53.9955ZM53.8518 48.7303L53.7799 48.5204H52.5569L52.4756 48.7303H53.8518ZM52.9345 51.3116L52.2331 49.2547L51.5136 51.3116H52.9345ZM50.8661 53.2396C50.7943 53.1591 50.7492 53.0783 50.7403 52.9896C50.6954 53.0704 50.6055 53.1672 50.4977 53.2396H50.8661ZM49.7871 53.2317H49.94C50.2276 53.2317 50.4615 53.0783 50.5515 52.8362L52.7368 46.9554H53.609L55.767 52.9412C55.8302 53.1188 55.9917 53.2317 56.1989 53.2317H56.3515V53.5705H52.8894V53.2317H53.2311C53.4382 53.2317 53.5012 53.1267 53.5012 53.022C53.5012 52.9896 53.492 52.9494 53.4831 52.9249L53.0512 51.6505H51.3877L51.0009 52.7639C50.9831 52.8283 50.9653 52.8847 50.9653 52.9412C50.9653 53.1267 51.1 53.2317 51.3788 53.2317H51.6486V53.5705H49.7871V53.2317Z" fill="#E6E6E6"/>
<path d="M14.311 63.7323C14.3508 63.6673 14.3816 63.5894 14.403 63.4981H16.3313C16.3527 63.5894 16.3835 63.6673 16.4233 63.7323H14.311ZM16.2953 55.9826V56.2168H14.403C14.3814 56.1256 14.3508 56.0478 14.311 55.9826H16.2953ZM14.439 56.4973H16.2953V56.7314H14.439V56.4973ZM14.439 57.0148H16.2953V57.2489H14.439V57.0148ZM14.439 57.4979H16.2953V57.732H14.439V57.4979ZM14.439 57.9746H16.2953V58.2087H14.439V57.9746ZM14.439 58.451H16.2953V58.6852H14.439V58.451ZM14.439 58.9102H16.2953V59.1443H14.439V58.9102ZM14.439 59.3693H16.2953V59.6034H14.439V59.3693ZM14.439 59.8287H16.2953V60.0628H14.439V59.8287ZM14.439 60.2878H16.2953V60.5219H14.439V60.2878ZM14.439 60.7469H16.2953V60.9811H14.439V60.7469ZM14.439 61.2061H16.2953V61.4402H14.439V61.2061ZM14.439 61.6654H16.2953V61.8996H14.439V61.6654ZM14.439 62.1246H16.2953V62.3587H14.439V62.1246ZM16.2953 63.277H14.439V63.0428H16.2953V63.277ZM14.439 62.5837H16.2953V62.8179H14.439V62.5837ZM16.6775 56.0081C16.7476 55.9872 16.8523 55.9768 16.957 55.9768C17.6676 55.9768 18.2149 56.4886 18.2149 58.066C18.2149 59.727 17.6093 60.1344 16.957 60.1344C16.8057 60.1344 16.7007 60.1135 16.6775 60.1031V56.0081ZM19.0376 56.2591H18.1986C18.1459 56.1757 18.0903 56.0988 18.0305 56.0338C18.4132 56.0789 18.7487 56.1543 19.0376 56.2591ZM19.8876 56.7796H18.4341C18.4086 56.696 18.38 56.6183 18.3495 56.5454H19.6089C19.7128 56.6165 19.8051 56.695 19.8876 56.7796ZM20.2262 57.2973H18.5454C18.5337 57.2166 18.5214 57.1368 18.5064 57.0632H20.1083C20.1536 57.1376 20.1931 57.2153 20.2262 57.2973ZM20.345 57.7804H18.589C18.5854 57.6991 18.5795 57.6219 18.5729 57.5463H20.304C20.3218 57.6217 20.3358 57.6994 20.345 57.7804ZM20.3603 58.0347C20.3603 58.1119 20.3552 58.185 20.3483 58.2569H18.5915C18.5935 58.1932 18.5971 58.133 18.5971 58.066C18.5971 58.0507 18.5961 58.0378 18.5958 58.0227H20.3598C20.3598 58.0268 20.3603 58.0306 20.3603 58.0347ZM20.2428 58.7333H18.5581C18.5673 58.6584 18.5747 58.5802 18.5808 58.4992H20.3103C20.2922 58.581 20.2701 58.6594 20.2428 58.7333ZM19.9814 59.1927H18.473C18.4919 59.1186 18.5084 59.0403 18.5232 58.9586H20.1396C20.0935 59.0426 20.0395 59.1196 19.9814 59.1927ZM19.4471 59.6518H18.312C18.3464 59.5795 18.3783 59.5018 18.407 59.4177H19.7709C19.6718 59.5056 19.563 59.583 19.4471 59.6518ZM18.0103 60.1021C18.0728 60.0376 18.1309 59.9606 18.1859 59.8768H18.964C18.6578 59.9884 18.3301 60.0598 18.0103 60.1021ZM17.0852 60.5418C18.7158 60.5418 20.7424 60.0717 20.7424 58.0347C20.7424 56.0081 18.7158 55.6004 17.0852 55.6004H13.125V56.0394H13.4743C13.9635 56.0394 14.0568 56.123 14.0568 56.5618V63.1534C14.0568 63.5922 13.9635 63.6757 13.4743 63.6757H13.125V64.1145H17.6093V63.6757H17.2597C16.7705 63.6757 16.6775 63.5922 16.6775 63.1534V60.5418H17.0852Z" fill="#E6E6E6"/>
<rect x="3.5" y="3.5" width="113" height="113" stroke="#E6E6E6"/>
</svg>
