<svg width="540" height="194" viewBox="0 0 540 194" fill="none" xmlns="http://www.w3.org/2000/svg">
<path fill-rule="evenodd" clip-rule="evenodd" d="M442.308 162.009H438.281L440.248 157.645L442.308 162.009ZM449.739 167.618L441.111 149.16H439.433L430.898 167.618L434.925 169.393L436.412 166.036H444.177L445.761 169.393L449.739 167.618ZM419.594 149.688H415.181V168.624H419.594V149.688ZM396.97 155.918C396.97 157.071 395.53 157.982 394.044 157.982H392.461V153.859H394.284C395.963 153.859 396.97 154.721 396.97 155.918ZM405.166 168.626L398.551 160.906C400.277 159.852 401.475 157.934 401.475 155.918C401.475 152.421 398.934 149.688 394.954 149.688H388.05V168.626H392.461V162.105H393.852L399.412 168.626H405.166ZM375.971 168.626V164.502H368.203V160.714H371.896L371.845 156.496H368.203V153.906H375.49V149.688H363.792V168.626H375.971ZM345.867 155.918C345.867 157.071 344.427 157.982 342.942 157.982H341.358V153.859H343.181C344.86 153.859 345.867 154.721 345.867 155.918ZM354.064 168.626L347.449 160.906C349.174 159.852 350.373 157.934 350.373 155.918C350.373 152.421 347.834 149.688 343.853 149.688H336.949V168.626H341.358V162.105H342.751L348.312 168.626H354.064ZM326.51 153.906V149.688H310.834V153.906H316.445V168.626H320.854V153.906H326.51ZM302.073 163.158C302.073 160.092 299.77 158.221 296.461 156.4C295.12 155.585 293.921 155.441 293.921 154.243C293.921 153.474 294.781 153.138 295.407 153.138C296.415 153.138 297.42 153.667 299.29 154.865L301.497 151.413C299.241 149.879 297.516 148.969 295.552 148.969C292.243 148.969 289.365 151.174 289.365 154.625C289.365 157.118 291.331 158.844 293.825 160.187C296.415 161.53 297.516 162.343 297.516 163.4C297.516 164.598 296.558 165.174 295.646 165.174C293.825 165.174 292.626 163.974 291.235 162.441L288.358 165.461C290.373 167.858 292.673 169.297 295.407 169.297C299.483 169.297 302.073 166.276 302.073 163.158ZM273.268 159.18C273.268 162.488 270.487 165.029 267.082 165.029C263.39 165.029 260.801 162.488 260.801 159.18C260.801 155.826 263.677 153.235 267.082 153.235C270.678 153.235 273.268 155.826 273.268 159.18ZM277.871 159.18C277.871 153.38 273.317 148.969 267.082 148.969C261.09 148.969 256.247 153.38 256.247 159.18C256.247 164.981 260.754 169.297 267.082 169.297C273.029 169.297 277.871 164.981 277.871 159.18ZM241.012 155.918C241.012 157.071 239.574 157.982 238.086 157.982H236.503V153.859H238.327C240.005 153.859 241.012 154.721 241.012 155.918ZM245.515 155.918C245.515 152.374 242.977 149.688 238.999 149.688H232.092V168.626H236.503V162.105H238.71C242.307 162.105 245.515 159.278 245.515 155.918ZM196.273 162.009H192.247L194.212 157.645L196.273 162.009ZM203.706 167.618L195.077 149.16H193.397L184.862 167.618L188.889 169.393L190.376 166.036H198.143L199.725 169.393L203.706 167.618ZM176.668 168.626V164.502H168.662V149.688H164.251V168.626H176.668Z" fill="#E6E6E6"/>
<path fill-rule="evenodd" clip-rule="evenodd" d="M526.734 132.113H508.778L505.896 139.516H514.677L511.931 149.971C510.024 157.526 506.665 162.41 503.459 164.928L507.353 167.598C510.938 165.386 515.287 160.274 518.647 151.801L526.734 132.113ZM498.161 153.925C491.488 170.759 483.016 181.008 476.07 185.728L470.846 182.145C477.365 176.199 483.733 166.012 487.472 151.208L493.868 126.867H465.156V114.917H514.188L498.161 153.925ZM441.184 2.89245C438.233 9.98051 439.568 15.7146 443.518 22.0454C453.567 38.0322 467.272 42.6613 473.358 60.562C479.354 78.1208 468.869 90.2815 459.189 105.971C457.474 108.751 453.308 106.177 455.024 103.4C464.34 88.2896 476.66 78.7322 470.88 61.8217C464.813 43.9726 449.383 40.5619 439.36 24.6193C434.768 17.2616 433.919 9.53263 437.346 1.29538C438.41 -1.2608 442.246 0.33479 441.184 2.89245ZM463.116 14.0218C459.043 16.0269 463.175 21.0524 464.804 25.3132C469.041 33.8701 472.032 38.2562 477.928 45.8039C485.485 54.931 490.028 59.7959 496.689 69.5978C503.38 79.4586 501.943 90.7794 494.137 99.9552C490.487 104.25 484.042 98.7721 487.695 94.476C493.421 87.743 497.178 79.8328 492.268 72.6004C485.709 62.9428 479.297 59.6765 471.857 50.6864C465.583 42.6525 462.186 37.5401 457.675 28.4366C455.353 22.3622 456.523 15.2829 462.329 12.4247C463.394 11.8988 464.179 13.4958 463.116 14.0218ZM432.306 27.5835C426.819 28.4675 433.657 36.7961 437.426 40.7254C444.929 48.6032 450.937 51.6426 458.812 59.152C464.677 64.6813 465.541 70.688 465.541 78.8147C465.541 82.1768 460.496 82.1768 460.496 78.8147C460.496 72.537 458.697 68.3233 454.167 64.0508C446.158 56.4161 439.263 54.271 431.63 46.265C425.15 39.4996 421.972 23.5393 431.406 22.013C435.118 21.4133 436.017 26.9824 432.306 27.5835Z" fill="#E6E6E6"/>
<path d="M130.352 140.863C125.085 141.23 120.107 143.809 115.429 146.732C110.751 149.657 106.209 152.982 101.221 155.043C98.8795 156.011 96.391 156.696 93.9365 156.307C91.482 155.918 89.0584 154.296 87.9637 151.633C86.8706 148.97 87.4805 145.283 89.6212 143.789C91.18 142.7 93.3251 142.995 94.6393 144.48C93.191 144.135 91.8886 145.608 91.5395 147.328C91.1888 149.048 91.9181 150.942 93.1395 151.933C94.3623 152.926 95.9829 153.07 97.3899 152.536C96.7977 151.681 96.8758 150.491 96.9686 149.384C97.0629 148.279 97.5387 147.227 98.2621 146.532C99.3833 148.136 100.818 149.075 102.555 149.284C104.291 149.495 106.041 149.097 107.715 148.508C111.671 147.117 115.302 144.673 119.123 142.818C122.943 140.964 126.336 139.75 130.352 140.863Z" fill="#E6E6E6"/>
<path d="M96.167 190.451C102.088 186.999 108.011 183.547 113.932 180.094C116.584 178.548 119.251 176.995 122.075 175.977C124.898 174.959 127.912 174.491 130.809 175.157C132.842 175.624 134.986 176.9 135.643 179.253C136.101 180.895 135.672 182.843 134.597 184C133.521 185.156 131.859 185.455 130.547 184.73C131.911 183.575 132.288 181.265 131.598 179.443C130.909 177.62 129.07 176.546 127.447 177.015C127.685 178.545 127.052 180.141 125.99 181.035C124.674 179.379 122.605 178.563 120.706 178.778C121.431 180.085 121.702 181.582 121.658 183.151C119.967 181.947 117.944 181.834 115.995 182.146C114.046 182.46 112.182 183.288 110.339 184.109C105.524 186.255 100.982 188.305 96.167 190.451Z" fill="#E6E6E6"/>
<path d="M105.475 162.995C104.937 163.338 104.399 163.684 103.786 164.103V176.634C104.361 176.291 104.899 175.946 105.456 175.59C107.722 174.139 108.781 171.612 108.781 167.064C108.781 162.173 107.314 161.816 105.475 162.995ZM105.289 178.473C104.175 179.186 101.873 180.608 100.202 181.573C100.183 181.215 100.165 180.724 100.165 180.355C100.165 179.983 100.183 179.471 100.202 179.088L101.464 178.015V165.695L100.202 166.239C100.183 165.881 100.165 165.39 100.165 165.02C100.165 164.651 100.183 164.135 100.202 163.755C102.004 162.495 104.119 161.087 105.326 160.313C108.855 158.053 111.231 159.017 111.231 165.493C111.231 171.681 108.874 176.178 105.289 178.473Z" fill="#E6E6E6"/>
<path d="M122.645 168.531L112.974 173.355C112.953 172.995 112.933 172.503 112.933 172.132C112.933 171.762 112.953 171.251 112.974 170.871L114.316 169.937V157.617L112.974 158.022C112.953 157.663 112.933 157.169 112.933 156.799C112.933 156.43 112.953 155.917 112.974 155.538L122.527 150.771V154.949C122.25 155.139 121.775 155.403 121.5 155.541C121.204 155.687 120.67 155.927 120.395 156.013L120.218 154.647L116.782 156.359V160.96L120.927 158.893C120.927 159.739 120.868 160.826 120.788 161.738L116.782 163.736V168.758L120.336 166.986L120.513 165.286C120.788 165.094 121.323 164.802 121.619 164.655C121.895 164.517 122.369 164.307 122.645 164.222V168.531Z" fill="#E6E6E6"/>
<path d="M527.847 182.277H529.111C529.587 182.277 530.009 182.239 530.375 182.162C530.741 182.086 531.043 181.96 531.282 181.785C531.52 181.611 531.7 181.381 531.824 181.096C531.947 180.811 532.009 180.464 532.009 180.056C532.009 179.69 531.965 179.373 531.875 179.104C531.785 178.837 531.623 178.619 531.391 178.454C531.156 178.288 530.842 178.167 530.452 178.09C530.06 178.014 529.571 177.975 528.983 177.975H527.847V182.277ZM527.861 188.571H526.263V176.673H529.481C530.085 176.673 530.641 176.727 531.147 176.838C531.654 176.95 532.092 177.141 532.463 177.412C532.833 177.685 533.12 178.044 533.325 178.492C533.528 178.939 533.631 179.499 533.631 180.17C533.631 180.384 533.596 180.639 533.528 180.937C533.461 181.234 533.34 181.533 533.164 181.831C532.991 182.128 532.755 182.405 532.457 182.66C532.158 182.915 531.787 183.111 531.345 183.248L534.026 188.571H532.214L529.801 183.516C529.562 183.524 529.073 183.528 528.332 183.528H527.861V188.571ZM521.425 182.788C521.425 183.605 521.525 184.397 521.726 185.162C521.925 185.928 522.21 186.646 522.582 187.314C522.951 187.982 523.391 188.59 523.902 189.14C524.413 189.689 524.982 190.159 525.606 190.55C526.233 190.942 526.904 191.247 527.623 191.463C528.342 191.68 529.089 191.789 529.864 191.789C530.648 191.789 531.401 191.68 532.124 191.463C532.848 191.247 533.522 190.942 534.149 190.55C534.773 190.159 535.345 189.689 535.865 189.14C536.384 188.59 536.827 187.982 537.192 187.314C537.558 186.646 537.844 185.931 538.048 185.169C538.252 184.408 538.355 183.614 538.355 182.788C538.355 181.962 538.252 181.166 538.048 180.4C537.844 179.634 537.558 178.918 537.192 178.249C536.827 177.582 536.384 176.973 535.865 176.424C535.345 175.874 534.773 175.404 534.149 175.012C533.522 174.622 532.848 174.32 532.124 174.106C531.401 173.894 530.648 173.787 529.864 173.787C529.089 173.787 528.342 173.894 527.623 174.106C526.904 174.32 526.233 174.622 525.606 175.012C524.982 175.404 524.413 175.874 523.902 176.424C523.391 176.973 522.951 177.582 522.582 178.249C522.21 178.918 521.925 179.634 521.726 180.4C521.525 181.166 521.425 181.962 521.425 182.788ZM519.753 182.788C519.753 181.826 519.874 180.901 520.117 180.011C520.36 179.121 520.699 178.29 521.138 177.516C521.577 176.741 522.101 176.035 522.714 175.395C523.327 174.758 524.008 174.212 524.758 173.762C525.506 173.311 526.312 172.96 527.177 172.708C528.04 172.458 528.936 172.331 529.864 172.331C530.801 172.331 531.7 172.458 532.565 172.708C533.428 172.96 534.236 173.311 534.984 173.762C535.732 174.212 536.416 174.758 537.033 175.395C537.651 176.035 538.178 176.741 538.617 177.516C539.055 178.29 539.395 179.121 539.638 180.011C539.88 180.901 540.002 181.826 540.002 182.788C540.002 183.751 539.88 184.676 539.638 185.564C539.395 186.454 539.055 187.286 538.617 188.061C538.178 188.835 537.651 189.542 537.033 190.18C536.416 190.818 535.732 191.363 534.984 191.814C534.236 192.266 533.428 192.617 532.565 192.867C531.7 193.118 530.801 193.245 529.864 193.245C528.936 193.245 528.04 193.118 527.177 192.867C526.312 192.617 525.506 192.266 524.758 191.814C524.008 191.363 523.327 190.818 522.714 190.18C522.101 189.542 521.577 188.835 521.138 188.061C520.699 187.286 520.36 186.454 520.117 185.564C519.874 184.676 519.753 183.751 519.753 182.788Z" fill="#E6E6E6"/>
<path d="M78.2555 119.183C78.0227 118.819 77.7914 118.351 77.6161 117.987L77.5572 117.829H67.745C67.686 118.298 67.5711 118.766 67.3958 119.183H78.2555ZM77.0931 116.528L76.629 115.174H67.0481L67.5122 116.528H77.0931ZM76.106 113.873L75.6419 112.519H66.1199L66.5825 113.873H76.106ZM75.1778 111.217L74.7137 109.863H65.2477L65.7118 111.217H75.1778ZM74.1892 108.614L73.7266 107.26H64.3181L64.7822 108.614H74.1892ZM73.3185 105.959L72.7969 104.605H63.4474L63.9129 105.959H73.3185ZM72.3314 103.304L71.8098 101.95H62.5177L62.9833 103.304H72.3314ZM71.4032 100.7L70.8802 99.3464H61.6484L62.1125 100.7H71.4032ZM64.6672 82.2163L64.2032 80.8623H62.1125L61.588 82.2163H64.6672ZM70.4161 98.044L69.8931 96.6901H60.7188L61.1829 98.044H70.4161ZM65.6544 84.8196L65.1903 83.4657H61.1829L60.6613 84.8196H65.6544ZM69.429 95.3891L68.9634 94.0352H59.7891L60.2532 95.3891H69.429ZM66.5825 87.476L66.1199 86.122H60.1958L59.6742 87.476H66.5825ZM68.4993 92.7342L68.0352 91.3803H58.9184L59.3825 92.7342H68.4993ZM67.5711 90.1309L67.107 88.7769H59.2087L58.6871 90.1309H67.5711ZM61.6484 106.791L57.118 93.5151L52.4727 106.791H61.6484ZM48.2915 119.236C47.8274 118.714 47.5371 118.194 47.4782 117.621C47.188 118.141 46.609 118.766 45.9106 119.236H48.2915ZM41.3242 119.183H42.3113C44.1692 119.183 45.6793 118.194 46.2598 116.633L60.3696 78.676H66.0035L79.9395 117.309C80.3461 118.454 81.3907 119.183 82.7255 119.183H83.7126V121.369H61.3567V119.183H63.5637C64.9 119.183 65.3067 118.507 65.3067 117.829C65.3067 117.621 65.2477 117.361 65.1903 117.204L62.4028 108.979H51.6594L49.1637 116.163C49.0473 116.58 48.9309 116.944 48.9309 117.309C48.9309 118.507 49.8031 119.183 51.602 119.183H53.3434V121.369H41.3242V119.183Z" fill="#E6E6E6"/>
<path d="M117.211 83.1548C116.921 83.3625 116.224 83.4671 115.817 83.4671C116.224 84.0402 116.921 84.9773 117.211 85.6019V83.1548ZM117.733 114.395C117.966 113.978 118.198 113.509 118.372 113.041H111.869C111.869 113.509 111.81 113.978 111.753 114.395H117.733ZM118.838 111.687C118.954 111.27 119.069 110.801 119.128 110.333H111.579C111.695 110.75 111.753 111.218 111.81 111.687H118.838ZM115.468 117.05C115.991 116.633 116.455 116.164 116.864 115.696H111.462C111.287 116.164 111.056 116.633 110.823 117.05H115.468ZM119.243 109.03V107.678H110.418C110.707 108.093 110.939 108.563 111.113 109.03H119.243ZM119.069 106.376C118.954 105.907 118.838 105.439 118.662 105.022H107.978C108.501 105.439 108.965 105.907 109.372 106.376H119.069ZM113.553 118.351H109.836C109.372 118.872 108.501 119.497 107.803 119.861C110.069 119.705 112.1 119.131 113.553 118.351ZM118.139 103.721C117.908 103.252 117.559 102.784 117.211 102.367H103.623C104.436 102.784 105.249 103.252 106.063 103.721H118.139ZM116.108 101.066C115.585 100.596 115.004 100.129 114.365 99.7118H98.571C99.4417 100.129 100.312 100.596 101.126 101.066H116.108ZM99.617 82.3739C99.7909 81.9054 100.37 81.2277 100.778 80.8122C99.5006 81.1246 98.1054 81.6962 97.1772 82.3739H99.617ZM112.217 98.3578C111.346 97.8893 110.418 97.4208 109.546 97.0038H95.0866C95.5522 97.4723 96.0737 97.9409 96.5967 98.3578H112.217ZM98.7448 85.0288C98.8037 84.5603 98.8612 84.0918 99.0351 83.6749H95.6096C95.203 84.0918 94.8538 84.5603 94.5061 85.0288H98.7448ZM106.875 95.7029C106.004 95.286 105.076 94.8175 104.32 94.3489H93.4615C93.6354 94.8175 93.8667 95.286 94.1584 95.7029H106.875ZM98.8612 87.6837C98.8037 87.2682 98.6874 86.7997 98.6874 86.3312H93.8092C93.5765 86.7467 93.4615 87.2152 93.3452 87.6837H98.8612ZM102.346 93.0465C101.823 92.6311 101.3 92.1626 100.894 91.6926H92.8796C92.8796 92.1626 92.937 92.6311 93.0549 93.0465H102.346ZM99.9072 90.3916C99.617 89.9747 99.4417 89.5062 99.2089 89.0377H92.996C92.937 89.4546 92.8796 89.9231 92.8796 90.3916H99.9072ZM94.2159 116.216C93.5765 115.435 92.937 114.551 92.4155 113.612V116.581C92.8796 116.372 93.519 116.216 94.2159 116.216ZM94.4487 118.404C92.996 118.404 92.8221 119.756 92.7057 121.371H90.21V104.658H92.5893C92.996 113.197 98.6299 118.767 103.856 118.767C106.816 118.767 109.778 116.893 109.778 112.989C109.778 102.888 90.7315 104.918 90.7315 91.0163C90.7315 82.7378 97.2347 78.2089 104.959 78.2089C111.462 78.2089 113.61 81.5931 115.411 81.5931C116.398 81.5931 116.629 80.5514 116.747 78.9367H119.243V93.3073H116.688C116.572 87.3198 113.087 80.7607 106.758 80.7607C103.39 80.7607 101.242 82.7894 101.242 86.0174C101.242 95.3375 121.798 93.2027 121.798 108.51C121.798 117.934 113.96 121.995 106.991 121.995C100.429 121.995 96.7706 118.404 94.4487 118.404Z" fill="#E6E6E6"/>
<path d="M165.574 83.778H163.484C164.355 84.8196 164.819 85.3397 165.574 86.5906V83.778ZM165.574 82.4771V81.1231H161.046C161.508 81.5386 161.974 82.0071 162.438 82.4771H165.574ZM152.914 115.226H144.321V116.58H152.914V115.226ZM152.914 112.571H144.321V113.923H152.914V112.571ZM152.914 109.967H144.321V111.321H152.914V109.967ZM152.914 107.364H144.321V108.718H152.914V107.364ZM152.914 104.709H144.321V106.063H152.914V104.709ZM152.914 102.104H144.321V103.458H152.914V102.104ZM152.914 99.4496H144.321V100.804H152.914V99.4496ZM152.914 96.8462H144.321V98.2002H152.914V96.8462ZM152.914 94.2444H144.321V95.5969H152.914V94.2444ZM152.914 91.588H144.321V92.9405H152.914V91.588ZM152.914 88.9847H144.321V90.3372H152.914V88.9847ZM152.914 86.3813H144.321V87.7353H152.914V86.3813ZM152.914 83.7265H144.321V85.0804H152.914V83.7265ZM152.914 82.4771V81.5916C152.914 81.4355 152.914 81.2793 152.973 81.1231H144.263C144.321 81.2793 144.321 81.4355 144.321 81.5916V82.4771H152.914ZM153.38 119.183C153.205 118.819 153.088 118.349 153.031 117.829H144.204C144.147 118.349 144.03 118.819 143.856 119.183H153.38ZM133.753 83.778H131.662V86.5906C132.416 85.3397 132.882 84.8196 133.753 83.778ZM134.797 82.4771C135.263 82.0071 135.727 81.5386 136.192 81.1231H131.662V82.4771H134.797ZM137.237 119.183H138.978C141.418 119.183 141.882 118.766 141.882 116.58V81.5916C141.882 81.0716 141.592 81.0716 141.243 81.0716C136.598 81.1231 131.778 90.651 131.778 96.4293H129.224V78.9353H168.013V96.4293H165.458C165.458 90.651 160.637 81.1231 155.992 81.0716C155.644 81.0716 155.354 81.0716 155.354 81.5916V116.58C155.354 118.766 155.818 119.183 158.257 119.183H159.999V121.369H137.237V119.183Z" fill="#E6E6E6"/>
<path d="M209.23 114.186L209.287 112.311C208.94 112.936 208.533 113.561 208.069 114.186H209.23ZM208.648 83.4156H207.082C207.662 84.0403 208.185 84.7165 208.648 85.4458V83.4156ZM209.114 116.684L209.173 115.33H207.139C206.792 115.8 206.384 116.269 205.921 116.684H209.114ZM208.648 82.2694V81.1246H204.178C204.759 81.4885 205.339 81.8524 205.862 82.2694H208.648ZM209.056 119.184L209.114 117.83H204.759C204.178 118.299 203.598 118.768 203.017 119.184H209.056ZM200.868 100.232H197.965C198.836 100.544 200.23 101.586 200.868 102.471V100.232ZM200.868 98.8263V96.4838C200.23 97.4208 198.893 98.4624 197.965 98.8263H200.868ZM190.939 115.227H182.808V116.581H190.939V115.227ZM190.939 112.572H182.808V113.925H190.939V112.572ZM190.939 109.969H182.808V111.323H190.939V109.969ZM190.939 108.72L190.996 107.366H182.808V108.72H190.939ZM190.996 104.709H182.808V106.063H190.996V104.709ZM190.996 102.106H182.808V103.46H190.996V102.106ZM190.996 99.451H182.808V100.805H190.996V99.451ZM190.996 96.8477H182.808V98.2017H190.996V96.8477ZM190.996 94.2444H182.808V95.5969H190.996V94.2444ZM190.996 91.5895H182.808V92.942H190.996V91.5895ZM190.996 88.9861H182.808V90.3386H190.996V88.9861ZM190.996 86.3828H182.808V87.7368H190.996V86.3828ZM190.996 83.7279H182.808V85.0819H190.996V83.7279ZM191.344 119.184C191.17 118.768 191.055 118.351 190.996 117.83H182.693C182.634 118.351 182.519 118.821 182.345 119.184H191.344ZM190.996 82.4786V81.1246H182.345C182.519 81.4885 182.634 81.957 182.693 82.4786H190.996ZM175.726 119.184H177.466C179.907 119.184 180.369 118.768 180.369 116.581V83.7279C180.369 81.5401 179.907 81.1246 177.466 81.1246H175.726V78.9367H211.089V92.8904H208.474C208.474 85.2381 202.028 81.1246 195.235 81.02C194.655 81.02 193.435 81.0716 193.435 81.4355V98.4624C197.326 98.4624 200.694 94.6613 200.694 89.4031H203.306V109.917H200.694C200.694 103.825 197.326 100.649 193.435 100.649L193.377 116.581C193.377 118.663 193.843 119.444 195.991 119.444C203.017 119.444 209.056 111.009 209.404 104.45H212.017L211.437 121.371H175.726V119.184Z" fill="#E6E6E6"/>
<path d="M253.239 114.134L253.181 112.572C252.948 113.041 252.425 113.717 252.135 114.134H253.239ZM253.181 116.633V115.279H251.553C251.206 115.749 250.858 116.164 250.451 116.633H253.181ZM253.065 119.184L253.122 117.83H249.348C248.826 118.299 248.302 118.768 247.723 119.184H253.065ZM236.864 116.581L236.805 115.591V115.227H228.617V116.581H236.864ZM236.805 112.572H228.617V113.925H236.805V112.572ZM236.805 109.969H228.617V111.323H236.805V109.969ZM236.805 107.366H228.617V108.72H236.805V107.366ZM236.805 104.711H228.617V106.065H236.805V104.711ZM236.805 102.106H228.617V103.46H236.805V102.106ZM236.805 99.451H228.617V100.805H236.805V99.451ZM236.805 96.8477H228.617V98.2017H236.805V96.8477ZM236.805 94.2444H228.617V95.5969H236.805V94.2444ZM236.805 91.5895H228.617V92.942H236.805V91.5895ZM236.805 88.9861H228.617V90.3386H236.805V88.9861ZM236.805 86.3828H228.617V87.7368H236.805V86.3828ZM236.805 83.7279H228.617V85.0819H236.805V83.7279ZM237.443 119.184C237.27 118.768 237.096 118.299 237.038 117.83H228.559C228.443 118.351 228.328 118.768 228.154 119.184H237.443ZM236.922 82.4786C236.979 81.957 237.096 81.4885 237.27 81.1246H228.154C228.328 81.4885 228.443 81.957 228.559 82.4786H236.922ZM221.533 119.184H223.275C225.714 119.184 226.179 118.768 226.179 116.581V83.7279C226.179 81.5401 225.714 81.1246 223.275 81.1246H221.533V78.9367H243.889V81.1246H242.148C239.708 81.1246 239.244 81.5401 239.244 83.7279V115.591C239.244 118.455 239.826 119.341 241.625 119.341C247.141 119.341 252.891 110.645 253.47 104.138H255.908L255.446 121.371H221.533V119.184Z" fill="#E6E6E6"/>
<path d="M296.085 114.186L296.143 112.311C295.795 112.936 295.389 113.561 294.925 114.186H296.085ZM295.504 83.4156H293.937C294.518 84.0403 295.041 84.7165 295.504 85.4458V83.4156ZM295.969 116.684L296.028 115.33H293.995C293.647 115.8 293.239 116.269 292.776 116.684H295.969ZM295.504 82.2694V81.1246H291.034C291.614 81.4885 292.194 81.8524 292.717 82.2694H295.504ZM295.912 119.184L295.969 117.83H291.614C291.034 118.299 290.453 118.768 289.873 119.184H295.912ZM287.723 100.232H284.821C285.691 100.544 287.085 101.586 287.723 102.471V100.232ZM287.723 98.8263V96.4838C287.085 97.4208 285.749 98.4624 284.821 98.8263H287.723ZM277.794 115.227H269.663V116.581H277.794V115.227ZM277.794 112.572H269.663V113.925H277.794V112.572ZM277.794 109.969H269.663V111.323H277.794V109.969ZM277.794 108.72L277.852 107.366H269.663V108.72H277.794ZM277.852 104.709H269.663V106.063H277.852V104.709ZM277.852 102.106H269.663V103.46H277.852V102.106ZM277.852 99.451H269.663V100.805H277.852V99.451ZM277.852 96.8477H269.663V98.2017H277.852V96.8477ZM277.852 94.2444H269.663V95.5969H277.852V94.2444ZM277.852 91.5895H269.663V92.942H277.852V91.5895ZM277.852 88.9861H269.663V90.3386H277.852V88.9861ZM277.852 86.3828H269.663V87.7368H277.852V86.3828ZM277.852 83.7279H269.663V85.0819H277.852V83.7279ZM278.2 119.184C278.026 118.768 277.911 118.351 277.852 117.83H269.548C269.489 118.351 269.374 118.821 269.201 119.184H278.2ZM277.852 82.4786V81.1246H269.201C269.374 81.4885 269.489 81.957 269.548 82.4786H277.852ZM262.581 119.184H264.321C266.762 119.184 267.225 118.768 267.225 116.581V83.7279C267.225 81.5401 266.762 81.1246 264.321 81.1246H262.581V78.9367H297.945V92.8904H295.33C295.33 85.2381 288.884 81.1246 282.091 81.02C281.51 81.02 280.29 81.0716 280.29 81.4355V98.4624C284.181 98.4624 287.549 94.6613 287.549 89.4031H290.161V109.917H287.549C287.549 103.825 284.181 100.649 280.29 100.649L280.233 116.581C280.233 118.663 280.698 119.444 282.846 119.444C289.873 119.444 295.912 111.009 296.259 104.45H298.873L298.292 121.371H262.581V119.184Z" fill="#E6E6E6"/>
<path d="M348.223 118.455H338.816C340.212 119.548 341.663 119.861 343.171 119.861C345.205 119.861 346.831 119.497 348.223 118.455ZM346.656 117.257C346.307 116.893 346.018 116.425 345.843 115.905H336.958C337.191 116.372 337.482 116.84 337.772 117.257H346.656ZM344.624 90.6525C344.682 90.2355 344.74 89.767 344.74 89.3501V89.2985H336.145V89.8186C336.145 90.0793 336.145 90.3401 336.088 90.6525H344.624ZM345.493 114.654C345.378 114.186 345.319 113.769 345.319 113.353V113.3H336.03C336.145 113.769 336.262 114.239 336.435 114.654H345.493ZM344.624 87.9445C344.567 87.476 344.449 87.0075 344.275 86.592H335.855C335.971 87.0075 336.03 87.476 336.088 87.9445H344.624ZM343.753 93.3073C343.985 92.8388 344.216 92.4234 344.332 91.9534H336.03C335.971 92.4234 335.914 92.8388 335.796 93.3073H343.753ZM345.205 112.102L344.914 110.75H335.565L335.796 112.102H345.205ZM344.567 109.552C344.449 109.083 344.275 108.615 344.101 108.198H335.158L335.391 109.552H344.567ZM343.637 85.2896C343.345 84.7681 342.939 84.3526 342.533 83.9357H335.043C335.217 84.3526 335.391 84.8211 335.506 85.2896H343.637ZM341.546 95.9622C342.068 95.5468 342.533 95.0783 342.881 94.6083H335.448L334.927 95.9622H341.546ZM343.463 107C343.229 106.532 342.939 106.063 342.65 105.648H334.519L334.869 107H343.463ZM341.663 104.397C341.197 103.877 340.674 103.46 340.151 103.044H333.591C333.823 103.46 333.997 103.928 334.171 104.397H341.663ZM340.617 82.6347C338.816 81.7493 335.275 81.1762 333.417 81.1762C333.766 81.5931 334.114 82.1132 334.404 82.6347H340.617ZM339.572 97.2646H334.287C333.94 97.7847 333.474 98.3063 333.067 98.6702C335.739 98.6702 337.482 98.3063 339.572 97.2646ZM338.178 101.847C336.145 100.91 334.287 100.596 332.08 100.596C332.428 100.961 332.661 101.327 332.953 101.847H338.178ZM333.705 89.767C333.705 83.9872 331.675 80.7607 327.202 80.7607C326.681 80.7607 326.215 80.8123 325.809 80.9169V98.4624C326.215 98.6186 326.681 98.6702 327.26 98.6702C331.79 98.6702 333.705 95.3906 333.705 89.767ZM323.37 115.227H315.475V116.581H323.37V115.227ZM323.37 112.572H315.475V113.925H323.37V112.572ZM323.37 109.969H315.475V111.323H323.37V109.969ZM323.37 107.366H315.475V108.72H323.37V107.366ZM323.37 104.709H315.475V106.063H323.37V104.709ZM323.37 102.106H315.475V103.46H323.37V102.106ZM323.37 99.451H315.475V100.805H323.37V99.451ZM323.37 96.8477H315.475V98.2017H323.37V96.8477ZM323.37 94.2444H315.475V95.5969H323.37V94.2444ZM323.37 91.5895H315.475V92.942H323.37V91.5895ZM323.37 88.9861H315.475V90.3386H323.37V88.9861ZM323.37 86.3828H315.475V87.7368H323.37V86.3828ZM323.37 83.7279H315.475V85.0819H323.37V83.7279ZM323.834 119.184C323.66 118.768 323.544 118.351 323.487 117.83H315.414C315.298 118.351 315.183 118.768 315.009 119.184H323.834ZM323.37 82.4786V81.1246H315.009C315.183 81.4885 315.298 81.957 315.414 82.4786H323.37ZM333.067 110.594C332.08 104.45 330.919 100.388 326.564 100.388C326.041 100.388 325.925 100.388 325.809 100.44V116.581C325.809 118.768 326.274 119.184 328.712 119.184H330.454V121.371H308.39V119.184H310.131C312.571 119.184 313.034 118.768 313.034 116.581V83.7279C313.034 81.5401 312.571 81.1246 310.131 81.1246H308.39V78.9367H329.758C341.197 78.9367 347.179 81.9054 347.179 89.1423C347.179 95.1814 343.055 99.1903 337.017 99.8164V100.024C346.597 101.534 347.527 110.75 347.759 113.145C347.876 114.134 347.702 115.8 348.92 115.8C350.14 115.8 350.836 114.082 351.07 111.323L353.508 111.687C353.275 117.779 349.966 122.047 343.404 122.047C334.984 122.047 333.766 114.966 333.067 110.594Z" fill="#E6E6E6"/>
<path d="M378.816 67.8472C378.816 67.0663 378.234 66.4947 376.783 66.4947C375.391 66.4947 374.519 67.0663 373.764 67.8472H378.816ZM375.274 70.3989L377.887 69.2011L378.06 69.045H372.718L371.5 70.3989H375.274ZM372.603 71.6483H370.454L369.176 73.1584L372.603 71.6483ZM374.809 115.176H366.62V116.53H374.809V115.176ZM374.809 112.572H366.62V113.925H374.809V112.572ZM374.809 109.969H366.62V111.323H374.809V109.969ZM374.809 107.314H366.62V108.667H374.809V107.314ZM374.809 104.711H366.62V106.065H374.809V104.711ZM374.809 102.106H366.62V103.46H374.809V102.106ZM374.809 99.451H366.62V100.805H374.809V99.451ZM374.809 96.8477H366.62V98.2017H374.809V96.8477ZM374.809 94.2444H366.62V95.5969H374.809V94.2444ZM374.809 91.5895H366.62V92.942H374.809V91.5895ZM374.809 88.9861H366.62V90.3386H374.809V88.9861ZM374.809 86.3312H366.62V87.6837H374.809V86.3312ZM374.809 83.7279H366.62V85.0819H374.809V83.7279ZM375.274 119.184C375.101 118.768 374.983 118.351 374.925 117.83H366.564C366.507 118.351 366.331 118.768 366.158 119.184H375.274ZM374.925 82.4786C374.983 81.957 375.101 81.4885 375.274 81.1246H366.158C366.331 81.4885 366.507 81.957 366.564 82.4786H374.925ZM371.674 67.5348C372.835 66.1809 374.171 64.9315 376.783 64.9315C379.513 64.9315 380.733 66.3385 380.733 67.8472C380.733 68.8888 380.094 69.982 378.759 70.6597L368.073 75.6056H364.88L371.674 67.5348ZM359.596 119.184H361.338C363.66 119.184 364.241 118.768 364.241 116.945V83.7279C364.241 81.5401 363.719 81.1246 361.28 81.1246H359.538V78.9367H381.894V81.1246H380.151C377.713 81.1246 377.249 81.5401 377.249 83.7279V116.581C377.249 118.768 377.713 119.184 380.151 119.184H381.894V121.371H359.596V119.184Z" fill="#E6E6E6"/>
<path d="M423.524 119.183C423.291 118.819 423.06 118.351 422.885 117.987L422.826 117.829H413.014C412.955 118.298 412.84 118.766 412.664 119.183H423.524ZM422.362 116.528L421.898 115.174H412.317L412.781 116.528H422.362ZM421.375 113.873L420.91 112.519H411.388L411.851 113.873H421.375ZM420.446 111.217L419.982 109.863H410.516L410.98 111.217H420.446ZM419.458 108.613L418.995 107.26H409.587L410.051 108.613H419.458ZM418.587 105.959L418.065 104.605H408.716L409.181 105.959H418.587ZM417.6 103.304L417.078 101.95H407.786L408.252 103.304H417.6ZM416.672 100.7L416.149 99.3464H406.917L407.381 100.7H416.672ZM409.936 82.2163L409.472 80.8623H407.381L406.857 82.2163H409.936ZM415.685 98.044L415.162 96.69H405.987L406.451 98.044H415.685ZM410.923 84.8196L410.459 83.4656H406.451L405.93 84.8196H410.923ZM414.698 95.3891L414.232 94.0351H405.058L405.522 95.3891H414.698ZM411.851 87.476L411.388 86.122H405.464L404.943 87.476H411.851ZM413.768 92.7342L413.304 91.3802H404.187L404.651 92.7342H413.768ZM412.84 90.1309L412.376 88.7769H404.477L403.956 90.1309H412.84ZM406.917 106.791L402.387 93.5151L397.741 106.791H406.917ZM393.56 119.236C393.096 118.714 392.806 118.194 392.747 117.621C392.457 118.141 391.878 118.766 391.179 119.236H393.56ZM386.593 119.183H387.58C389.438 119.183 390.948 118.194 391.528 116.633L405.638 78.6759H411.272L425.208 117.309C425.615 118.454 426.659 119.183 427.994 119.183H428.981V121.369H406.625V119.183H408.832C410.169 119.183 410.575 118.507 410.575 117.829C410.575 117.621 410.516 117.36 410.459 117.204L407.671 108.979H396.928L394.432 116.163C394.316 116.58 394.199 116.944 394.199 117.309C394.199 118.507 395.072 119.183 396.871 119.183H398.612V121.369H386.593V119.183Z" fill="#E6E6E6"/>
<path d="M204.869 53.9163L204.817 52.5167C204.608 52.9366 204.141 53.5436 203.88 53.9163H204.869ZM204.817 56.1558V54.9418H203.361C203.049 55.3617 202.737 55.7359 202.373 56.1558H204.817ZM204.714 58.4409L204.765 57.2283H201.386C200.916 57.6482 200.449 58.0681 199.929 58.4409H204.714ZM190.205 56.1086L190.153 55.2217V54.8961H182.822V56.1086H190.205ZM190.153 52.5167H182.822V53.7292H190.153V52.5167ZM190.153 50.1845H182.822V51.397H190.153V50.1845ZM190.153 47.8522H182.822V49.0648H190.153V47.8522ZM190.153 45.4728H182.822V46.6854H190.153V45.4728ZM190.153 43.1406H182.822V44.3531H190.153V43.1406ZM190.153 40.7612H182.822V41.9737H190.153V40.7612ZM190.153 38.429H182.822V39.6415H190.153V38.429ZM190.153 36.0967H182.822V37.3093H190.153V36.0967ZM190.153 33.7173H182.822V34.9299H190.153V33.7173ZM190.153 31.3851H182.822V32.5976H190.153V31.3851ZM190.153 29.0529H182.822V30.2654H190.153V29.0529ZM190.153 26.6735H182.822V27.886H190.153V26.6735ZM190.725 58.4409C190.569 58.0681 190.413 57.6482 190.361 57.2283H182.769C182.666 57.6939 182.561 58.0681 182.405 58.4409H190.725ZM190.258 25.5552C190.309 25.0882 190.413 24.6683 190.569 24.3412H182.405C182.561 24.6683 182.666 25.0882 182.769 25.5552H190.258ZM176.477 58.4409H178.038C180.222 58.4409 180.639 58.0681 180.639 56.1086V26.6735C180.639 24.7155 180.222 24.3412 178.038 24.3412H176.477V22.3817H196.496V24.3412H194.937C192.752 24.3412 192.337 24.7155 192.337 26.6735V55.2217C192.337 57.7882 192.858 58.5808 194.469 58.5808C199.409 58.5808 204.556 50.79 205.078 44.9601H207.261L206.844 60.4004H176.477V58.4409Z" fill="#E6E6E6"/>
<path d="M245.067 58.4411C244.858 58.1141 244.652 57.6942 244.494 57.3671L244.443 57.2286H235.654C235.603 57.647 235.5 58.0684 235.344 58.4411H245.067ZM244.027 56.0617L243.612 54.8492H235.031L235.448 56.0617H244.027ZM243.143 53.6824L242.728 52.4698H234.199L234.616 53.6824H243.143ZM242.311 51.303L241.895 50.0919H233.419L233.835 51.303H242.311ZM241.427 48.9707L241.011 47.7582H232.587L233.004 48.9707H241.427ZM240.647 46.5928L240.18 45.3788H231.808L232.223 46.5928H240.647ZM239.763 44.2134L239.295 43.0009H230.977L231.392 44.2134H239.763ZM238.931 41.8812L238.464 40.6687H230.196L230.611 41.8812H238.931ZM232.899 25.3213L232.484 24.1087H230.611L230.143 25.3213H232.899ZM238.047 39.5018L237.58 38.2893H229.363L229.78 39.5018H238.047ZM233.783 27.6535L233.368 26.441H229.78L229.312 27.6535H233.783ZM237.163 37.1224L236.748 35.9099H228.531L228.948 37.1224H237.163ZM234.616 30.0329L234.199 28.8204H228.895L228.428 30.0329H234.616ZM236.331 34.7445L235.915 33.5305H227.752L228.167 34.7445H236.331ZM235.5 32.4123L235.084 31.1983H228.012L227.542 32.4123H235.5ZM230.196 47.3383L226.14 35.4443L221.979 47.3383H230.196ZM218.236 58.4868C217.82 58.0212 217.559 57.5542 217.508 57.0415C217.248 57.5085 216.728 58.0684 216.105 58.4868H218.236ZM211.996 58.4411H212.88C214.543 58.4411 215.896 57.5542 216.416 56.1546L229.053 22.1492H234.096L246.575 56.7616C246.94 57.7885 247.874 58.4411 249.072 58.4411H249.954V60.4006H229.935V58.4411H231.911C233.109 58.4411 233.472 57.8341 233.472 57.2286C233.472 57.0415 233.419 56.8087 233.368 56.6673L230.871 49.2978H221.251L219.015 55.7361C218.912 56.1089 218.809 56.4345 218.809 56.7616C218.809 57.8341 219.588 58.4411 221.2 58.4411H222.76V60.4006H211.996V58.4411Z" fill="#E6E6E6"/>
<path d="M6.85823 119.16C7.08807 118.785 7.26634 118.334 7.39009 117.806H18.5401C18.6638 118.334 18.8421 118.785 19.0719 119.16H6.85823ZM18.3323 74.3483V75.7022H7.39009C7.26486 75.1748 7.08807 74.7254 6.85823 74.3483H18.3323ZM7.59783 77.3244H18.3323V78.6783H7.59783V77.3244ZM7.59783 80.3166H18.3323V81.6706H7.59783V80.3166ZM7.59783 83.11H18.3323V84.464H7.59783V83.11ZM7.59783 85.8666H18.3323V87.2205H7.59783V85.8666ZM7.59783 88.6216H18.3323V89.9756H7.59783V88.6216ZM7.59783 91.2765H18.3323V92.6305H7.59783V91.2765ZM7.59783 93.9314H18.3323V95.2854H7.59783V93.9314ZM7.59783 96.5878H18.3323V97.9418H7.59783V96.5878ZM7.59783 99.2427H18.3323V100.597H7.59783V99.2427ZM7.59783 101.898H18.3323V103.252H7.59783V101.898ZM7.59783 104.552H18.3323V105.906H7.59783V104.552ZM7.59783 107.209H18.3323V108.563H7.59783V107.209ZM7.59783 109.864H18.3323V111.218H7.59783V109.864ZM18.3323 116.528H7.59783V115.174H18.3323V116.528ZM7.59783 112.519H18.3323V113.873H7.59783V112.519ZM20.5423 74.4956C20.9474 74.3748 21.553 74.3144 22.1585 74.3144C26.2675 74.3144 29.4322 77.2743 29.4322 86.3955C29.4322 96 25.9302 98.3558 22.1585 98.3558C21.2834 98.3558 20.6764 98.235 20.5423 98.1746V74.4956ZM34.1895 75.9468H29.3379C29.0329 75.465 28.7118 75.0201 28.3655 74.6444C30.5784 74.9052 32.5188 75.3413 34.1895 75.9468ZM39.1044 78.9568H30.6992C30.5519 78.4735 30.3869 78.0242 30.2101 77.6028H37.4926C38.0938 78.0139 38.6271 78.4676 39.1044 78.9568ZM41.0625 81.9505H31.3431C31.2753 81.4835 31.2046 81.0223 31.1177 80.5966H40.3803C40.6426 81.0268 40.8709 81.4761 41.0625 81.9505ZM41.749 84.7439H31.595C31.5744 84.2739 31.5405 83.8275 31.5022 83.3899H41.5118C41.6149 83.826 41.696 84.2754 41.749 84.7439ZM41.8374 86.2143C41.8374 86.6607 41.808 87.0835 41.7682 87.499H31.6097C31.6215 87.1307 31.6422 86.783 31.6422 86.3955C31.6422 86.3071 31.6363 86.2319 31.6348 86.145H41.8345C41.8345 86.1686 41.8374 86.1907 41.8374 86.2143ZM41.1582 90.2541H31.4167C31.4698 89.8209 31.5125 89.3686 31.5479 88.9001H41.5487C41.444 89.373 41.3159 89.8268 41.1582 90.2541ZM39.6466 92.9104H30.9247C31.0337 92.4817 31.1294 92.0294 31.2149 91.5565H40.5615C40.2949 92.0427 39.9825 92.4876 39.6466 92.9104ZM36.5571 95.5653H29.9935C30.1924 95.1469 30.3766 94.6976 30.5431 94.2114H38.4297C37.8566 94.7197 37.2275 95.1675 36.5571 95.5653ZM28.2491 98.1687C28.6101 97.7959 28.946 97.351 29.2642 96.8663H33.7637C31.9928 97.5116 30.0981 97.9241 28.2491 98.1687ZM22.8996 100.712C32.3287 100.712 44.0474 97.9933 44.0474 86.2143C44.0474 74.4956 32.3287 72.1383 22.8996 72.1383H0V74.6768H2.0199C4.84864 74.6768 5.38787 75.1601 5.38787 77.6971V115.813C5.38787 118.35 4.84864 118.833 2.0199 118.833H0V121.37H25.9302V118.833H23.9088C21.08 118.833 20.5423 118.35 20.5423 115.813V100.712H22.8996Z" fill="#E6E6E6"/>
</svg>
