<svg width="32" height="32" viewBox="0 0 32 32" fill="none" xmlns="http://www.w3.org/2000/svg">
<path fill-rule="evenodd" clip-rule="evenodd" d="M16 0C24.8306 0 32 7.16938 32 16C32 24.8306 24.8306 32 16 32C7.16938 32 0 24.8306 0 16C0 7.16938 7.16938 0 16 0ZM16 6.54969C10.4542 6.54969 6.15625 10.612 6.15625 16.0984C6.15625 18.9683 7.33275 21.4481 9.24806 23.1613C9.40844 23.3059 9.5055 23.5059 9.51344 23.7218L9.56694 25.4727C9.58475 26.0312 10.1611 26.3937 10.6721 26.1699L12.625 25.3083C12.7914 25.2351 12.9756 25.2212 13.1499 25.2687C14.0471 25.5163 15.0038 25.647 16 25.647C21.5458 25.647 25.8438 21.5847 25.8438 16.0984C25.8438 10.612 21.5458 6.54969 16 6.54969ZM10.0898 18.8911L12.9815 14.3039C13.441 13.5751 14.4274 13.3928 15.1166 13.9097L17.4161 15.6349C17.6281 15.7934 17.9173 15.7914 18.1272 15.6329L21.2328 13.2759C21.6468 12.9611 22.1895 13.4582 21.9102 13.8979L19.0204 18.4831C18.5609 19.2119 17.5746 19.3941 16.8854 18.8772L14.5859 17.1521C14.3739 16.9936 14.0847 16.9956 13.8748 17.1541L10.7672 19.513C10.3532 19.8279 9.8105 19.3307 10.0898 18.8911Z" fill="white"/>
</svg>
