<svg width="32" height="32" viewBox="0 0 32 32" fill="none" xmlns="http://www.w3.org/2000/svg">
<path d="M16 0C7.16344 0 0 7.16344 0 16C0 24.8366 7.16344 32 16 32C24.8366 32 32 24.8366 32 16C32 7.16344 24.8366 0 16 0ZM24.1012 14.5239C22.4022 14.5239 20.7491 13.9725 19.4762 13.0395L19.4661 19.3832C19.4651 20.5587 19.1056 21.7059 18.4356 22.6717C17.7656 23.6376 16.817 24.3761 15.7163 24.7888C14.6157 25.2015 13.4153 25.2687 12.2755 24.9814C11.1357 24.6942 10.1105 24.0662 9.33692 23.1812C8.5633 22.2962 8.07797 21.1963 7.9457 20.0283C7.81343 18.8603 8.04052 17.6797 8.59665 16.6441C9.15278 15.6085 10.0115 14.7672 11.0582 14.2323C12.105 13.6975 13.2899 13.4946 14.455 13.6507V16.766C13.9054 16.6036 13.3187 16.6184 12.778 16.8083C12.2373 16.9981 11.7701 17.3534 11.4426 17.8237C11.1152 18.294 10.9442 18.8555 10.9538 19.4285C10.9634 20.0014 11.1531 20.5568 11.4961 21.0159C11.8391 21.475 12.3179 21.8144 12.8647 21.9861C13.4114 22.1577 13.9984 22.1528 14.5422 21.9722C15.086 21.7915 15.5592 21.4442 15.8945 20.9795C16.2299 20.5148 16.4104 19.9563 16.4105 19.3832V6.83331H19.6152C19.6152 7.4224 19.7312 8.00573 19.9567 8.54997C20.1821 9.09422 20.5125 9.58874 20.9291 10.0053C21.3456 10.4218 21.8401 10.7523 22.3844 10.9777C22.9286 11.2031 23.512 11.3191 24.1011 11.3191L24.1012 14.5239Z" fill="white"/>
</svg>
