<svg width="185" height="65" viewBox="0 0 185 65" fill="none" xmlns="http://www.w3.org/2000/svg">
<g clip-path="url(#clip0_62_645)">
<path d="M178.264 36.1204C178.415 34.9289 178.493 33.7135 178.493 32.4804C178.493 25.5393 176.031 19.1736 171.933 14.2071" stroke="white" stroke-width="1.92825" stroke-miterlimit="10"/>
<path d="M128.595 15.2749C127.845 16.214 127.145 17.2092 126.502 18.2616C122.883 24.1851 121.665 30.9023 122.573 37.2766" stroke="white" stroke-width="1.92836" stroke-miterlimit="10"/>
<path d="M127.868 45.9374L126.168 46.9564L127.369 48.9561L126.593 49.4215L125.393 47.4229L123.619 48.4876L124.97 50.7356L124.196 51.2009L122.275 48.0025L128.071 44.5226L129.992 47.721L129.218 48.1853L127.868 45.9374Z" fill="white"/>
<path d="M130.674 58.1711L129.865 57.4149L130.869 51.4554L127.429 55.142L126.62 54.3848L131.234 49.4432L132.043 50.1995L131.044 56.1517L134.479 52.4734L135.288 53.2286L130.674 58.1711Z" fill="white"/>
<path d="M144.475 59.3259C144.398 58.955 144.233 58.6444 143.98 58.3951C143.727 58.1458 143.404 57.9661 143.012 57.856C142.581 57.7355 142.17 57.7251 141.78 57.8227C141.388 57.9214 141.048 58.123 140.758 58.4252C140.469 58.7265 140.257 59.1108 140.126 59.5793C139.996 60.0458 139.974 60.4862 140.063 60.8986C140.154 61.31 140.34 61.66 140.622 61.9478C140.904 62.2355 141.26 62.4402 141.69 62.5607C142.271 62.7238 142.787 62.6936 143.24 62.4703C143.692 62.248 144.037 61.8699 144.275 61.338L141.832 60.6524L142.072 59.8027L145.654 60.8072L145.42 61.6403C145.21 62.1254 144.9 62.5399 144.492 62.8827C144.083 63.2255 143.61 63.4582 143.075 63.5808C142.54 63.7023 141.987 63.6836 141.421 63.5236C140.809 63.3533 140.292 63.0551 139.866 62.6292C139.44 62.2033 139.15 61.6964 138.997 61.1084C138.841 60.5194 138.853 59.9086 139.032 59.2719C139.211 58.6361 139.519 58.1063 139.956 57.6846C140.394 57.2628 140.907 56.9813 141.496 56.8401C142.083 56.6988 142.679 56.7123 143.285 56.8826C143.977 57.0779 144.544 57.4207 144.988 57.9121C145.433 58.4024 145.688 58.9945 145.757 59.6863L144.475 59.3259Z" fill="white"/>
<path d="M149.506 61.0434L150.73 61.0008C151.143 60.9852 151.452 60.872 151.655 60.657C151.859 60.443 151.953 60.1604 151.942 59.8104C151.93 59.4624 151.817 59.1923 151.603 59.0011C151.388 58.8121 151.071 58.7238 150.651 58.7383L149.427 58.7809L149.506 61.0434ZM152.029 64.542L150.382 61.8973L149.536 61.9274L149.631 64.6251L148.524 64.6636L148.289 57.9156L150.619 57.8346C151.137 57.818 151.578 57.8938 151.944 58.0621C152.31 58.2304 152.587 58.4641 152.775 58.7622C152.964 59.0603 153.065 59.3969 153.077 59.7719C153.093 60.2124 152.98 60.6165 152.736 60.9831C152.493 61.353 152.108 61.6106 151.582 61.7581L153.35 64.4963L152.029 64.542Z" fill="white"/>
<path d="M160.13 60.4113L158.073 57.7998L158.044 61.1281L160.13 60.4113ZM160.716 61.1665L158.044 62.0838L158.032 63.5464L156.939 63.9214L157.031 56.7413L158.243 56.3247L162.728 61.9331L161.624 62.3123L160.716 61.1665Z" fill="white"/>
<path d="M170.576 56.7299L169.691 57.3968L163.997 55.3701L167.029 59.3985L166.143 60.0654L162.078 54.6637L162.963 53.9968L168.651 56.0152L165.625 51.993L166.51 51.3271L170.576 56.7299Z" fill="white"/>
<path d="M175.035 49.4076C175.063 49.0035 174.976 48.6129 174.775 48.2368C174.574 47.8608 174.267 47.5315 173.854 47.25C173.443 46.9695 173.026 46.8044 172.604 46.7555C172.183 46.7077 171.79 46.7711 171.427 46.9477C171.064 47.1222 170.757 47.3944 170.505 47.7642C170.253 48.133 170.112 48.5194 170.081 48.9214C170.049 49.3234 170.134 49.7119 170.333 50.0859C170.531 50.4619 170.837 50.7891 171.248 51.0707C171.661 51.3522 172.078 51.5163 172.503 51.5672C172.928 51.6181 173.323 51.5558 173.688 51.3823C174.054 51.2078 174.362 50.9367 174.615 50.5668C174.866 50.1981 175.007 49.8127 175.035 49.4076ZM174.066 52.2923C173.525 52.5634 172.95 52.6756 172.341 52.632C171.731 52.5894 171.155 52.3816 170.608 52.0097C170.063 51.6368 169.66 51.1756 169.399 50.6261C169.139 50.0765 169.037 49.501 169.091 48.8986C169.145 48.2971 169.348 47.7361 169.702 47.2178C170.061 46.6922 170.51 46.2953 171.051 46.0253C171.592 45.7552 172.164 45.643 172.769 45.6866C173.374 45.7302 173.949 45.939 174.494 46.312C175.041 46.6839 175.446 47.144 175.71 47.6936C175.975 48.242 176.081 48.8186 176.027 49.42C175.972 50.0215 175.767 50.5855 175.409 51.1091C175.055 51.6285 174.608 52.0232 174.066 52.2923Z" fill="white"/>
<path d="M135.057 6.00896C135.138 5.40646 135.367 4.86837 135.74 4.3926C136.114 3.91684 136.591 3.55846 137.169 3.31642C137.833 3.0401 138.492 2.95596 139.145 3.06607C139.797 3.17618 140.365 3.48055 140.848 3.98124L139.62 4.49337C139.321 4.23263 138.994 4.08201 138.64 4.03941C138.286 3.99786 137.921 4.05604 137.544 4.21289C137.132 4.38637 136.804 4.63152 136.557 4.95147C136.312 5.27142 136.17 5.6433 136.133 6.06609C136.095 6.48888 136.173 6.93036 136.365 7.39055C136.557 7.85073 136.816 8.21639 137.144 8.48647C137.47 8.75656 137.835 8.91861 138.237 8.97262C138.637 9.0256 139.045 8.96743 139.457 8.79499C139.834 8.63606 140.132 8.41687 140.351 8.13744C140.571 7.85489 140.693 7.51624 140.717 7.12046L141.945 6.6073C141.961 7.30329 141.778 7.92033 141.396 8.45738C141.014 8.99755 140.49 9.4058 139.827 9.68108C139.242 9.92623 138.651 10.0135 138.053 9.94389C137.455 9.87429 136.913 9.65719 136.426 9.29049C135.941 8.92588 135.571 8.43765 135.316 7.82788C135.062 7.21811 134.975 6.61249 135.057 6.00896Z" fill="white"/>
<path d="M148.69 5.36745L147.357 2.32172L146.491 5.53366L148.69 5.36745ZM149.068 6.24419L146.249 6.45922L145.87 7.87093L144.718 7.95923L146.617 1.03362L147.894 0.935977L150.821 7.49489L149.658 7.58319L149.068 6.24419Z" fill="white"/>
<path d="M158.268 1.9392L158.095 2.82633L155.282 2.27369L154.898 4.22765L157.09 4.65771L156.917 5.54484L154.724 5.11478L154.154 8.01196L153.068 7.79901L154.369 1.17362L158.268 1.9392Z" fill="white"/>
<path d="M165.174 3.09724L162.78 3.14503L163.127 2.40541L165.574 2.2444L165.174 3.09724ZM162.632 4.4913L161.791 6.28632L163.902 7.27525L163.519 8.09486L161.408 7.10385L160.529 8.97783L162.904 10.0904L162.52 10.9089L159.142 9.32582L162.012 3.2032L165.39 4.78735L165.007 5.60488L162.632 4.4913Z" fill="white"/>
<path d="M156.178 26.0601C155.833 23.6968 155.032 21.5819 153.302 19.9312C152.851 19.5012 152.232 19.2186 151.647 18.9672C151.181 18.7678 150.78 19.0192 150.731 19.5282C150.68 20.058 150.681 20.6199 150.806 21.1321C151.106 22.3568 151.153 23.5379 150.593 24.7034C150.34 25.2332 150.117 25.7786 149.896 26.3229C149.377 27.6058 149.567 28.9001 149.819 30.2911C151.565 28.2436 153.657 26.8776 156.178 26.0601ZM148.552 31.0764C148.559 30.9787 148.573 30.933 148.562 30.8925C148.014 28.7526 148.312 26.701 149.243 24.7304C149.73 23.6979 149.836 22.6331 149.739 21.5133C149.693 20.996 149.72 20.461 149.796 19.9447C149.916 19.121 149.503 18.6868 148.687 18.8613C147.489 19.1168 146.462 19.6913 145.589 20.5431C144.159 21.9423 143.382 23.6813 142.987 25.6124C142.76 26.7249 142.708 27.8468 142.82 29.0019C144.877 29.3032 146.761 30.0241 148.552 31.0764ZM149.679 31.816C149.817 31.9303 149.93 32.0258 150.047 32.1183C151.202 33.0335 152.218 34.0785 152.966 35.3572C153.139 35.6554 153.304 35.6554 153.583 35.5629C154.521 35.2554 155.316 34.7142 156.033 34.0619C157.018 33.1675 158.138 32.5681 159.451 32.3281C160.575 32.1225 161.511 31.5896 162.236 30.6962C162.549 30.3108 162.963 30.1436 163.459 30.1072C163.845 30.0781 164.236 30.0085 164.606 29.8932C164.995 29.7727 165.17 29.4361 165.015 29.0674C164.837 28.6467 164.62 28.2093 164.31 27.8821C163.288 26.7987 161.932 26.4382 160.508 26.3364C157.275 26.1037 154.468 27.1872 151.987 29.2066C151.083 29.9431 150.322 30.8073 149.679 31.816ZM153.808 41.5817C154.036 41.6284 154.223 41.6752 154.413 41.7053C155.571 41.8881 156.732 41.886 157.871 41.6087C161.715 40.6707 164.605 38.5391 166.178 34.8233C166.627 33.7627 166.809 32.6418 166.497 31.5065C166.202 30.4323 165.34 30.1685 164.452 30.852C163.771 31.3756 163.134 31.9614 162.424 32.4372C161.856 32.8174 161.236 33.1903 160.586 33.3628C159.237 33.7201 158.018 34.2821 156.913 35.1329C156.026 35.8164 155.08 36.4075 153.957 36.6391C153.86 36.6588 153.769 36.7014 153.651 36.7409C154.155 38.3458 154.604 39.929 153.808 41.5817ZM146.084 46.2095C146.814 46.089 147.779 45.9986 148.707 45.7586C149.914 45.446 151.055 44.966 151.792 43.8545C152.342 43.0256 152.214 42.5477 151.26 42.2756C150.437 42.0398 149.587 41.8933 148.745 41.7261C148.154 41.6097 147.555 41.536 146.962 41.4258C145.734 41.1984 144.789 40.5044 143.978 39.5893C142.676 38.1225 141.115 37.1097 139.134 36.8178C138.813 36.77 138.435 36.6838 138.214 36.4771C137.234 35.5619 135.866 35.5099 134.769 34.8555C134.199 34.5148 133.692 34.8721 133.637 35.5307C133.49 37.2884 133.954 38.8995 134.942 40.3268C137.572 44.1277 141.32 45.8802 146.084 46.2095ZM141.816 29.6636C139.099 29.6647 137.25 30.1965 135.651 31.4763C135.229 31.8129 134.899 32.2139 134.79 32.7644C134.663 33.4012 134.997 33.9383 135.644 34.0079C137.655 34.2229 139.531 34.8399 141.419 35.5692C143.244 36.2745 144.676 37.3652 145.897 38.8071C146.552 39.581 147.347 40.0526 148.321 40.2707C149.497 40.5346 150.656 40.8275 151.718 41.4549C152.396 41.8549 152.99 41.59 153.275 40.8524C153.386 40.5637 153.458 40.2406 153.462 39.931C153.489 38.1661 152.967 36.5487 151.906 35.1578C149.201 31.6103 145.531 29.9015 141.816 29.6636Z" fill="white"/>
<path d="M141.816 29.6637C145.531 29.9016 149.201 31.6104 151.907 35.1589C152.967 36.5488 153.49 38.1662 153.463 39.9311C153.458 40.2407 153.387 40.5638 153.275 40.8536C152.99 41.5901 152.396 41.855 151.718 41.455C150.656 40.8276 149.498 40.5357 148.321 40.2719C147.347 40.0527 146.553 39.5821 145.897 38.8072C144.676 37.3653 143.244 36.2746 141.419 35.5693C139.531 34.84 137.656 34.223 135.644 34.008C134.997 33.9384 134.664 33.4013 134.79 32.7645C134.9 32.215 135.229 31.813 135.651 31.4764C137.251 30.1966 139.099 29.6648 141.816 29.6637Z" fill="white"/>
<path d="M146.083 46.2095C141.319 45.8802 137.571 44.1277 134.941 40.3268C133.953 38.8995 133.49 37.2884 133.636 35.5307C133.691 34.8721 134.198 34.5148 134.769 34.8555C135.866 35.5099 137.234 35.5619 138.213 36.4771C138.435 36.6838 138.813 36.771 139.134 36.8178C141.115 37.1097 142.676 38.1225 143.978 39.5893C144.79 40.5044 145.733 41.1984 146.962 41.4258C147.554 41.536 148.153 41.6097 148.745 41.7271C149.587 41.8933 150.437 42.0398 151.259 42.2756C152.213 42.5488 152.342 43.0256 151.791 43.8545C151.055 44.966 149.913 45.447 148.706 45.7586C147.78 45.9986 146.813 46.089 146.083 46.2095Z" fill="white"/>
<path d="M153.808 41.5823C154.603 39.9286 154.154 38.3465 153.651 36.7405C153.768 36.7011 153.86 36.6595 153.956 36.6398C155.079 36.4081 156.026 35.816 156.912 35.1335C158.017 34.2828 159.235 33.7208 160.586 33.3624C161.236 33.191 161.855 32.8181 162.422 32.4379C163.134 31.9611 163.771 31.3762 164.451 30.8527C165.339 30.1692 166.202 30.433 166.497 31.5071C166.808 32.6425 166.625 33.7634 166.178 34.8229C164.605 38.5397 161.714 40.6713 157.87 41.6093C156.732 41.8867 155.571 41.8888 154.411 41.7049C154.222 41.6748 154.035 41.6291 153.808 41.5823Z" fill="white"/>
<path d="M149.679 31.8167C150.322 30.808 151.084 29.9437 151.988 29.2072C154.469 27.1868 157.274 26.1044 160.509 26.336C161.932 26.4389 163.288 26.7993 164.31 27.8817C164.62 28.209 164.837 28.6463 165.014 29.068C165.17 29.4368 164.995 29.7734 164.606 29.8939C164.236 30.0081 163.846 30.0788 163.459 30.1068C162.963 30.1442 162.549 30.3115 162.237 30.6969C161.511 31.5902 160.576 32.1231 159.451 32.3288C158.139 32.5677 157.019 33.1671 156.034 34.0625C155.316 34.7139 154.521 35.2551 153.584 35.5636C153.305 35.655 153.14 35.656 152.965 35.3579C152.219 34.0792 151.202 33.0341 150.046 32.1179C149.93 32.0265 149.817 31.9309 149.679 31.8167Z" fill="white"/>
<path d="M148.552 31.0767C146.761 30.0244 144.876 29.3034 142.819 29.0022C142.707 27.8471 142.759 26.7252 142.986 25.6126C143.382 23.6815 144.158 21.9426 145.589 20.5433C146.461 19.6905 147.489 19.116 148.686 18.8605C149.502 18.687 149.916 19.1212 149.795 19.945C149.721 20.4613 149.693 20.9963 149.738 21.5136C149.836 22.6334 149.73 23.6981 149.243 24.7307C148.312 26.7013 148.014 28.7529 148.562 30.8928C148.573 30.9323 148.558 30.979 148.552 31.0767Z" fill="white"/>
<path d="M156.177 26.06C153.657 26.8776 151.565 28.2436 149.819 30.291C149.567 28.9001 149.376 27.6057 149.896 26.3228C150.117 25.7785 150.339 25.2332 150.593 24.7034C151.153 23.5378 151.106 22.3567 150.806 21.132C150.681 20.6199 150.68 20.0579 150.731 19.5281C150.78 19.0191 151.181 18.7677 151.647 18.9672C152.232 19.2186 152.851 19.5011 153.302 19.9312C155.032 21.5818 155.832 23.6968 156.177 26.06Z" fill="white"/>
<path d="M61.6342 36.1243C61.7849 34.9325 61.8628 33.7168 61.8628 32.4835C61.8628 25.5406 59.4003 19.1734 55.3013 14.2057" stroke="white" stroke-width="1.92872" stroke-miterlimit="10"/>
<path d="M11.9556 15.2732C11.2054 16.2125 10.5061 17.2079 9.86297 18.2605C6.24296 24.1851 5.02521 30.9035 5.93333 37.2791" stroke="white" stroke-width="1.92872" stroke-miterlimit="10"/>
<path d="M20.5696 54.6559L16.295 59.8833L15.4378 59.1819L18.3648 55.6014L13.8418 57.879L13.2475 57.3917L14.5733 52.5009L11.6453 56.0825L10.7881 55.3801L15.0627 50.1527L15.9885 50.9102L14.4715 56.5095L19.6521 53.9047L20.5696 54.6559Z" fill="white"/>
<path d="M24.6727 62.2206C25.0696 62.1406 25.4229 61.9515 25.7326 61.6575C26.0401 61.3614 26.276 60.978 26.436 60.5062C26.5981 60.0345 26.6438 59.5877 26.5783 59.1679C26.5129 58.7492 26.3456 58.3887 26.0796 58.0863C25.8136 57.7829 25.4686 57.5595 25.0447 57.4151C24.6218 57.2707 24.2124 57.2374 23.8166 57.3153C23.4207 57.3933 23.0685 57.5782 22.7599 57.8702C22.4523 58.1622 22.2185 58.5445 22.0564 59.0162C21.8964 59.488 21.8486 59.9368 21.9141 60.3587C21.9785 60.7805 22.1437 61.1452 22.4097 61.4507C22.6747 61.7572 23.0196 61.9827 23.4425 62.1251C23.8664 62.2695 24.2758 62.3006 24.6727 62.2206ZM21.6325 62.0596C21.2283 61.6097 20.9654 61.086 20.8428 60.4865C20.7223 59.888 20.768 59.276 20.981 58.6495C21.193 58.025 21.5307 57.5138 21.991 57.1158C22.4502 56.7179 22.9781 56.4644 23.5724 56.3542C24.1678 56.2462 24.7631 56.2929 25.3575 56.4945C25.958 56.7002 26.462 57.0265 26.8661 57.4753C27.2714 57.9242 27.5342 58.4469 27.6527 59.0412C27.7722 59.6366 27.7254 60.2465 27.5124 60.872C27.2994 61.4975 26.9649 62.0108 26.5066 62.4129C26.0474 62.8139 25.5206 63.0695 24.9263 63.1797C24.3319 63.2888 23.7345 63.2399 23.1339 63.0363C22.5375 62.8347 22.0377 62.5074 21.6325 62.0596Z" fill="white"/>
<path d="M31.3084 63.6664L33.5891 63.7776L33.5455 64.6711L30.1582 64.5049L30.4897 57.7595L31.5952 57.8135L31.3084 63.6664Z" fill="white"/>
<path d="M36.7169 64.4124L35.8232 57.718L36.9211 57.5715L37.8148 64.2658L36.7169 64.4124Z" fill="white"/>
<path d="M44.8638 60.6674C45.1038 60.1177 45.0861 59.4787 44.8076 58.7535C44.5281 58.021 44.1115 57.5253 43.5608 57.2645C43.0111 57.0037 42.3659 57.0141 41.6282 57.2967L40.6016 57.6885L42.3711 62.308L43.3966 61.9153C44.1343 61.6337 44.6237 61.217 44.8638 60.6674ZM43.2179 56.1621C43.8216 56.2276 44.3525 56.4468 44.8118 56.8219C45.2721 57.197 45.6233 57.7051 45.8695 58.3472C46.1148 58.9883 46.1896 59.5982 46.0961 60.1738C46.0015 60.7526 45.7501 61.2628 45.3407 61.7075C44.9303 62.1522 44.391 62.5034 43.7187 62.76L41.6594 63.5476L39.2446 57.2406L41.305 56.452C41.9773 56.1943 42.6142 56.0998 43.2179 56.1621Z" fill="white"/>
<path d="M53.03 55.813C53.1692 55.4327 53.1931 55.0337 53.1037 54.616C53.0133 54.1973 52.8097 53.7973 52.4917 53.4118C52.1738 53.0284 51.8185 52.7551 51.4267 52.592C51.034 52.4278 50.6391 52.3811 50.2422 52.4507C49.8453 52.5192 49.4733 52.6959 49.1294 52.9806C48.7855 53.2663 48.5434 53.5978 48.4021 53.976C48.2608 54.3542 48.2348 54.7501 48.3221 55.1657C48.4094 55.5813 48.613 55.9813 48.931 56.3647C49.2489 56.7481 49.6053 57.0235 49.9991 57.1887C50.3939 57.3549 50.7908 57.4038 51.1898 57.3394C51.5888 57.2718 51.9618 57.0962 52.3058 56.8115C52.6497 56.5258 52.8907 56.1923 53.03 55.813ZM51.302 58.3181C50.7077 58.4293 50.1227 58.3784 49.5481 58.1695C48.9756 57.9576 48.4769 57.5991 48.0561 57.09C47.6342 56.5819 47.3745 56.027 47.2758 55.4275C47.1781 54.827 47.2384 54.2441 47.4566 53.6799C47.6748 53.1157 48.026 52.6335 48.5091 52.2335C48.9985 51.8272 49.5409 51.5696 50.1352 51.4605C50.7295 51.3503 51.3114 51.3992 51.8808 51.609C52.4491 51.8189 52.9458 52.1784 53.3666 52.6865C53.7885 53.1946 54.0503 53.7515 54.1532 54.3521C54.256 54.9527 54.1979 55.5345 53.9797 56.0977C53.7615 56.6619 53.4071 57.1461 52.9198 57.5524C52.4356 57.9534 51.8964 58.209 51.302 58.3181Z" fill="white"/>
<path d="M18.4167 6.00605C18.4978 5.40341 18.7264 4.86518 19.0994 4.3893C19.4734 3.91342 19.9504 3.55496 20.5291 3.31286C21.1931 3.03648 21.8518 2.95231 22.5054 3.06245C23.1579 3.17259 23.7252 3.47703 24.2083 3.97784L22.9802 4.49009C22.681 4.22929 22.3547 4.07863 22.0004 4.03603C21.6461 3.99447 21.2814 4.05266 20.9042 4.20955C20.4917 4.38307 20.1634 4.62828 19.9171 4.94831C19.6719 5.26833 19.5296 5.64031 19.4921 6.0632C19.4547 6.48609 19.5327 6.92768 19.7249 7.38797C19.9171 7.84827 20.1758 8.21401 20.5042 8.48416C20.8304 8.75431 21.1951 8.9164 21.5972 8.97043C21.9973 9.02342 22.4056 8.96523 22.8171 8.79275C23.1942 8.63378 23.4924 8.41454 23.7117 8.13504C23.932 7.85242 24.0535 7.5137 24.0774 7.11782L25.3056 6.60454C25.3222 7.30069 25.1393 7.91788 24.757 8.45507C24.3746 8.99537 23.8509 9.40371 23.188 9.67906C22.602 9.92427 22.0108 10.0115 21.4133 9.94193C20.8148 9.87232 20.2725 9.65516 19.7862 9.28838C19.301 8.92367 18.93 8.43533 18.6755 7.82541C18.4209 7.21549 18.3347 6.60973 18.4167 6.00605Z" fill="white"/>
<path d="M32.0534 5.36487L30.7203 2.31841L29.8537 5.53112L32.0534 5.36487ZM32.4316 6.24182L29.6116 6.4569L29.2324 7.86896L28.0801 7.95728L29.9794 1.03L31.2575 0.93233L34.1844 7.49282L33.0218 7.58114L32.4316 6.24182Z" fill="white"/>
<path d="M41.6326 1.93505L41.4591 2.82239L38.6453 2.26962L38.2619 4.22406L40.4543 4.65422L40.2808 5.54156L38.0874 5.1114L37.518 8.00928L36.4312 7.79627L37.7331 1.16928L41.6326 1.93505Z" fill="white"/>
<path d="M48.5405 3.0934L46.1456 3.1412L46.4926 2.4014L48.9406 2.24035L48.5405 3.0934ZM45.998 4.4878L45.1564 6.28326L47.2677 7.27242L46.8843 8.09222L44.773 7.10098L43.894 8.97541L46.2692 10.0882L45.8858 10.907L42.5068 9.32349L45.3777 3.19939L48.7567 4.78392L48.3733 5.60165L45.998 4.4878Z" fill="white"/>
<path d="M32.869 27.3535C34.5522 25.3804 36.569 24.0629 38.9983 23.2753C38.6658 20.9967 37.8938 18.9581 36.2261 17.3673C35.7918 16.9527 35.1954 16.6805 34.6312 16.4384C34.1823 16.2451 33.7948 16.4883 33.748 16.9787C33.6992 17.4889 33.6992 18.0313 33.8208 18.5238C34.1096 19.7051 34.1553 20.8429 33.615 21.9671C33.3709 22.4773 33.1558 23.0031 32.9438 23.5278C32.443 24.7653 32.6259 26.0121 32.869 27.3535Z" fill="white"/>
<path d="M32.7339 28.824C32.8679 28.9342 32.976 29.0267 33.0882 29.115C34.202 29.9982 35.1819 31.005 35.9019 32.2373C36.0702 32.5251 36.2292 32.5241 36.4973 32.4357C37.4013 32.1386 38.1681 31.617 38.8601 30.9884C39.8087 30.126 40.8883 29.5483 42.1538 29.3176C43.2375 29.1191 44.1394 28.6058 44.8387 27.7445C45.14 27.3725 45.539 27.2115 46.018 27.1761C46.39 27.1491 46.7672 27.0816 47.1235 26.9704C47.4976 26.854 47.667 26.5298 47.5163 26.1745C47.3449 25.7682 47.136 25.3464 46.8378 25.0315C45.8528 23.9873 44.5457 23.6403 43.1731 23.5416C40.056 23.3171 37.3503 24.3614 34.9595 26.3085C34.0888 27.0182 33.3532 27.8515 32.7339 28.824Z" fill="white"/>
<path d="M47.9176 33.1121C48.1795 32.6757 48.4267 32.2206 48.6377 31.7218C49.0699 30.6994 49.2455 29.6198 48.9452 28.5257C48.6616 27.4898 47.8303 27.2353 46.9742 27.894C46.3175 28.399 45.7034 28.9632 45.0187 29.4224C44.4722 29.7892 43.8747 30.1487 43.2482 30.3139C41.9463 30.6589 40.7721 31.2013 39.7071 32.0211C39.1502 32.4492 38.5631 32.8294 37.9272 33.1121H47.9176Z" fill="white"/>
<path d="M19.2052 30.9358C21.144 31.1436 22.9519 31.738 24.7723 32.4414C25.2617 32.6305 25.7127 32.8612 26.1449 33.1116H35.5534C35.3633 32.7427 35.1409 32.3863 34.8811 32.0455C32.2732 28.625 28.7352 26.9771 25.1547 26.7485C22.5353 26.7495 20.7533 27.2618 19.2114 28.4951C18.8051 28.8203 18.4872 29.2069 18.3822 29.7378C18.2596 30.3519 18.5807 30.8693 19.2052 30.9358Z" fill="white"/>
<path d="M31.6483 28.1106C31.6545 28.0171 31.668 27.9724 31.6587 27.9329C31.1298 25.8704 31.4166 23.8931 32.3143 21.9927C32.7839 20.9984 32.8858 19.9718 32.7923 18.8922C32.7486 18.3935 32.7746 17.8771 32.8473 17.3804C32.9627 16.5866 32.5647 16.1668 31.7782 16.3352C30.6238 16.5814 29.6325 17.1352 28.792 17.9571C27.4131 19.3058 26.664 20.9817 26.2837 22.8437C26.0645 23.916 26.0136 24.9976 26.1216 26.1115C28.1051 26.4014 29.9214 27.0965 31.6483 28.1106Z" fill="white"/>
<path d="M21.4255 33.1116C20.5078 32.4283 19.3273 32.3295 18.362 31.753C17.813 31.4245 17.3232 31.769 17.2699 32.4039C17.2508 32.6462 17.2747 32.8769 17.28 33.1118L21.4255 33.1116Z" fill="white"/>
<path d="M19.2052 30.9358C21.144 31.1436 22.9519 31.738 24.7723 32.4414C25.2617 32.6305 25.7127 32.8612 26.1449 33.1116H35.5534C35.3633 32.7427 35.1409 32.3863 34.8811 32.0455C32.2732 28.625 28.7352 26.9771 25.1547 26.7485C22.5353 26.7495 20.7533 27.2618 19.2114 28.4951C18.8051 28.8203 18.4872 29.2069 18.3822 29.7378C18.2596 30.3519 18.5807 30.8693 19.2052 30.9358Z" fill="white"/>
<path d="M21.4255 33.1116C20.5078 32.4283 19.3273 32.3295 18.362 31.753C17.813 31.4245 17.3232 31.769 17.2699 32.4039C17.2508 32.6462 17.2747 32.8769 17.28 33.1118L21.4255 33.1116Z" fill="white"/>
<path d="M47.9176 33.1121C48.1795 32.6757 48.4267 32.2206 48.6377 31.7218C49.0699 30.6994 49.2455 29.6198 48.9452 28.5257C48.6616 27.4898 47.8303 27.2353 46.9742 27.894C46.3175 28.399 45.7034 28.9632 45.0187 29.4224C44.4722 29.7892 43.8747 30.1487 43.2482 30.3139C41.9463 30.6589 40.7721 31.2013 39.7071 32.0211C39.1502 32.4492 38.5631 32.8294 37.9272 33.1121H47.9176Z" fill="white"/>
<path d="M32.7339 28.824C33.3532 27.8515 34.0888 27.0182 34.9595 26.3085C37.3503 24.3614 40.056 23.3171 43.1731 23.5416C44.5457 23.6403 45.8528 23.9873 46.8378 25.0315C47.136 25.3464 47.3449 25.7682 47.5163 26.1745C47.667 26.5298 47.4976 26.854 47.1235 26.9704C46.7672 27.0816 46.39 27.1491 46.018 27.1761C45.539 27.2115 45.14 27.3735 44.8387 27.7445C44.1394 28.6058 43.2375 29.1191 42.1538 29.3176C40.8883 29.5483 39.8087 30.126 38.8601 30.9884C38.1681 31.617 37.4013 32.1386 36.4973 32.4357C36.2292 32.5241 36.0702 32.5251 35.9019 32.2373C35.1819 31.005 34.202 29.9982 33.0882 29.115C32.976 29.0267 32.8679 28.9342 32.7339 28.824Z" fill="white"/>
<path d="M31.6483 28.1106C29.9214 27.0965 28.1051 26.4014 26.1216 26.1115C26.0136 24.9976 26.0645 23.916 26.2837 22.8437C26.664 20.9817 27.4131 19.3058 28.792 17.9571C29.6325 17.1352 30.6238 16.5814 31.7782 16.3352C32.5647 16.1668 32.9627 16.5866 32.8473 17.3804C32.7746 17.8771 32.7486 18.3935 32.7923 18.8922C32.8858 19.9718 32.7839 20.9984 32.3143 21.9927C31.4166 23.8921 31.1298 25.8704 31.6587 27.9329C31.668 27.9724 31.6545 28.016 31.6483 28.1106Z" fill="white"/>
<path d="M38.9983 23.275C36.569 24.0626 34.5522 25.3801 32.869 27.3533C32.6259 26.0129 32.443 24.765 32.9438 23.5286C33.1558 23.0028 33.3709 22.4781 33.615 21.9679C34.1553 20.8437 34.1096 19.7049 33.8208 18.5246C33.7002 18.031 33.6992 17.4886 33.748 16.9795C33.7948 16.488 34.1823 16.2449 34.6312 16.4382C35.1954 16.6803 35.7918 16.9525 36.2261 17.3671C37.8938 18.9578 38.6658 20.9964 38.9983 23.275Z" fill="white"/>
<path d="M27.9638 37.7902C27.9644 38.2645 27.533 38.2089 27.3301 38.2085C27.1273 38.2081 26.7599 37.4508 26.7593 36.9764C26.7594 36.5012 27.1277 36.4905 27.3303 36.4895C27.5332 36.4898 27.9639 37.315 27.9638 37.7902Z" fill="white"/>
<path d="M29.3911 38.7545C28.9809 38.9927 28.8119 38.5914 28.7116 38.4157C28.6103 38.2399 29.0816 37.5426 29.4919 37.3044C29.9032 37.0664 30.0981 37.3788 30.1994 37.5546C30.3007 37.7304 29.8014 38.5164 29.3911 38.7545Z" fill="white"/>
<path d="M24.7485 39.9225C24.3383 40.1606 24.1693 39.7594 24.069 39.5837C23.9677 39.4079 24.439 38.7105 24.8493 38.4724C25.2606 38.2343 25.4555 38.5468 25.5568 38.7226C25.6581 38.8983 25.1588 39.6844 24.7485 39.9225Z" fill="white"/>
<path d="M23.1227 38.0832C23.27 38.5356 22.8418 38.6142 22.6496 38.6766C22.4562 38.7398 21.8724 38.1321 21.7271 37.6803C21.5805 37.2292 21.9259 37.104 22.1193 37.0408C22.3125 36.9787 22.9763 37.6311 23.1227 38.0832Z" fill="white"/>
<path d="M24.5893 36.5536C24.1791 36.7917 24.0101 36.3905 23.9099 36.2148C23.8085 36.039 24.2799 35.3416 24.6901 35.1035C25.1014 34.8654 25.2963 35.1779 25.3976 35.3537C25.499 35.5295 24.9996 36.3155 24.5893 36.5536Z" fill="white"/>
<path d="M26.1067 40.797C25.6816 40.5845 25.9243 40.2235 26.0158 40.0431C26.1068 39.8618 26.9494 39.8712 27.373 40.0833C27.7981 40.2958 27.6435 40.631 27.5525 40.8123C27.4624 40.9931 26.5313 41.0085 26.1067 40.797Z" fill="white"/>
<path d="M29.5593 40.2784C29.1343 40.066 29.3769 39.705 29.4684 39.5246C29.5595 39.3433 30.402 39.3527 30.8257 39.5647C31.2508 39.7772 31.0962 40.1124 31.0051 40.2937C30.915 40.4745 29.9839 40.49 29.5593 40.2784Z" fill="white"/>
<path d="M28.591 41.6845C28.38 41.2587 28.7911 41.118 28.9732 41.0273C29.1551 40.9375 29.8206 41.4529 30.0316 41.8787C30.2415 42.3044 29.9173 42.4777 29.7352 42.5685C29.5534 42.6572 28.8011 42.1091 28.591 41.6845Z" fill="white"/>
<path d="M29.2224 44.0533C29.4955 43.6652 29.8168 43.9583 29.9823 44.0741C30.1483 44.1908 30.0159 45.0225 29.7421 45.412C29.4703 45.8007 29.1616 45.5985 28.997 45.4823C28.8301 45.3659 28.9506 44.4421 29.2224 44.0533Z" fill="white"/>
<path d="M32.2746 40.3207C32.0636 39.8949 32.4747 39.7543 32.6568 39.6635C32.8387 39.5738 33.5042 40.0891 33.7152 40.5149C33.9251 40.9406 33.6009 41.1139 33.4188 41.2047C33.237 41.2934 32.4847 40.7454 32.2746 40.3207Z" fill="white"/>
<path d="M31.9664 43.3655C31.4971 43.2962 31.6164 42.877 31.6459 42.6771C31.6762 42.4765 32.48 42.2238 32.9479 42.2947C33.4179 42.3647 33.375 42.7298 33.3462 42.9304C33.316 43.131 32.4364 43.4355 31.9664 43.3655Z" fill="white"/>
<path d="M29.898 47.5967C29.4288 47.5274 29.548 47.1082 29.5776 46.9083C29.6078 46.7077 30.4117 46.455 30.8795 46.5259C31.3496 46.5959 31.3066 46.961 31.2778 47.1616C31.2476 47.3622 30.3681 47.6667 29.898 47.5967Z" fill="white"/>
<path d="M26.0175 42.8461C25.7326 42.4665 26.1106 42.2514 26.273 42.1307C26.4342 42.0089 27.1843 42.3917 27.4692 42.7713C27.7551 43.1509 27.4684 43.3821 27.3061 43.5038C27.1439 43.6256 26.3034 43.2257 26.0175 42.8461Z" fill="white"/>
<path d="M35.4418 41.4132C35.1569 41.0336 35.535 40.8185 35.6973 40.6978C35.8585 40.5761 36.6086 40.9588 36.8935 41.3384C37.1794 41.718 36.8927 41.9492 36.7304 42.071C36.5682 42.1927 35.7277 41.7928 35.4418 41.4132Z" fill="white"/>
<path d="M35.9972 36.0715C35.7863 35.6456 36.1973 35.505 36.3794 35.4142C36.5614 35.3245 37.2268 35.8399 37.4378 36.2657C37.6478 36.6913 37.3235 36.8647 37.1414 36.9554C36.9596 37.0442 36.2074 36.4961 35.9972 36.0715Z" fill="white"/>
<path d="M32.1701 45.5258C31.9591 45.1 32.3702 44.9594 32.5523 44.8686C32.7342 44.7788 33.3997 45.2942 33.6107 45.72C33.8206 46.1457 33.4964 46.319 33.3143 46.4098C33.1325 46.4985 32.3802 45.9504 32.1701 45.5258Z" fill="white"/>
<path d="M31.9553 48.6362C31.7443 48.2103 32.1553 48.0697 32.3374 47.9789C32.5194 47.8892 33.1848 48.4046 33.3958 48.8304C33.6058 49.256 33.2815 49.4294 33.0994 49.5201C32.9176 49.6089 32.1654 49.0608 31.9553 48.6362Z" fill="white"/>
<path d="M41.9694 35.8456C41.7584 35.4198 42.1695 35.2792 42.3516 35.1884C42.5335 35.0987 43.199 35.614 43.41 36.0398C43.62 36.4655 43.2957 36.6388 43.1136 36.7296C42.9318 36.8183 42.1795 36.2703 41.9694 35.8456Z" fill="white"/>
<path d="M39.1077 46.1754C38.7014 45.9289 38.9737 45.5885 39.0783 45.4157C39.1839 45.2424 40.0219 45.3211 40.4282 45.5676C40.834 45.8132 40.6535 46.1342 40.5479 46.3074C40.4433 46.4803 39.5135 46.4209 39.1077 46.1754Z" fill="white"/>
<path d="M41.8874 39.7096C41.6764 39.2838 42.0875 39.1432 42.2696 39.0524C42.4515 38.9627 43.117 39.4781 43.328 39.9039C43.5379 40.3295 43.2137 40.5028 43.0316 40.5936C42.8498 40.6823 42.0975 40.1343 41.8874 39.7096Z" fill="white"/>
<path d="M45.3385 35.3929C45.661 35.0451 45.9391 35.3795 46.0875 35.5179C46.2358 35.6563 45.9894 36.4611 45.6671 36.8099C45.3435 37.158 45.0644 36.9155 44.916 36.7771C44.7689 36.6395 45.0152 35.742 45.3385 35.3929Z" fill="white"/>
<path d="M36.3776 38.7153C36.1666 38.2894 36.5777 38.1488 36.7598 38.058C36.9417 37.9683 37.6072 38.4837 37.8182 38.9095C38.0282 39.3351 37.7039 39.5085 37.5218 39.5992C37.34 39.688 36.5877 39.1399 36.3776 38.7153Z" fill="white"/>
<path d="M39.6192 35.1036C39.9405 34.7546 40.2198 35.088 40.3686 35.2259C40.5175 35.3638 40.2742 36.1705 39.9529 36.5195C39.6316 36.8685 39.3516 36.627 39.203 36.4902C39.0542 36.3523 39.2969 35.4529 39.6192 35.1036Z" fill="white"/>
<path d="M36.5557 44.9178C36.877 44.5688 37.1563 44.9023 37.3051 45.0401C37.454 45.178 37.2107 45.9847 36.8894 46.3337C36.5682 46.6827 36.2882 46.4412 36.1395 46.3044C35.9907 46.1665 36.2335 45.2671 36.5557 44.9178Z" fill="white"/>
<path d="M40.5144 37.6467C40.9762 37.7525 40.8266 38.16 40.781 38.3591C40.7362 38.5561 39.9153 38.7463 39.4521 38.6404C38.9902 38.5346 39.0604 38.1731 39.1052 37.9746C39.1507 37.7784 40.0518 37.5416 40.5144 37.6467Z" fill="white"/>
<path d="M40.1541 40.9917C40.2391 41.4599 39.8042 41.48 39.6049 41.5169C39.4056 41.5514 38.9087 40.8716 38.8247 40.4039C38.7403 39.9371 39.1013 39.8604 39.3006 39.8236C39.5003 39.788 40.0701 40.524 40.1541 40.9917Z" fill="white"/>
<path d="M42.494 43.1384C42.5789 43.6066 42.144 43.6267 41.9448 43.6636C41.7455 43.6982 41.2485 43.0183 41.1645 42.5506C41.0801 42.0838 41.4412 42.0072 41.6404 41.9703C41.8401 41.9348 42.41 42.6707 42.494 43.1384Z" fill="white"/>
<path d="M34.1002 34.8625C34.4225 34.5141 34.701 34.8476 34.8507 34.9841C34.9996 35.1218 34.7559 35.929 34.4349 36.2782C34.1126 36.6266 33.8347 36.3859 33.6847 36.2484C33.536 36.1117 33.7782 35.212 34.1002 34.8625Z" fill="white"/>
<path d="M34.4918 37.3948C34.8141 37.0463 35.0926 37.3798 35.2423 37.5163C35.3913 37.6541 35.1475 38.4612 34.8265 38.8104C34.5042 39.1589 34.2263 38.9181 34.0764 38.7806C33.9276 38.6439 34.1698 37.7442 34.4918 37.3948Z" fill="white"/>
<path d="M34.672 42.6555C34.9943 42.3071 35.2728 42.6405 35.4225 42.777C35.5714 42.9148 35.3277 43.7219 35.0067 44.0712C34.6844 44.4196 34.4065 44.1789 34.2565 44.0414C34.1076 43.9036 34.35 43.005 34.672 42.6555Z" fill="white"/>
<path d="M34.4918 46.8865C34.8141 46.538 35.0926 46.8715 35.2423 47.008C35.3913 47.1458 35.1475 47.9529 34.8265 48.3021C34.5042 48.6506 34.2263 48.4098 34.0764 48.2723C33.9276 48.1356 34.1698 47.2359 34.4918 46.8865Z" fill="white"/>
<path d="M28.1853 35.8033C27.7602 35.5909 28.0029 35.2299 28.0944 35.0495C28.1854 34.8682 29.028 34.8776 29.4517 35.0896C29.8767 35.3021 29.7221 35.6373 29.6311 35.8186C29.541 35.9994 28.6099 36.0149 28.1853 35.8033Z" fill="white"/>
<path d="M31.3438 35.4912C31.2945 35.0194 31.7284 35.03 31.9302 35.0095C32.1321 34.989 32.5768 35.7041 32.6256 36.1768C32.6745 36.6495 32.3101 36.6985 32.1077 36.7199C31.9059 36.7404 31.3918 35.9634 31.3438 35.4912Z" fill="white"/>
<path d="M31.0891 38.6712C30.664 38.4588 30.9067 38.0978 30.9982 37.9174C31.0893 37.7361 31.9318 37.7455 32.3555 37.9576C32.7805 38.17 32.626 38.5052 32.5349 38.6865C32.4448 38.8673 31.5137 38.8828 31.0891 38.6712Z" fill="white"/>
<path d="M37.6702 43.7396C37.2451 43.5271 37.4877 43.1662 37.5793 42.9858C37.6703 42.8045 38.5129 42.8138 38.9365 43.0259C39.3616 43.2384 39.207 43.5736 39.116 43.7549C39.0258 43.9357 38.0947 43.9512 37.6702 43.7396Z" fill="white"/>
<path d="M36.996 48.6737C36.5217 48.6744 36.5777 48.2422 36.5775 48.0401C36.5778 47.8373 37.3355 47.4687 37.8099 47.468C38.2845 47.4687 38.2962 47.8376 38.2965 48.0396C38.2962 48.2425 37.4712 48.6735 36.996 48.6737Z" fill="white"/>
<path d="M23.6145 41.8039C23.4575 41.3554 23.883 41.2653 24.0746 41.1986C24.2662 41.132 24.8632 41.7253 25.0203 42.1738C25.1765 42.621 24.8332 42.7541 24.6413 42.8219C24.451 42.8878 23.7708 42.2511 23.6145 41.8039Z" fill="white"/>
<path d="M23.6533 44.1063C23.9323 43.7223 24.2491 44.0203 24.4129 44.1386C24.577 44.2578 24.4307 45.0867 24.1521 45.4717C23.8735 45.8566 23.5682 45.6507 23.4044 45.5324C23.2399 45.4122 23.3747 44.4913 23.6533 44.1063Z" fill="white"/>
<path d="M26.3828 45.5361C26.842 45.6584 26.6765 46.0616 26.6248 46.2569C26.573 46.4536 25.7459 46.6146 25.286 46.4916C24.8282 46.3695 24.9111 46.0107 24.9628 45.8154C25.0147 45.6186 25.9235 45.4154 26.3828 45.5361Z" fill="white"/>
<path d="M27.5682 48.2838C27.3469 47.8633 27.7545 47.7116 27.9342 47.6175C28.1139 47.5233 28.793 48.0213 29.0142 48.4429C29.2356 48.8624 28.9135 49.0444 28.7349 49.1386C28.5552 49.2328 27.7897 48.7033 27.5682 48.2838Z" fill="white"/>
<path d="M30.3412 50.1469C30.1199 49.7264 30.5275 49.5747 30.7072 49.4805C30.8869 49.3863 31.5659 49.8844 31.7871 50.3059C32.0086 50.7254 31.6865 50.9074 31.5078 51.0017C31.3281 51.0959 30.5627 50.5664 30.3412 50.1469Z" fill="white"/>
<path d="M90.7233 34.9773V30.1773L86.3945 22.7068H87.5465L91.2469 29.165L94.9124 22.7068H96.0818L91.7531 30.1773V34.9773H90.7233Z" fill="white"/>
</g>
<defs>
<clipPath id="clip0_62_645">
<rect width="184.436" height="64" fill="white" transform="translate(0 0.940674)"/>
</clipPath>
</defs>
</svg>
