<svg width="657" height="86" viewBox="0 0 657 86" fill="none" xmlns="http://www.w3.org/2000/svg">
<path d="M25.7699 45.0831V54.8699H10.8623V74.9339H29.6192V84.7207H0.00292969V16.21H29.6192V25.9967H10.8623V45.0831H25.7699Z" fill="white"/>
<path d="M47.1919 16.2102V74.9341H65.0596V84.7209H36.3325V16.2102H47.1919Z" fill="white"/>
<path d="M120.484 67.4937C120.484 73.0417 119.102 77.2971 116.337 80.2666C113.572 83.2361 109.558 84.7208 104.293 84.7208C99.0259 84.7208 95.0144 83.2361 92.2482 80.2666C89.4853 77.2971 88.103 73.0417 88.103 67.4937V31.868C88.103 26.3217 89.4853 22.0646 92.2482 19.0951C95.0144 16.1273 99.0259 14.6409 104.293 14.6409C109.558 14.6409 113.572 16.1273 116.337 19.0951C119.102 22.0646 120.484 26.3217 120.484 31.868V38.5245H110.216V31.1836C110.216 26.6813 108.339 24.4293 104.588 24.4293C100.838 24.4293 98.9624 26.6813 98.9624 31.1836V68.1781C98.9624 72.6175 100.838 74.8346 104.588 74.8346C108.339 74.8346 110.216 72.6175 110.216 68.1781V58.3913H120.484V67.4937Z" fill="white"/>
<path d="M147.927 62.2085L142.694 27.5621L137.462 62.2085H147.927ZM151.284 83.9362L149.408 71.5064H136.08L134.205 83.9362H124.233L135.289 15.4255H151.185L162.24 83.9362H151.284Z" fill="white"/>
<path d="M192.152 45.8644V55.6511H178.133V83.9377H167.274V15.4253H196.003V25.2121H178.133V45.8644H192.152Z" fill="white"/>
<path d="M217.524 11.8033H210.218L216.933 0.939453H227.593L217.524 11.8033ZM227.001 44.2972V54.0856H212.094V74.1497H230.851V83.9364H201.234V15.4257H230.851V25.2125H212.094V44.2972H227.001Z" fill="white"/>
<path d="M264.752 74.9351H270.873C272.652 74.9351 274.016 74.4148 274.97 73.3692C275.924 72.3269 276.402 70.6283 276.402 68.2786V32.6528C276.402 30.3047 275.924 28.6095 274.97 27.5639C274.016 26.5216 272.652 25.9996 270.873 25.9996H264.752V74.9351ZM271.07 16.2112C276.468 16.2112 280.514 17.6479 283.213 20.518C285.911 23.3897 287.262 27.5987 287.262 33.1433V67.7897C287.262 73.336 285.911 77.545 283.213 80.4168C280.514 83.2885 276.468 84.7219 271.07 84.7219H253.893V16.2112H271.07Z" fill="white"/>
<path d="M319.937 45.0833V54.8701H305.029V74.9358H323.786V84.7226H294.17V16.2102H323.786V25.9986H305.029V45.0833H319.937Z" fill="white"/>
<path d="M357.689 16.2102V74.9341H375.557V84.7226H346.83V16.2102H357.689Z" fill="white"/>
<path d="M401.126 62.9936L395.892 28.3472L390.661 62.9936H401.126ZM404.482 84.7214L402.606 72.2916H389.278L387.403 84.7214H377.431L388.488 16.2107H404.383L415.438 84.7214H404.482Z" fill="white"/>
<path d="M449.341 49.1929H454.474C456.252 49.1929 457.584 48.7041 458.474 47.7247C459.361 46.7454 459.806 45.0833 459.806 42.7352V32.4563C459.806 30.1082 459.361 28.4445 458.474 27.4668C457.584 26.4875 456.252 25.9986 454.474 25.9986H449.341V49.1929ZM466.617 20.517C469.315 23.3887 470.665 27.5977 470.665 33.1423V42.0475C470.665 47.5955 469.315 51.8045 466.617 54.6746C463.917 57.5463 459.871 58.9813 454.474 58.9813H449.341V84.7209H438.481V16.2102H454.474C459.871 16.2102 463.917 17.6469 466.617 20.517Z" fill="white"/>
<path d="M491.789 75.7174C495.54 75.7174 497.417 73.467 497.417 68.9647V31.9686C497.417 27.4662 495.54 25.2143 491.789 25.2143C488.038 25.2143 486.163 27.4662 486.163 31.9686V68.9647C486.163 73.467 488.038 75.7174 491.789 75.7174ZM479.549 19.9298C482.377 16.9288 486.459 15.4275 491.789 15.4275C497.119 15.4275 501.201 16.9288 504.031 19.9298C506.861 22.9324 508.275 27.1713 508.275 32.6529V68.2787C508.275 73.7587 506.861 78.0025 504.031 81.0018C501.201 84.0045 497.119 85.5041 491.789 85.5041C486.459 85.5041 482.377 84.0045 479.549 81.0018C476.716 78.0025 475.304 73.7587 475.304 68.2787V32.6529C475.304 27.1713 476.716 22.9324 479.549 19.9298Z" fill="white"/>
<path d="M517.95 19.8798C520.648 16.912 524.629 15.4272 529.894 15.4272C535.161 15.4272 539.142 16.912 541.842 19.8798C544.538 22.851 545.888 27.1081 545.888 32.6527V34.8069H535.621V31.9683C535.621 29.6186 535.161 27.9068 534.24 26.8297C533.316 25.7526 531.968 25.2157 530.192 25.2157C528.415 25.2157 527.064 25.7526 526.143 26.8297C525.222 27.9068 524.761 29.6186 524.761 31.9683C524.761 34.84 525.535 37.3505 527.083 39.5048C528.629 41.6573 530.947 44.1032 534.043 46.844C536.608 49.1921 538.681 51.2651 540.262 53.0581C541.842 54.8544 543.189 57.0235 544.31 59.5671C545.427 62.1124 545.987 65.0173 545.987 68.2785C545.987 73.8264 544.605 78.0835 541.842 81.0513C539.077 84.0208 535.061 85.5056 529.797 85.5056C524.532 85.5056 520.517 84.0208 517.753 81.0513C514.99 78.0835 513.606 73.8264 513.606 68.2785V64.0711H523.874V68.9645C523.874 73.4022 525.749 75.6194 529.5 75.6194C533.252 75.6194 535.127 73.4022 535.127 68.9645C535.127 66.0944 534.352 63.5806 532.809 61.4281C531.261 59.2738 528.94 56.828 525.849 54.0888C523.28 51.739 521.208 49.6677 519.628 47.8731C518.05 46.0784 516.7 43.9093 515.582 41.364C514.462 38.8204 513.902 35.9172 513.902 32.6527C513.902 27.1081 515.251 22.851 517.95 19.8798Z" fill="white"/>
<path d="M598.209 47.0406H602.454C604.626 47.0406 606.254 46.4871 607.342 45.3769C608.426 44.2683 608.97 42.4074 608.97 39.7975V33.0448C608.97 30.5658 608.525 28.7728 607.638 27.6626C606.748 26.554 605.349 25.9989 603.442 25.9989H598.209V47.0406ZM609.266 81.5909C609.134 80.6116 609.068 78.8484 609.068 76.3048V65.5387C609.068 62.4051 608.508 60.173 607.39 58.8341C606.27 57.4985 604.46 56.8274 601.96 56.8274H598.209V84.7212H587.35V16.2104H603.738C609.331 16.2104 613.412 17.4997 615.98 20.0764C618.545 22.6549 619.829 26.6186 619.829 31.9677V37.3499C619.829 44.3975 617.461 49.0308 612.722 51.2496C615.288 52.2936 617.13 54.0385 618.25 56.4844C619.368 58.9319 619.928 62.0489 619.928 65.832V76.4026C619.928 78.3596 619.993 79.9421 620.125 81.1485C620.255 82.3565 620.585 83.5463 621.113 84.7212H610.056C609.662 83.6126 609.396 82.5669 609.266 81.5909Z" fill="white"/>
<path d="M652.802 45.0826V54.8694H637.895V74.9351H656.651V84.7218H627.035V16.2095H656.651V25.9979H637.895V45.0826H652.802Z" fill="white"/>
<path d="M582.611 16.2097V25.9981H571.258V84.7221H560.399V25.9981H549.046V16.2097H582.611Z" fill="white"/>
</svg>
