<svg width="201" height="33" viewBox="0 0 201 33" fill="none" xmlns="http://www.w3.org/2000/svg">
<path d="M7.44712 2.0977H0.649902V1.16406H15.2288V2.0977H8.42373V32.2828H7.44712V2.0977Z" fill="white"/>
<path d="M20.4366 29.8586C21.382 31.0306 22.7727 31.6126 24.6087 31.6126C26.4799 31.6126 27.8901 31.0306 28.8589 29.8586C29.8199 28.6867 30.3004 26.96 30.3004 24.6787V8.76773C30.3004 6.48636 29.8199 4.75581 28.8589 3.58387C27.8901 2.41585 26.4799 1.82988 24.6087 1.82988C22.7727 1.82988 21.382 2.41585 20.4366 3.58387C19.4835 4.75581 19.0108 6.48636 19.0108 8.76773V24.6787C19.0108 26.96 19.4835 28.6867 20.4366 29.8586ZM19.6983 2.93931C20.8117 1.61112 22.4524 0.943115 24.6087 0.943115C26.8081 0.943115 28.4644 1.61112 29.5934 2.93931C30.7145 4.27531 31.277 6.23244 31.277 8.80679V24.6357C31.277 27.2101 30.7145 29.1672 29.5934 30.5032C28.4644 31.8353 26.8081 32.5033 24.6087 32.5033C22.4524 32.5033 20.8117 31.8353 19.6983 30.5032C18.5889 29.1672 18.0342 27.2101 18.0342 24.6357V8.80679C18.0342 6.23244 18.5889 4.27531 19.6983 2.93931Z" fill="white"/>
<path d="M46.1236 3.07433C47.1627 4.49627 47.6784 6.36355 47.6784 8.67617V9.25432H46.7018V8.6332C46.7018 6.61747 46.2682 4.97676 45.4126 3.71889C44.5532 2.46101 43.1703 1.83208 41.2796 1.83208C39.3498 1.83208 37.9591 2.4532 37.0958 3.69545C36.2442 4.94551 35.8067 6.5745 35.8067 8.58632C35.8067 9.80513 36.0684 10.8677 36.588 11.7857C37.1036 12.7076 37.7599 13.4928 38.549 14.1452C39.3264 14.7976 40.3538 15.5515 41.639 16.4109C42.9633 17.3016 44.0415 18.0868 44.8579 18.7665C45.6744 19.4462 46.3541 20.2861 46.901 21.2784C47.4518 22.2706 47.7253 23.4347 47.7253 24.7707C47.7253 27.1068 47.1979 28.9858 46.1471 30.3921C45.0923 31.8023 43.4399 32.5016 41.1859 32.5016C38.967 32.5016 37.3263 31.8023 36.2755 30.3921C35.2285 28.9858 34.7012 27.1068 34.7012 24.7707V23.255H35.6309V24.8098C35.6309 26.8568 36.0762 28.4936 36.9669 29.7241C37.8537 30.9546 39.2639 31.5679 41.1859 31.5679C43.1157 31.5679 44.522 30.9546 45.4126 29.7241C46.2994 28.4936 46.7487 26.8568 46.7487 24.8098C46.7487 23.5988 46.483 22.5441 45.9713 21.6573C45.4517 20.7666 44.8111 20.0049 44.0571 19.3681C43.2993 18.7314 42.2719 17.9813 40.9671 17.1219C39.5999 16.2039 38.5256 15.4031 37.7248 14.7194C36.9239 14.0436 36.2442 13.1959 35.6778 12.1881C35.1153 11.1802 34.8301 9.99264 34.8301 8.6332C34.8301 6.25808 35.3575 4.3947 36.4122 3.03135C37.463 1.668 39.0725 0.972658 41.2327 0.941406C43.4516 0.941406 45.0845 1.65238 46.1236 3.07433Z" fill="white"/>
<path d="M57.1864 2.0977H50.3892V1.16406H64.968V2.0977H58.163V32.2828H57.1864V2.0977Z" fill="white"/>
<path d="M79.5944 24.0558L74.1684 2.2735L68.883 24.0558H79.5944ZM66.8829 32.2789H65.9922L73.5043 1.12109H74.8872L82.5711 32.2789H81.5945L79.7702 24.9465H68.7072L66.8829 32.2789Z" fill="white"/>
<path d="M96.8599 29.5227C97.7975 28.3078 98.2623 26.667 98.2623 24.5888V8.90053C98.2623 6.8223 97.7975 5.17378 96.8599 3.93935C95.9302 2.71272 94.4731 2.09551 92.4808 2.09551H86.9727V31.347H92.4808C94.4731 31.347 95.9302 30.7415 96.8599 29.5227ZM97.5709 3.29478C98.6842 4.71673 99.2389 6.60354 99.2389 8.9396V24.5458C99.2389 26.8858 98.6842 28.7609 97.5709 30.1672C96.4615 31.5735 94.7778 32.2806 92.5277 32.2806H85.9961V1.16187H92.4808C94.7622 1.16187 96.4615 1.87674 97.5709 3.29478Z" fill="white"/>
<path d="M105.066 29.8586C106.011 31.0306 107.41 31.6126 109.246 31.6126C111.109 31.6126 112.527 31.0306 113.488 29.8586C114.449 28.6867 114.93 26.96 114.93 24.6787V8.76773C114.93 6.48636 114.449 4.75581 113.488 3.58387C112.527 2.41585 111.109 1.82988 109.246 1.82988C107.41 1.82988 106.011 2.41585 105.066 3.58387C104.121 4.75581 103.648 6.48636 103.648 8.76773V24.6787C103.648 26.96 104.121 28.6867 105.066 29.8586ZM104.336 2.93931C105.449 1.61112 107.082 0.943115 109.246 0.943115C111.437 0.943115 113.102 1.61112 114.223 2.93931C115.352 4.27531 115.914 6.23244 115.914 8.80679V24.6357C115.914 27.2101 115.352 29.1672 114.223 30.5032C113.102 31.8353 111.437 32.5033 109.246 32.5033C107.082 32.5033 105.449 31.8353 104.336 30.5032C103.218 29.1672 102.664 27.2101 102.664 24.6357V8.80679C102.664 6.23244 103.218 4.27531 104.336 2.93931Z" fill="white"/>
<path d="M137.288 32.1893L129.596 2.63313V32.2791H128.713V1.16431H130.221L137.866 30.6775L145.511 1.16431H147.023V32.2791H146.046V2.63313L138.401 32.1893H137.288Z" fill="white"/>
<path d="M160.716 16.9451H151.551V31.3482H162.446V32.2818H150.575V1.16309H162.446V2.09673H151.551V16.0545H160.716V16.9451Z" fill="white"/>
<path d="M176.787 29.5227C177.716 28.3078 178.181 26.667 178.181 24.5888V8.90053C178.181 6.8223 177.716 5.17378 176.787 3.93935C175.849 2.71272 174.392 2.09551 172.408 2.09551H166.892V31.347H172.408C174.392 31.347 175.849 30.7415 176.787 29.5227ZM177.498 3.29478C178.611 4.71673 179.158 6.60354 179.158 8.9396V24.5458C179.158 26.8858 178.611 28.7609 177.498 30.1672C176.38 31.5735 174.705 32.2806 172.454 32.2806H165.915V1.16187H172.408C174.689 1.16187 176.38 1.87674 177.498 3.29478Z" fill="white"/>
<path d="M182.631 1.16406H183.607V32.2828H182.631V1.16406Z" fill="white"/>
<path d="M189.52 29.8586C190.465 31.0306 191.864 31.6126 193.7 31.6126C195.563 31.6126 196.981 31.0306 197.942 29.8586C198.903 28.6867 199.384 26.96 199.384 24.6787V8.76773C199.384 6.48636 198.903 4.75581 197.942 3.58387C196.981 2.41585 195.563 1.82988 193.7 1.82988C191.864 1.82988 190.465 2.41585 189.52 3.58387C188.575 4.75581 188.102 6.48636 188.102 8.76773V24.6787C188.102 26.96 188.575 28.6867 189.52 29.8586ZM188.79 2.93931C189.903 1.61112 191.536 0.943115 193.7 0.943115C195.892 0.943115 197.556 1.61112 198.677 2.93931C199.806 4.27531 200.368 6.23244 200.368 8.80679V24.6357C200.368 27.2101 199.806 29.1672 198.677 30.5032C197.556 31.8353 195.892 32.5033 193.7 32.5033C191.536 32.5033 189.903 31.8353 188.79 30.5032C187.672 29.1672 187.118 27.2101 187.118 24.6357V8.80679C187.118 6.23244 187.672 4.27531 188.79 2.93931Z" fill="white"/>
</svg>
